<svg width="208" height="132" viewBox="0 0 208 132" fill="none" xmlns="http://www.w3.org/2000/svg">
<path d="M25.6718 131.539C23.8471 131.548 22.0499 131.09 20.4538 130.208C17.3201 128.377 15.2041 125.206 14.7138 121.61C14.0603 117.882 15.1351 114.06 17.631 111.215C20.0738 108.662 23.4572 107.227 26.9906 107.247C30.6931 107.186 34.2599 108.633 36.8737 111.253C38.035 112.471 37.9897 114.398 36.7733 115.561C36.6414 115.687 36.4997 115.8 36.3481 115.902C37.2949 117.646 37.7004 119.634 37.5075 121.61C37.0213 125.295 34.7163 128.488 31.374 130.11C29.6142 131.035 27.6596 131.525 25.6718 131.539ZM21.6661 115.905C20.7666 117.313 20.432 119.006 20.7311 120.649C20.9339 122.399 21.924 123.962 23.4239 124.889C25.0655 125.679 26.9906 125.608 28.5693 124.7C30.0908 124.015 31.1715 122.616 31.449 120.972C31.4844 119.256 30.6046 117.651 29.1401 116.76C27.9059 115.791 26.2505 115.553 24.792 116.13C23.7881 116.638 22.5873 116.551 21.6661 115.905Z" fill="#DC7C7B"/>
<path d="M191.795 122.63C191.291 122.63 190.793 122.505 190.35 122.262C187.345 120.575 185.15 117.743 184.264 114.413C183.315 111.169 183.719 107.681 185.38 104.738C187.203 101.766 190.203 99.7068 193.632 99.0731C196.97 98.3468 200.462 99.0731 203.236 101.071C206.019 103.232 207.696 106.521 207.812 110.043C208.141 113.553 206.785 117.011 204.159 119.361C201.531 121.712 197.945 122.676 194.494 121.962C194.275 121.924 194.063 121.883 193.852 121.838C193.289 122.347 192.555 122.63 191.795 122.63ZM189.961 112.005C190.693 112.253 191.303 112.771 191.667 113.452C192.5 114.826 193.911 115.747 195.506 115.952C197.143 116.294 198.846 115.865 200.125 114.788C201.281 113.615 201.865 111.997 201.728 110.358C201.69 108.645 200.907 107.035 199.584 105.948C198.196 104.988 196.468 104.661 194.826 105.047C193.1 105.352 191.581 106.36 190.628 107.832C189.925 109.102 189.689 110.578 189.961 112.005Z" fill="#DC7C7B"/>
<path d="M24.9266 95.9128C23.3814 95.9109 22.0823 94.7534 21.9051 93.2181C20.3422 78.0047 22.8756 62.6511 29.2415 48.7463C35.6094 34.8416 45.5751 22.8899 58.1118 14.1305C70.8848 5.72132 85.675 0.881294 100.95 0.109814C116.223 -0.663783 131.426 2.66084 144.983 9.73695C158.34 17.1872 169.462 28.0726 177.197 41.2644C184.935 54.4566 189.004 69.4771 188.984 84.7716C188.959 86.4349 187.603 87.7714 185.937 87.7714H185.892C184.209 87.7439 182.867 86.3601 182.892 84.6771C182.91 70.4947 179.135 56.5667 171.962 44.3334C164.787 32.1001 154.475 22.0058 142.088 15.0988C129.516 8.53639 115.42 5.4535 101.256 6.17005C87.0936 6.88656 73.3797 11.3764 61.5339 19.1733C49.9088 27.2968 40.6651 38.3787 34.7619 51.2737C28.8606 64.1687 26.5104 78.406 27.9592 92.5134C28.1521 94.1865 26.9553 95.6982 25.2841 95.8931C25.166 95.9069 25.0479 95.9128 24.9278 95.9128L24.9266 95.9128Z" fill="#DC7C7B"/>
<path d="M22.7896 93.9731C21.9904 93.9731 21.2227 93.6601 20.6519 93.0991C13.0404 85.6095 6.27493 77.3046 0.480009 68.3331C-0.423495 66.9218 -0.0140562 65.0459 1.39334 64.1346C2.80075 63.2252 4.67856 63.6228 5.59582 65.0262C11.1489 73.6223 17.6306 81.5805 24.9272 88.7552C25.809 89.6232 26.0787 90.9361 25.6083 92.0818C25.1398 93.2254 24.0257 93.9731 22.7896 93.9731Z" fill="#DC7C7B"/>
<path d="M29.7882 93.6048C28.554 93.6048 27.4419 92.8588 26.9715 91.7191C26.501 90.5775 26.7648 89.2646 27.6407 88.3945L51.732 64.461C52.9248 63.276 54.8538 63.2819 56.0408 64.4748C57.2257 65.6696 57.2198 67.5986 56.025 68.7855L31.9338 92.7191C31.3649 93.286 30.5913 93.6048 29.7882 93.6048Z" fill="#DC7C7B"/>
</svg>
