<svg width="196" height="196" viewBox="0 0 196 196" fill="none" xmlns="http://www.w3.org/2000/svg">
<path d="M57.1169 0.000118151H187.766C189.963 -0.0124256 192.057 0.974348 193.554 2.71374C195.085 4.50332 195.939 6.86154 195.939 9.31174V186.237C195.935 188.687 195.081 191.041 193.554 192.835C192.057 194.578 189.956 195.561 187.766 195.548H57.1169C52.5462 195.461 48.9133 191.338 48.9937 186.346V186.287V9.32011C48.8827 4.31516 52.4849 0.150643 57.0633 0.000118151H57.1169Z" fill="#21A366"/>
<path d="M48.9971 97.7827V186.517C48.7713 191.509 52.2816 195.749 56.8524 195.996L56.9213 196H187.781C192.382 195.912 196.046 191.764 195.954 186.743V186.684V97.9457L48.9971 97.7827Z" fill="#185C37"/>
<path d="M48.9976 48.9165H195.95V97.837H48.9976V48.9165Z" fill="#107C41"/>
<path d="M187.777 0.000205532H122.478V146.699H195.954V9.32019C195.95 6.86999 195.096 4.51595 193.569 2.72219C192.061 0.974435 189.963 -0.00815695 187.777 0.000205532Z" fill="#33C481"/>
<path d="M196 48.9165H122.474V97.8328H196V48.9165Z" fill="#21A366"/>
<path d="M196 97.7827H122.474V146.699H196V97.7827Z" fill="#107C41"/>
<path d="M107.081 97.837H104.746V97.8495H107.081V97.837ZM100.987 39.9393H96.8179C97.2083 40.6083 97.4954 41.3568 97.6486 42.1554H98.5979V42.1512H98.6477C98.7013 42.1512 98.7511 42.1554 98.8046 42.1554C102.147 42.2766 104.776 45.2913 104.742 48.9165H107.073V46.922C107.173 43.1589 104.447 40.0313 100.987 39.9393Z" fill="#209D63"/>
<path d="M104.746 97.8454V150.914V150.972C104.758 151.666 104.67 152.327 104.505 152.962C104.505 153.519 104.436 154.066 104.317 154.581C106.025 153.326 107.131 151.173 107.081 148.752V148.748V97.8412L104.746 97.8454Z" fill="#175935"/>
<path d="M107.081 48.9165H104.75C104.75 48.9708 104.75 49.0294 104.746 49.0795V97.8328H107.081V48.9165Z" fill="#0F783F"/>
<path d="M49.1504 154.806V170.549H89.7741C94.253 170.52 97.882 166.602 97.9968 161.739C97.7136 161.885 97.4111 162.015 97.1049 162.115C95.7459 165.038 92.9744 167.037 89.7741 167.062H49.1504V163.955V154.806Z" fill="#175633"/>
<path d="M104.746 97.837H104.493V97.8495H104.746V97.837ZM98.6554 42.1512H98.6056V42.1554H97.6562C97.7596 42.6697 97.8055 43.2091 97.7902 43.761V44.9819H98.5597C100.964 45.0864 102.996 46.6753 103.942 48.9165H104.757C104.788 45.2871 102.158 42.2767 98.82 42.1554C98.7587 42.1554 98.709 42.1512 98.6554 42.1512Z" fill="#1E935C"/>
<path d="M104.501 97.8453V152.532L104.505 152.661C104.509 152.762 104.509 152.866 104.509 152.967C104.673 152.335 104.757 151.67 104.75 150.976V150.918V97.8537L104.501 97.8453Z" fill="#165332"/>
<path d="M104.754 48.9165H103.938C104.329 49.8447 104.536 50.8817 104.501 51.9646V97.8328H104.754V49.0837C104.754 49.0294 104.754 48.975 104.754 48.9165Z" fill="#0E703B"/>
<path d="M104.321 154.589C104.084 154.76 103.842 154.919 103.586 155.053C103.027 155.91 102.288 156.621 101.431 157.119C101.266 157.871 100.99 158.574 100.619 159.213C102.449 158.406 103.839 156.68 104.321 154.589Z" fill="#175633"/>
<path d="M104.509 152.962C104.309 153.719 103.999 154.422 103.586 155.049C103.842 154.915 104.084 154.756 104.321 154.585C104.44 154.066 104.505 153.527 104.509 152.962Z" fill="#165332"/>
<path d="M103.586 155.053C102.974 155.383 102.308 155.605 101.6 155.697C101.588 156.182 101.531 156.659 101.427 157.114C102.292 156.617 103.027 155.906 103.586 155.053Z" fill="#155030"/>
<path d="M104.501 97.837H103.632V97.8412H104.501V97.837ZM98.5561 44.9903H97.7866V45.3582C97.7866 45.4753 97.7904 45.5924 97.7866 45.7094V47.1352C97.7866 47.2523 97.7904 47.3694 97.7866 47.4865V48.5527C98.3876 48.5861 98.9618 48.7158 99.5054 48.929H103.931C102.989 46.6837 100.96 45.0864 98.5561 44.9903Z" fill="#1C8A56"/>
<path d="M103.628 97.8454V150.42V150.424C103.67 152.477 102.885 154.338 101.603 155.622C101.603 155.647 101.603 155.668 101.603 155.693C102.307 155.601 102.977 155.375 103.59 155.049C103.999 154.422 104.313 153.719 104.512 152.962C104.512 152.862 104.512 152.762 104.509 152.657L104.505 152.528V97.8412L103.628 97.8454Z" fill="#154E2E"/>
<path d="M103.935 48.9165H99.5093C101.898 49.8447 103.613 52.3242 103.628 55.2385V97.837H104.497V51.9688C104.532 50.8817 104.329 49.8447 103.935 48.9165Z" fill="#0D6937"/>
<path d="M91.7038 36.7783H91.6502H48.9976V43.0962V38.7226H91.6502H91.7038C92.9747 38.756 94.1461 39.2034 95.1184 39.9435H96.8219C95.7424 38.087 93.8628 36.8369 91.7038 36.7783Z" fill="#21A265"/>
<path d="M96.8217 39.9393H95.1182C95.88 40.5205 96.5154 41.2773 96.9748 42.1554H97.6562C97.4954 41.3568 97.2121 40.6083 96.8217 39.9393Z" fill="#209C62"/>
<path d="M97.6526 42.1554H96.9712C97.4153 43.0042 97.6947 43.9617 97.7713 44.9819H97.7866V43.761C97.8019 43.2132 97.7559 42.6739 97.6526 42.1554Z" fill="#1E925B"/>
<path d="M97.7941 44.9903H97.7788C97.7903 45.1115 97.7941 45.237 97.7941 45.3582V44.9903Z" fill="#1C8855"/>
<path d="M97.101 162.111C96.5957 162.274 96.0597 162.37 95.5047 162.391H94.3601C93.0509 163.365 91.4699 163.934 89.7702 163.947H49.1465V167.053H89.7702C92.9743 167.032 95.742 165.03 97.101 162.111Z" fill="#144B2D"/>
<path d="M49.1504 154.806V163.947H89.7741C91.4776 163.934 93.0548 163.365 94.364 162.391H52.8101H52.8062C52.0597 162.366 51.3783 162.057 50.8577 161.559H49.1619V159.452V154.806H49.1504Z" fill="#114227"/>
<path d="M49.7897 159.456H49.1504V161.563H50.8462C50.2835 161.032 49.9045 160.288 49.7897 159.456Z" fill="#0F3A23"/>
<path d="M49.1504 154.806V159.456H49.7897C49.7629 159.255 49.7514 159.05 49.7591 158.845V154.84C49.7208 154.84 49.6902 154.84 49.6519 154.84C49.4834 154.84 49.3188 154.827 49.1504 154.806Z" fill="#0D321E"/>
<path d="M103.628 97.837H101.603V97.8412H103.628V97.837ZM97.7939 48.5443V48.837C97.8246 48.8663 97.8629 48.8914 97.8973 48.9207H99.5128C98.9692 48.7074 98.3873 48.5778 97.7939 48.5443Z" fill="#1A8050"/>
<path d="M101.607 97.8412V155.455C101.607 155.509 101.607 155.567 101.607 155.618C102.889 154.334 103.678 152.473 103.632 150.42V150.416V97.8412H101.607Z" fill="#13492B"/>
<path d="M99.509 48.9165H97.8936C99.0267 49.8656 99.8306 50.9653 99.8306 52.2406V55.2845C100.968 56.5556 101.653 58.3034 101.607 60.2225V97.8245H103.632V55.2343C103.613 52.3242 101.902 49.8447 99.509 48.9165Z" fill="#0D6233"/>
<path d="M49.0933 150.383V154.798C49.1086 154.798 49.1315 154.802 49.1469 154.802V150.429C49.1315 150.416 49.1124 150.399 49.0933 150.383Z" fill="#155030"/>
<path d="M49.2002 154.464H49.1504V154.802C49.315 154.827 49.4834 154.836 49.6557 154.836C49.694 154.836 49.7246 154.836 49.7629 154.836V154.794H49.204V154.459" fill="#0C2E1C"/>
<path d="M49.7591 154.464H49.2002V154.798H49.7591V154.464Z" fill="#0B2919"/>
<path d="M49.1504 150.437V154.472H49.2002V150.483C49.1848 150.458 49.1695 150.445 49.1504 150.437Z" fill="#0B2919"/>
<path d="M49.2002 150.475V154.464H49.7591V150.851C49.56 150.751 49.3725 150.621 49.2002 150.475Z" fill="#0A2617"/>
<path d="M48.9901 43.0878C48.3546 43.715 47.9641 44.6307 47.9794 45.6384V45.6969V147.748C47.9794 148.744 48.3661 149.647 48.9901 150.278V148.104C48.5881 147.51 48.3546 146.774 48.3814 145.976V144.587C48.3814 144.516 48.3814 144.441 48.3814 144.37V142.48C48.3814 142.447 48.3814 142.409 48.3814 142.367V128.055H48.9901V43.0878Z" fill="#CBCBCB"/>
<path d="M48.9897 148.108V150.282L48.9936 150.286V148.116C48.9974 148.112 48.9974 148.112 48.9897 148.108Z" fill="#1A8251"/>
<path d="M48.9976 148.116V150.286C49.0282 150.316 49.0626 150.349 49.0933 150.378V148.25C49.0588 148.204 49.0282 148.167 48.9976 148.116Z" fill="#13492C"/>
<path d="M48.9895 128.063H48.3809V142.376C48.3809 142.409 48.3809 142.447 48.3809 142.488V130.066H48.9895V128.063Z" fill="#CACACA"/>
<path d="M97.7939 48.837V48.9207H97.8973C97.8552 48.8872 97.8246 48.8663 97.7939 48.837Z" fill="#156A42"/>
<path d="M97.89 48.9165H97.7866V50.9736C98.4757 51.9771 98.9082 53.1981 98.9963 54.511C99.2911 54.7451 99.5705 55.0044 99.8232 55.2929V52.2489C99.827 50.9695 99.0231 49.8698 97.89 48.9165Z" fill="#0A512A"/>
<path d="M97.7939 50.9778V52.0691C97.9164 52.6503 97.9853 53.2524 97.9968 53.8712C98.3528 54.051 98.6897 54.2643 98.9998 54.511C98.9079 53.1981 98.4753 51.9813 97.7939 50.9778Z" fill="#094926"/>
<path d="M97.7939 52.0733C97.9164 52.6545 97.9853 53.2566 97.9968 53.8754C97.9815 53.2524 97.9088 52.6545 97.7939 52.0733Z" fill="#083F21"/>
<path d="M97.7939 52.0733V53.7751C97.8629 53.8043 97.9279 53.8378 97.9968 53.8754C97.9815 53.2608 97.9088 52.6545 97.7939 52.0733Z" fill="#07381E"/>
<path d="M49.0933 148.254V150.383C49.1086 150.399 49.1315 150.416 49.1469 150.429V148.317C49.1315 148.3 49.1124 148.275 49.0933 148.254Z" fill="#114127"/>
<path d="M49.1504 148.326V150.437C49.1657 150.45 49.181 150.466 49.2002 150.479V148.384C49.1848 148.363 49.1695 148.342 49.1504 148.326Z" fill="#0A2617"/>
<path d="M49.2002 148.384V150.479C49.3725 150.625 49.56 150.755 49.7591 150.859V148.911C49.5562 148.756 49.3648 148.581 49.2002 148.384Z" fill="#092415"/>
<path d="M100.623 159.205C99.9838 159.485 99.2871 159.657 98.556 159.686H97.9971V161.509C97.9971 161.584 97.9971 161.659 97.9971 161.739C99.0766 161.179 99.9838 160.296 100.623 159.205Z" fill="#175633"/>
<path d="M97.9968 159.686H97.859C97.7136 160.543 97.4571 161.358 97.1011 162.115C97.4073 162.015 97.7097 161.894 97.993 161.739C97.993 161.664 97.993 161.588 97.993 161.509V159.686" fill="#155030"/>
<path d="M101.435 157.114C100.593 157.608 99.6317 157.888 98.6096 157.905H97.9971V158.068V159.682H98.556C99.2871 159.652 99.98 159.481 100.623 159.201C100.994 158.57 101.266 157.867 101.435 157.114Z" fill="#155030"/>
<path d="M97.9972 158.072C97.9934 158.624 97.9436 159.163 97.8594 159.686H97.9972V158.072Z" fill="#144B2D"/>
<path d="M101.599 155.689C101.573 155.693 101.546 155.693 101.519 155.701C100.562 156.621 99.3446 157.232 97.9971 157.378V157.905H98.6057C99.6278 157.888 100.589 157.599 101.431 157.114C101.53 156.659 101.588 156.182 101.599 155.689Z" fill="#144B2D"/>
<path d="M101.607 155.622C101.58 155.651 101.554 155.676 101.523 155.705C101.55 155.701 101.577 155.701 101.603 155.693C101.607 155.668 101.607 155.643 101.607 155.622Z" fill="#13492B"/>
<path d="M97.8555 159.686H96.7492C96.1367 160.76 95.3213 161.68 94.3643 162.391H95.5089C96.0601 162.374 96.5922 162.274 97.1052 162.111C97.4535 161.354 97.7138 160.539 97.8555 159.686Z" fill="#12462A"/>
<path d="M96.7489 159.686H94.7353C93.3611 160.84 91.6422 161.538 89.7741 161.563H50.8501C51.3745 162.061 52.0521 162.366 52.7986 162.395H52.8024H94.3602C95.321 161.685 96.1326 160.756 96.7489 159.686Z" fill="#113E25"/>
<path d="M97.9969 157.909H97.5299C97.327 158.536 97.0628 159.134 96.7451 159.686H97.8514C97.9433 159.163 97.9892 158.624 97.9892 158.072V157.909" fill="#114227"/>
<path d="M97.5299 157.909H96.3432C95.8877 158.578 95.3441 159.18 94.7393 159.686H96.7528C97.0667 159.126 97.3309 158.536 97.5299 157.909Z" fill="#103B23"/>
<path d="M97.9969 157.378C97.8897 157.39 97.7863 157.395 97.6792 157.403C97.6371 157.574 97.5873 157.742 97.5337 157.909H97.9969V157.378Z" fill="#113E25"/>
<path d="M97.6792 157.403C97.6294 157.403 97.5835 157.407 97.5337 157.407H96.6571C96.5537 157.579 96.4465 157.742 96.3394 157.905H97.5261C97.5835 157.742 97.6294 157.574 97.6792 157.403Z" fill="#0F3821"/>
<path d="M54.8504 159.456H49.7935C49.9045 160.288 50.2911 161.032 50.85 161.563H89.7779C91.646 161.538 93.3648 160.84 94.7391 159.686H55.8533C55.4973 159.665 55.1604 159.586 54.8504 159.456Z" fill="#0E3821"/>
<path d="M96.3432 157.909H94.4253C93.1161 158.887 91.5275 159.456 89.824 159.456C89.8086 159.456 89.7933 159.456 89.7742 159.456H54.8467C55.1568 159.59 55.4975 159.665 55.8496 159.686H94.7316C95.3441 159.176 95.8877 158.578 96.3432 157.909Z" fill="#0E3520"/>
<path d="M96.6609 157.407H95.034C94.8387 157.583 94.6358 157.746 94.4253 157.905H96.3432C96.4542 157.742 96.5614 157.579 96.6609 157.407Z" fill="#0D331E"/>
<path d="M51.8762 154.798H50.2187C50.0694 154.823 49.9124 154.831 49.7631 154.84V158.845C49.7593 159.05 49.767 159.255 49.7938 159.456H54.8507C53.7405 158.988 52.9328 157.859 52.8218 156.525C52.3624 156.065 52.0294 155.475 51.8762 154.798Z" fill="#0D301D"/>
<path d="M52.8179 156.517C52.9289 157.855 53.7366 158.979 54.8468 159.448H89.7743C89.7896 159.448 89.8049 159.448 89.824 159.448C91.5314 159.448 93.1162 158.879 94.4254 157.901H55.9493H55.8957C55.2946 157.875 54.7357 157.671 54.2725 157.328C53.7213 157.202 53.2236 156.918 52.8179 156.517Z" fill="#0C2E1C"/>
<path d="M54.269 157.332C54.7361 157.671 55.2911 157.884 55.8922 157.905H55.9457H94.4219C94.6324 157.746 94.8353 157.583 95.0306 157.407H54.8777C54.671 157.403 54.4681 157.378 54.269 157.332Z" fill="#0C2D1B"/>
<path d="M101.519 155.701C101.343 155.726 101.171 155.735 100.987 155.735H97.9971V157.369C99.3446 157.232 100.562 156.629 101.519 155.701Z" fill="#13462A"/>
<path d="M101.607 97.837H99.8267V97.8412H101.607V97.837Z" fill="#18794C"/>
<path d="M99.8269 97.8412V144.257C99.8422 145.524 99.5474 146.716 99.0115 147.74V147.803V147.807C99.0421 149.245 98.667 150.588 97.9971 151.7V152.457V155.73H100.987C101.163 155.726 101.343 155.714 101.519 155.697C101.546 155.668 101.573 155.643 101.603 155.613C101.603 155.559 101.603 155.501 101.603 155.45V97.8412H99.8269Z" fill="#124429"/>
<path d="M99.8267 55.2928V97.837H101.603V60.2351C101.649 58.3159 100.967 56.5681 99.8267 55.2928Z" fill="#0C5C30"/>
<path d="M97.997 155.743H97.9664C97.9166 156.312 97.8209 156.868 97.6831 157.403C97.7903 157.399 97.8975 157.39 98.0008 157.378V155.743" fill="#103B23"/>
<path d="M97.9969 154.961C97.9969 155.225 97.9854 155.484 97.9663 155.743H97.9969V154.961Z" fill="#103A23"/>
<path d="M97.9628 155.743H97.4421C97.2316 156.328 96.9751 156.889 96.665 157.407H97.5417C97.5914 157.407 97.6374 157.403 97.6871 157.403C97.8211 156.868 97.9168 156.312 97.9628 155.743Z" fill="#0E3520"/>
<path d="M97.9969 152.465C97.9969 153.619 97.7978 154.723 97.438 155.739H97.9586C97.9816 155.48 97.9892 155.225 97.9892 154.957V152.465" fill="#0E341F"/>
<path d="M97.442 155.743H96.4581C96.0485 156.366 95.5662 156.922 95.0303 157.407H96.6572C96.9711 156.889 97.2353 156.328 97.442 155.743Z" fill="#0D311D"/>
<path d="M97.997 151.712C97.9702 151.758 97.9396 151.813 97.9051 151.859C97.706 153.297 97.2007 154.614 96.4619 155.743H97.4457C97.8056 154.727 98.0046 153.619 98.0046 152.469V151.712" fill="#0D301D"/>
<path d="M52.8028 154.798H51.8726C52.0219 155.471 52.3626 156.065 52.8181 156.521C52.8066 156.416 52.8028 156.303 52.8028 156.19V154.798Z" fill="#0C2E1C"/>
<path d="M52.9099 154.798H52.8027V156.195C52.8027 156.307 52.8066 156.412 52.818 156.525C53.22 156.922 53.7215 157.211 54.2727 157.34C53.5071 156.772 52.9903 155.848 52.9099 154.798Z" fill="#0C2D1B"/>
<path d="M56.2133 154.798H52.9097C52.9862 155.848 53.5069 156.776 54.2686 157.332C54.4677 157.378 54.6668 157.403 54.8773 157.407H95.0263C95.5623 156.922 96.0484 156.362 96.4542 155.743H58.2805H58.2767C57.4766 155.714 56.7569 155.354 56.2133 154.798Z" fill="#0B2B1A"/>
<path d="M97.9051 151.859C96.8103 153.59 94.9958 154.744 92.9171 154.798H89.8202H56.2134C56.7493 155.363 57.4766 155.714 58.2805 155.743H58.2844H96.4581C97.2008 154.618 97.7137 153.293 97.9051 151.859Z" fill="#0B2B1A"/>
<path d="M50.2148 154.798H49.7593V154.84C49.9086 154.836 50.0579 154.823 50.2148 154.798Z" fill="#0C2D1B"/>
<path d="M51.815 154.464H49.7593V154.798H50.2148H51.8724C51.8532 154.689 51.8303 154.576 51.815 154.464Z" fill="#0A2818"/>
<path d="M49.7593 150.859V154.472H51.815C51.792 154.292 51.7767 154.108 51.7843 153.92V151.206H51.0264C50.5747 151.181 50.1459 151.056 49.7593 150.859Z" fill="#0A2516"/>
<path d="M99.0115 147.744C98.7321 148.279 98.3875 148.765 97.9971 149.199V151.708C98.667 150.592 99.046 149.245 99.0115 147.815V147.811V147.744Z" fill="#103D24"/>
<path d="M97.9971 150.583C97.9971 151.018 97.9665 151.445 97.9053 151.863C97.9359 151.817 97.9627 151.762 97.9971 151.716V150.583Z" fill="#0C2C1B"/>
<path d="M97.9972 149.199C97.6948 149.53 97.3694 149.822 97.0134 150.073C95.6314 152.866 92.9326 154.773 89.8242 154.794H92.9211C94.9998 154.74 96.8143 153.586 97.9092 151.854C97.9666 151.436 97.9934 151.01 98.001 150.575V149.195" fill="#0A2818"/>
<path d="M52.8026 154.464H51.8149C51.8303 154.576 51.8456 154.685 51.8724 154.798H52.8026V154.464Z" fill="#0A2718"/>
<path d="M52.8984 154.464H52.8027V154.798H52.9099C52.9061 154.689 52.8984 154.576 52.8984 154.464Z" fill="#0A2617"/>
<path d="M55.9341 154.464H52.8984C52.8984 154.576 52.8984 154.685 52.9099 154.798H56.2136C56.1179 154.694 56.0183 154.581 55.9341 154.464Z" fill="#0A2616"/>
<path d="M97.0133 150.077C96.9215 150.14 96.8296 150.207 96.7339 150.266C95.2792 152.787 92.7067 154.464 89.7744 154.464H55.9341C56.0183 154.581 56.1178 154.694 56.2135 154.798H89.8204C92.9326 154.777 95.6352 152.87 97.0133 150.077Z" fill="#0A2516"/>
<path d="M52.8029 151.198H51.7808V153.912C51.7808 154.1 51.7922 154.28 51.8114 154.464H52.799V151.198" fill="#0A2416"/>
<path d="M52.8984 151.198H52.8027V154.464H52.8984C52.8984 154.447 52.8984 154.43 52.8984 154.409V151.198Z" fill="#092415"/>
<path d="M55.237 151.198H52.9019V154.413C52.9019 154.43 52.9019 154.447 52.9019 154.468H55.9375C55.482 153.845 55.2179 153.054 55.2408 152.197L55.237 151.198Z" fill="#092315"/>
<path d="M96.7337 150.266C95.8532 150.83 94.8273 151.169 93.7325 151.198H55.2372V152.193C55.2104 153.05 55.4784 153.849 55.9339 154.464H89.7742C92.7065 154.464 95.279 152.787 96.7337 150.266Z" fill="#092315"/>
<path d="M99.8271 97.837H99.0117V97.8412H99.8271V97.837Z" fill="#14653F"/>
<path d="M99.0117 97.8412V147.748C99.5477 146.724 99.8424 145.532 99.8271 144.266V97.8454L99.0117 97.8412Z" fill="#0F3922"/>
<path d="M99 54.5151C99.0153 54.7576 99.023 54.996 99.0115 55.2427V97.837H99.8269V55.2928C99.5742 55.0085 99.2948 54.7493 99 54.5151Z" fill="#0A4D28"/>
<path d="M49.7593 148.902V150.851C50.1459 151.056 50.5747 151.173 51.0302 151.19H51.7882V149.396L51.4322 149.471H51.3786C50.7737 149.454 50.2186 149.245 49.7593 148.902Z" fill="#092315"/>
<path d="M99.0115 97.837H97.9971V97.8412H99.0115V97.837Z" fill="#135C39"/>
<path d="M97.9971 97.8412V149.204C98.3952 148.769 98.7321 148.284 99.0115 147.748V97.8412H97.9971Z" fill="#0E341F"/>
<path d="M97.9971 53.8754C97.9971 53.9465 97.9971 54.0176 97.9971 54.0803V56.1877V58.1821V97.837H99.0115V55.2427C99.0153 54.996 99.0153 54.7577 99 54.5152C98.6823 54.2685 98.3493 54.0552 97.9971 53.8754Z" fill="#094624"/>
<path d="M97.7939 53.7751V54.3312C97.9164 54.9291 97.9853 55.5521 97.9968 56.1835V54.0761C97.9968 54.0051 97.9968 53.934 97.9968 53.8713C97.9279 53.8378 97.8552 53.8044 97.7939 53.7751Z" fill="#07361D"/>
<path d="M97.7939 54.3312V56.3842C97.9164 56.9654 97.9853 57.5633 97.9968 58.1779V56.1835C97.9853 55.5521 97.9164 54.9291 97.7939 54.3312Z" fill="#07331B"/>
<path d="M97.997 145.813C97.997 147.355 97.641 148.802 97.0132 150.077C97.3692 149.818 97.6946 149.526 97.997 149.204V145.813Z" fill="#0A2516"/>
<path d="M97.9972 145.486C97.9972 147.247 97.534 148.882 96.7339 150.274C96.8296 150.215 96.9215 150.153 97.0133 150.086C97.6411 148.819 97.9972 147.364 97.9972 145.821V145.486Z" fill="#092315"/>
<path d="M97.7939 56.3842V58.826C97.9164 59.4239 97.9853 60.0469 97.9968 60.6783V63.785V97.8328V58.1779C97.9853 57.5633 97.9088 56.9653 97.7939 56.3842Z" fill="#063119"/>
<path d="M97.7939 58.826V61.9326C97.9164 62.5306 97.9853 63.1536 97.9968 63.7849V60.6783C97.9853 60.0385 97.9164 59.4239 97.7939 58.826Z" fill="#062F19"/>
<path d="M52.8025 149.187L51.7842 149.404V151.198H52.8025V149.187Z" fill="#092315"/>
<path d="M52.8984 149.17L52.8027 149.187V151.198H52.8984V149.17Z" fill="#092214"/>
<path d="M97.7939 61.9327V65.3153C97.9241 65.9299 97.993 66.5655 97.9968 67.222V97.8328V63.785C97.9853 63.1494 97.9164 62.5306 97.7939 61.9327Z" fill="#062E18"/>
<path d="M55.2374 148.681L52.8984 149.17V151.198H55.2374V148.681Z" fill="#092214"/>
<path d="M97.9968 97.837H97.7939L97.9968 97.8412V97.837Z" fill="#0C3B25"/>
<path d="M97.7943 97.837V135.217C97.7943 139.043 88.7562 142.371 85.3568 142.371L55.2412 148.677V151.194H93.7365C94.8313 151.165 95.8534 150.83 96.7377 150.261C97.5378 148.877 98.001 147.234 98.001 145.474V97.8286L97.7943 97.837Z" fill="#092214"/>
<path d="M97.7939 65.3195V97.837H97.9968V67.2261C97.9892 66.5655 97.9203 65.9257 97.7939 65.3195Z" fill="#062D18"/>
<path d="M91.7037 38.7142H91.6502H48.9976V43.0878V40.4829H56.6767C57.1437 40.1526 57.6988 39.9477 58.2883 39.931H95.1222C94.1461 39.1993 92.9747 38.7477 91.7037 38.7142Z" fill="#1F975F"/>
<path d="M95.1184 39.9393H58.2845C57.6873 39.9644 57.1361 40.1609 56.6729 40.4913H91.6463H91.6999C93.2082 40.5331 94.5824 41.1561 95.6428 42.1554H96.975C96.5156 41.2773 95.8802 40.5205 95.1184 39.9393Z" fill="#1E925B"/>
<path d="M96.9748 42.1554H95.6426C96.4388 42.9122 97.059 43.8864 97.4265 44.9819H97.7748C97.7021 43.9617 97.415 43.0042 96.9748 42.1554Z" fill="#1C8855"/>
<path d="M97.7712 44.9903H97.4229C97.6449 45.6634 97.7712 46.3784 97.7942 47.1311V45.3582C97.7865 45.2286 97.7827 45.1073 97.7712 44.9903Z" fill="#1A8050"/>
<path d="M48.9896 130.066H48.3848V142.48V131.726H48.9896V130.066Z" fill="#BEBEBE"/>
<path d="M48.3849 144.592V145.98C48.3619 146.778 48.5878 147.519 48.9936 148.108V146.507C48.6261 145.967 48.404 145.302 48.3849 144.592Z" fill="#B9B9B9"/>
<path d="M48.9897 146.498V148.104L48.9936 148.108V146.507C48.9974 146.507 48.9974 146.507 48.9897 146.498Z" fill="#18774A"/>
<path d="M48.9976 146.511V148.116C49.0282 148.162 49.0626 148.208 49.0933 148.25V146.645C49.0588 146.599 49.0282 146.557 48.9976 146.511Z" fill="#114328"/>
<path d="M49.0933 146.645V148.25C49.1086 148.275 49.1315 148.296 49.1469 148.321V146.716C49.1315 146.695 49.1124 146.67 49.0933 146.645Z" fill="#103C24"/>
<path d="M49.1504 146.716V148.321C49.1657 148.338 49.181 148.363 49.2002 148.38V146.774C49.1848 146.753 49.1695 146.732 49.1504 146.716Z" fill="#0A2516"/>
<path d="M49.2002 146.774V148.38C49.3648 148.581 49.5562 148.756 49.7591 148.902V147.297C49.5562 147.151 49.3648 146.975 49.2002 146.774Z" fill="#092315"/>
<path d="M49.7593 147.297V148.903C50.2225 149.241 50.7814 149.446 51.3747 149.471H51.4283L51.7843 149.396V147.79L51.4283 147.866H51.3747C50.7737 147.845 50.2186 147.636 49.7593 147.297Z" fill="#092214"/>
<path d="M52.8025 147.577L51.7842 147.794V149.404L52.8025 149.187V147.577Z" fill="#092214"/>
<path d="M52.8984 147.556L52.8027 147.577V149.187L52.8984 149.17V147.556Z" fill="#092214"/>
<path d="M55.2374 147.063L52.8984 147.556V149.17L55.2374 148.681V147.063Z" fill="#092114"/>
<path d="M97.7943 97.837V133.557C97.7943 137.383 88.7562 140.711 85.3568 140.711L55.2412 147.063V148.677L85.3568 142.371C88.7562 142.371 97.7943 139.047 97.7943 135.217V97.837Z" fill="#092114"/>
<path d="M56.6767 40.4913H48.9976V43.0962C49.5335 42.561 50.2493 42.2265 51.0341 42.2181H55.4249C55.6584 41.499 56.0987 40.8927 56.6767 40.4913Z" fill="#1C8855"/>
<path d="M91.7036 40.4913H91.65H56.6766C56.1024 40.8969 55.6621 41.499 55.4248 42.2098H55.4899C55.6392 42.1805 55.7961 42.1638 55.9531 42.1554H95.6427C94.5824 41.1519 93.2119 40.5289 91.7036 40.4913Z" fill="#1B8453"/>
<path d="M95.6387 42.1554H55.949C55.7921 42.1596 55.639 42.1805 55.4858 42.2098H82.1064C85.0808 42.2265 88.017 43.0502 90.6392 44.5972C90.7234 44.7185 90.8804 44.8481 91.0833 44.9903H97.4188C97.0551 43.8864 96.4388 42.9122 95.6387 42.1554Z" fill="#197C4E"/>
<path d="M97.4229 44.9903H91.0874C91.2482 45.0948 91.4358 45.2119 91.6578 45.3289C92.1899 45.4627 92.699 45.6593 93.189 45.8976C93.725 46.1694 94.2303 46.4955 94.6973 46.876C95.6199 47.361 96.5769 47.9129 97.4038 48.5318H97.5416C97.6258 48.5318 97.7062 48.536 97.7942 48.5443V47.1311C97.7713 46.3784 97.6488 45.6593 97.4229 44.9903Z" fill="#187549"/>
<path d="M93.1851 45.8976C93.721 46.1694 94.2263 46.4955 94.6933 46.876C94.6933 46.876 94.6933 46.876 94.6972 46.876C94.2263 46.4955 93.721 46.1694 93.1851 45.8976Z" fill="#14623D"/>
<path d="M91.6538 45.3289C92.4309 45.7638 93.5372 46.2739 94.6933 46.876C94.2263 46.4955 93.721 46.1652 93.185 45.8976C92.695 45.6593 92.1859 45.4627 91.6538 45.3289Z" fill="#115535"/>
<path d="M97.5416 48.5318H97.4038C97.5378 48.6321 97.668 48.7325 97.7904 48.837V48.5443C97.7062 48.536 97.6258 48.536 97.5416 48.5318Z" fill="#166F45"/>
<path d="M48.3848 142.48V144.592C48.4077 145.302 48.6259 145.963 48.9934 146.498V144.441C48.6183 143.893 48.3962 143.216 48.3848 142.48Z" fill="#AFAFAF"/>
<path d="M48.9897 144.441V146.498L48.9974 146.507V144.449C48.9974 144.445 48.9974 144.445 48.9897 144.441Z" fill="#177046"/>
<path d="M48.9976 144.454V146.511C49.0282 146.557 49.0626 146.603 49.0933 146.645V144.587C49.0588 144.541 49.0282 144.5 48.9976 144.454Z" fill="#103F26"/>
<path d="M48.9895 131.726H48.3809V142.484C48.3923 143.216 48.6182 143.893 48.9895 144.445V131.726Z" fill="#AEAEAE"/>
<path d="M55.4249 42.2097H51.0341C50.2493 42.2223 49.5373 42.5568 48.9976 43.0878V131.726V144.441L49.0014 144.445V97.7743V48.9123H49.0971V48.5234C49.1124 48.5192 49.1354 48.5109 49.1507 48.5067V45.0864H52.9367C53.1281 43.6565 54.1272 42.5066 55.4173 42.2181C55.4173 42.2181 55.4249 42.2139 55.4249 42.2097Z" fill="#176F46"/>
<path d="M48.9976 97.7827V144.454C49.0282 144.5 49.0626 144.546 49.0933 144.587V97.837H48.9976V97.7827Z" fill="#103F26"/>
<path d="M49.0933 48.9165H48.9976V97.7826V97.837H49.0933V48.9165Z" fill="#0B552C"/>
<path d="M55.4898 42.2097H55.4247C55.4247 42.2139 55.4209 42.2223 55.4209 42.2223C55.44 42.2181 55.4668 42.2139 55.4898 42.2097Z" fill="#166D44"/>
<path d="M55.4171 42.2265C54.1232 42.515 53.1241 43.6648 52.9365 45.0948H55.1645C55.1913 45.0906 55.2142 45.0823 55.241 45.0781V43.4348C55.2296 43.0042 55.2946 42.6028 55.4171 42.2265Z" fill="#156942"/>
<path d="M82.1029 42.2097H55.4823C55.4593 42.2139 55.4402 42.2223 55.4134 42.2223C55.2909 42.5986 55.2258 43.0084 55.2297 43.4307V45.0739C55.4287 45.0195 55.6316 44.9903 55.8421 44.9861H91.0759C90.873 44.8439 90.7161 44.7143 90.6318 44.5931C88.0134 43.046 85.0811 42.2265 82.1029 42.2097Z" fill="#156640"/>
<path d="M55.2372 45.0697C55.2104 45.0739 55.1874 45.0823 55.1606 45.0865H55.2372V45.0697Z" fill="#14643F"/>
<path d="M91.0875 44.9903H55.8537C55.6432 44.9944 55.4403 45.0237 55.2412 45.0781V45.0948H89.7706H89.8242C90.452 45.099 91.0645 45.1826 91.654 45.3289C91.4358 45.2077 91.2406 45.0948 91.0875 44.9903Z" fill="#14623D"/>
<path d="M89.8241 45.0948H89.7705C90.4213 45.0948 91.0491 45.1784 91.6539 45.329C91.0644 45.1743 90.4519 45.0948 89.8241 45.0948Z" fill="#115535"/>
<path d="M94.6934 46.876C95.2714 47.3527 95.7959 47.9088 96.2437 48.5318H97.4036C96.573 47.9172 95.6159 47.3652 94.6934 46.876Z" fill="#14623D"/>
<path d="M52.9364 45.0948H49.1504V48.5151V47.3109H49.2002V45.0948H52.9364Z" fill="#135E3B"/>
<path d="M94.6895 46.876C95.2675 47.3527 95.7958 47.9088 96.2398 48.5318C95.7958 47.9088 95.2752 47.3527 94.6895 46.876C94.6933 46.876 94.6933 46.876 94.6895 46.876Z" fill="#115535"/>
<path d="M52.9364 45.0948H49.2002V47.3109H52.9058V45.5966C52.8981 45.4293 52.9173 45.2579 52.9364 45.0948Z" fill="#115233"/>
<path d="M55.1643 45.0948H52.9364C52.9134 45.2579 52.9058 45.4293 52.9058 45.6007V47.3151H52.9747C53.3115 46.2279 54.1346 45.3833 55.1643 45.0948Z" fill="#104F32"/>
<path d="M55.2374 45.0948H55.1609C54.1311 45.3833 53.3081 46.2321 52.9712 47.3109H55.2374V45.0948Z" fill="#104D30"/>
<path d="M89.7706 45.0948H55.2412V47.3109H89.7706C91.1028 47.3151 92.366 47.6746 93.4762 48.2893C93.859 48.3311 94.2265 48.4105 94.5863 48.5318H96.2439C95.7998 47.9088 95.2716 47.3527 94.6935 46.876C93.5451 46.2739 92.4311 45.7596 91.654 45.329C91.0492 45.1743 90.4214 45.0948 89.7706 45.0948Z" fill="#0F4C2F"/>
<path d="M49.2002 47.3109H49.1504V48.5151C49.1657 48.5109 49.181 48.5025 49.2002 48.4983V47.3109Z" fill="#115233"/>
<path d="M52.8985 47.3109H49.1929V48.4941C49.3422 48.4482 49.4953 48.4231 49.6484 48.4231C49.836 48.4231 50.0236 48.4565 50.2073 48.5234H52.7951C52.7836 48.1889 52.8219 47.867 52.8908 47.5576V47.3109" fill="#0F4A2E"/>
<path d="M52.9708 47.3109H52.9019V47.5617C52.921 47.4823 52.9478 47.3945 52.9708 47.3109Z" fill="#0E472C"/>
<path d="M52.8983 47.5617C52.8218 47.8711 52.7911 48.1931 52.8026 48.5276H52.8983V47.5617Z" fill="#0E472C"/>
<path d="M55.237 47.3109H52.9708C52.944 47.3945 52.921 47.4823 52.9019 47.5617V48.5276H55.237V47.3109Z" fill="#0E462C"/>
<path d="M89.7706 47.3109H55.2412V48.5318H92.8216L92.9288 48.2558H93.0321C93.1814 48.26 93.3346 48.2725 93.4762 48.2893C92.3584 47.6746 91.1028 47.3234 89.7706 47.3109Z" fill="#0E442B"/>
<path d="M97.3997 48.5318H96.2397C96.3316 48.6531 96.4158 48.7827 96.5039 48.9207H97.7863V48.837C97.6638 48.7367 97.5336 48.6321 97.3997 48.5318Z" fill="#135D3A"/>
<path d="M97.7941 48.9165H96.5117C96.7797 49.3346 97.017 49.7778 97.2199 50.2461C97.4305 50.4761 97.6219 50.7144 97.7941 50.9736V48.9165Z" fill="#094725"/>
<path d="M96.2476 48.5318C96.3394 48.6531 96.4237 48.7827 96.5117 48.9207C96.4237 48.791 96.3356 48.6614 96.2476 48.5318Z" fill="#105133"/>
<path d="M96.5078 48.9165C96.7758 49.3346 97.0131 49.7778 97.2122 50.2419C97.0131 49.782 96.7758 49.3346 96.5078 48.9165Z" fill="#083E20"/>
<path d="M96.2474 48.5318H94.5898C94.9076 48.6321 95.2138 48.766 95.5086 48.9207H96.5115C96.4235 48.791 96.3316 48.6614 96.2474 48.5318Z" fill="#0F492E"/>
<path d="M96.5039 48.9165H95.501C96.1403 49.251 96.7145 49.7025 97.2083 50.2419C97.0131 49.782 96.7719 49.3346 96.5039 48.9165Z" fill="#07371D"/>
<path d="M49.0933 144.587V146.645C49.1086 146.67 49.1315 146.691 49.1469 146.716V144.659C49.1315 144.633 49.1124 144.613 49.0933 144.587Z" fill="#0F3922"/>
<path d="M49.1508 48.5151C49.1354 48.5193 49.1125 48.5276 49.0972 48.5318V48.9207H49.1508V48.5151Z" fill="#14643E"/>
<path d="M49.1508 97.837H49.0972V144.587C49.1125 144.613 49.1354 144.633 49.1508 144.659V97.837Z" fill="#0F3822"/>
<path d="M49.1507 48.9165H49.0933V97.837H49.1507V58.2908V51.8057V48.9165Z" fill="#0A4C28"/>
<path d="M93.4761 48.2976C93.6101 48.3729 93.744 48.4565 93.878 48.5402H94.5862C94.2264 48.4189 93.8551 48.3395 93.4761 48.2976Z" fill="#0E472C"/>
<path d="M49.2002 48.4941C49.1848 48.4983 49.1695 48.5067 49.1504 48.5109V48.9165H49.2002V48.4941Z" fill="#0F4C30"/>
<path d="M49.2002 48.9165H49.1504V51.8057V49.4182H49.2002V48.9165Z" fill="#073A1E"/>
<path d="M49.6557 48.4314C49.4988 48.4314 49.3495 48.4565 49.2002 48.5025V48.9248H52.8101V48.5443V48.5401H50.2223C50.0309 48.4649 49.8433 48.4314 49.6557 48.4314Z" fill="#0E462C"/>
<path d="M52.8028 48.9165H49.1929V49.414H52.7913C52.7951 49.414 52.7951 49.4099 52.8028 49.4099V48.9165Z" fill="#07361C"/>
<path d="M52.8984 48.5318H52.8027V48.536V48.9165H52.8984V48.5318Z" fill="#0E442A"/>
<path d="M52.8984 48.9165H52.8027V49.4099C52.8334 49.3806 52.8678 49.3471 52.8984 49.3179V48.9165Z" fill="#07341B"/>
<path d="M55.237 48.5318H52.9019V48.9207H53.4454C53.8742 48.674 54.3642 48.5318 54.8848 48.5318H55.237Z" fill="#0D4229"/>
<path d="M53.4494 48.9165H52.9058V49.3137C53.0704 49.1632 53.2541 49.0294 53.4494 48.9165Z" fill="#06321A"/>
<path d="M93.0282 48.26H92.9249L92.8177 48.536H55.2373H93.8742C93.7402 48.4523 93.6063 48.3729 93.4723 48.2935C93.323 48.2809 93.1813 48.2684 93.0282 48.26Z" fill="#0D4229"/>
<path d="M49.2002 49.4182H49.1504V51.8057H49.2002V49.4182Z" fill="#07361C"/>
<path d="M49.2002 51.8057H49.1504V54.9124H49.2002V51.8057Z" fill="#07341B"/>
<path d="M49.1504 144.659V146.716C49.1657 146.732 49.181 146.758 49.2002 146.774V144.717C49.1848 144.7 49.1695 144.675 49.1504 144.659Z" fill="#0A2416"/>
<path d="M49.2002 54.9124H49.1504V58.2908H49.2002V54.9124Z" fill="#06311A"/>
<path d="M49.2002 97.837H49.1504V144.659C49.1657 144.675 49.181 144.7 49.2002 144.717V97.837Z" fill="#0A2416"/>
<path d="M49.2002 58.2908H49.1504V97.837H49.2002V58.2908Z" fill="#06311A"/>
<path d="M52.7986 49.4182H49.2002V51.8057H51.788C51.8148 50.8607 52.2014 50.0161 52.7986 49.4182Z" fill="#07321A"/>
<path d="M51.7846 51.8057H49.1968V54.9124H50.2265C50.5864 54.2726 51.13 53.7625 51.7846 53.4824V52.0273V51.9144C51.7846 51.881 51.7846 51.8391 51.7846 51.8057Z" fill="#063019"/>
<path d="M49.2002 144.717V146.774C49.3648 146.975 49.5562 147.151 49.7591 147.297V145.24C49.5562 145.093 49.3648 144.918 49.2002 144.717Z" fill="#092214"/>
<path d="M50.2265 54.9124H49.1968V58.295H49.7557V56.7396C49.7595 56.0664 49.9318 55.4476 50.2265 54.9124Z" fill="#062F19"/>
<path d="M49.7591 97.837H49.2002V144.717C49.3648 144.918 49.5562 145.093 49.7591 145.244V97.837Z" fill="#092214"/>
<path d="M49.7591 58.2908H49.2002V97.837H49.7591V58.2908Z" fill="#062E18"/>
<path d="M97.2124 50.2503C97.4612 50.8231 97.6565 51.4336 97.7866 52.0733V50.982C97.6144 50.7186 97.4229 50.4802 97.2124 50.2503Z" fill="#084122"/>
<path d="M97.2124 50.2419C97.4651 50.8147 97.6565 51.4336 97.7904 52.0649C97.6565 51.4336 97.4651 50.8231 97.2124 50.2419C97.2124 50.2503 97.2124 50.2503 97.2124 50.2419Z" fill="#073A1E"/>
<path d="M94.5861 48.5318H93.8779C94.0655 48.6531 94.2531 48.7827 94.4292 48.9207H95.4972C95.2101 48.766 94.9039 48.6363 94.5861 48.5318Z" fill="#0E462B"/>
<path d="M95.5051 48.9165H94.437C95.9453 50.0621 97.0937 51.7388 97.6411 53.704C97.6947 53.7291 97.7445 53.75 97.7904 53.7751V52.0733C97.6564 51.4336 97.4612 50.8231 97.2124 50.2503C96.7186 49.7025 96.1443 49.251 95.5051 48.9165Z" fill="#07351C"/>
<path d="M52.8025 49.4099C52.7987 49.4099 52.7987 49.414 52.791 49.414H52.8025V49.4099Z" fill="#07341B"/>
<path d="M52.8984 49.3179C52.8678 49.3471 52.8334 49.3764 52.8027 49.4099V49.414H52.8984V49.3179Z" fill="#06321A"/>
<path d="M55.2373 48.5318H54.8813C54.3606 48.5318 53.8706 48.674 53.4419 48.9207H55.2373V48.5318Z" fill="#0D4128"/>
<path d="M55.2374 48.9165H53.442C53.2506 49.0294 53.0669 49.1632 52.8984 49.3137V49.414H55.2336L55.2374 48.9165Z" fill="#06311A"/>
<path d="M93.8781 48.5318H55.2412V48.9207H94.437C94.2533 48.7827 94.0657 48.6531 93.8781 48.5318Z" fill="#0D4128"/>
<path d="M94.4293 48.9165H55.2373V49.414H89.7667C92.5956 49.414 95.1031 50.982 96.5884 53.3653C96.9482 53.4406 97.3042 53.5576 97.6372 53.6998C97.0898 51.7388 95.9452 50.0621 94.4293 48.9165Z" fill="#06311A"/>
<path d="M52.8029 49.4182H52.7914C52.1942 50.0119 51.8152 50.8607 51.7808 51.8057H52.8029V49.4182Z" fill="#06311A"/>
<path d="M52.8029 51.8057H51.7808C51.7808 51.8391 51.7808 51.881 51.7808 51.9186V52.0315V53.4866C52.0985 53.3528 52.443 53.2649 52.8029 53.244V51.8057Z" fill="#062F19"/>
<path d="M52.8984 49.4182H52.8027V51.8057H52.8984V49.4182Z" fill="#063119"/>
<path d="M52.8984 51.8057H52.8027V53.2482H52.8984V51.8057Z" fill="#062F19"/>
<path d="M55.2374 49.4182H52.8984V51.8057H55.2374V49.4182Z" fill="#062F19"/>
<path d="M89.7706 49.4182H55.2412V51.8057H89.7706C91.4014 51.8182 92.9288 52.3451 94.2074 53.2482H95.5127H95.5663C95.9147 53.2608 96.2592 53.3026 96.5923 53.3778C95.107 50.982 92.5996 49.4182 89.7706 49.4182Z" fill="#062F19"/>
<path d="M55.2374 51.8057H52.8984V53.2482H55.2374V51.8057Z" fill="#062E18"/>
<path d="M89.7706 51.8057H55.2412V53.2482H94.2074C92.9211 52.3451 91.4014 51.8141 89.7706 51.8057Z" fill="#062E18"/>
<path d="M51.7841 53.4824C51.1333 53.7625 50.5859 54.2685 50.2261 54.9124H51.7841V53.4824Z" fill="#062F19"/>
<path d="M49.7593 145.24V147.297C50.2225 147.636 50.7814 147.84 51.3747 147.866H51.4283L51.7843 147.79V145.737L51.4283 145.813C50.812 145.8 50.2378 145.591 49.7593 145.24Z" fill="#092214"/>
<path d="M51.7843 54.9124H50.2262C49.9238 55.4476 49.7554 56.0747 49.7554 56.7437V58.2992H51.7804V54.9165" fill="#062E18"/>
<path d="M51.7843 97.837H49.7593V145.24C50.2378 145.591 50.812 145.804 51.436 145.813L51.792 145.737V97.837" fill="#092214"/>
<path d="M51.7843 58.2908H49.7593V97.837H51.7843V58.2908Z" fill="#062E18"/>
<path d="M97.6372 53.7123C97.6946 53.9172 97.7444 54.1221 97.7865 54.3353V53.7792C97.7406 53.75 97.6908 53.7291 97.6372 53.7123Z" fill="#07331B"/>
<path d="M96.5884 53.3695C97.1473 54.2684 97.5607 55.2887 97.7904 56.38V54.327C97.7483 54.1137 97.6947 53.9089 97.6411 53.704C97.3042 53.5618 96.9482 53.4531 96.5884 53.3695Z" fill="#063019"/>
<path d="M52.8029 53.2482C52.443 53.265 52.0985 53.3486 51.7808 53.4907V54.9207H52.8029V53.2482Z" fill="#062F19"/>
<path d="M52.8984 53.2482H52.8027V54.9124H52.8984V53.2482Z" fill="#062E18"/>
<path d="M95.5626 53.2482H95.509H94.2036C95.9875 54.511 97.3005 56.4929 97.7905 58.826V56.3842C97.5609 55.2929 97.1474 54.2726 96.5885 53.3737C96.2555 53.2984 95.9148 53.2608 95.5626 53.2482Z" fill="#062F19"/>
<path d="M55.2374 53.2482H52.8984V54.9124H55.2374V53.2482Z" fill="#062E18"/>
<path d="M94.2074 53.2482H55.2412V54.9124H89.7706C93.6791 54.9374 96.9559 57.927 97.7943 61.9327V58.826C97.3043 56.4887 95.9874 54.5026 94.2074 53.2482Z" fill="#062D18"/>
<path d="M52.8025 145.524L51.7842 145.741V147.794L52.8025 147.577V145.524Z" fill="#092214"/>
<path d="M52.8984 145.507L52.8027 145.524V147.577L52.8984 147.556V145.507Z" fill="#092114"/>
<path d="M55.2374 145.014L52.8984 145.507V147.556L55.2374 147.063V145.014Z" fill="#092114"/>
<path d="M97.7943 97.837V131.559C97.7943 135.385 88.7562 138.713 85.3568 138.713L55.2412 145.018V147.067L85.3568 140.716C88.7562 140.716 97.7943 137.383 97.7943 133.562V97.837Z" fill="#092114"/>
<path d="M52.8025 54.9124H51.7842V58.2908H52.8025V54.9124Z" fill="#062E18"/>
<path d="M52.8025 97.837H51.7842V145.741L52.8025 145.524V97.837Z" fill="#092214"/>
<path d="M52.8025 58.2908H51.7842V97.837H52.8025V58.2908Z" fill="#062D18"/>
<path d="M52.8984 54.9124H52.8027V58.2908H52.8984V54.9124Z" fill="#062D18"/>
<path d="M52.8984 97.837H52.8027V145.524L52.8984 145.507V97.837Z" fill="#092114"/>
<path d="M52.8984 58.2908H52.8027V97.837H52.8984V58.2908Z" fill="#062D17"/>
<path d="M55.2374 54.9124H52.8984V58.2908H55.2374V54.9124Z" fill="#062D17"/>
<path d="M89.7706 54.9124H55.2412V58.295H89.7706C93.6867 58.3201 96.9559 61.3097 97.7943 65.3153V61.9327C96.9559 57.9228 93.6791 54.9374 89.7706 54.9124Z" fill="#062C17"/>
<path d="M55.2374 97.837H52.8984V145.507L55.2374 145.014V97.837Z" fill="#092114"/>
<path d="M55.2374 58.2908H52.8984V97.837H55.2374V58.2908Z" fill="#062C17"/>
<path d="M96.0793 97.837H55.2412V145.018L85.3568 138.713C88.7562 138.713 97.7943 135.38 97.7943 131.559V97.837H96.0793Z" fill="#092114"/>
<path d="M89.7706 58.2908H55.2412V97.8328H96.0793H97.7905V65.3153C96.9559 61.3138 93.6829 58.3201 89.7706 58.2908Z" fill="#062C17"/>
<path d="M8.17468 41.8752H89.824C94.4407 42.0216 98.0889 46.2028 97.997 51.2496V144.374C98.1693 149.417 94.5938 153.677 89.9733 153.916H8.17468C3.57331 153.824 -0.0901746 149.68 0.00169957 144.659V144.6V51.2538C-0.0901746 46.207 3.55417 42.0258 8.17468 41.8752Z" fill="#107C41"/>
<path d="M22.2314 132.729L41.4791 98.4516L23.8048 64.6129H38.0261L47.6232 86.2424C48.3046 87.7978 48.9171 89.3909 49.453 91.009C50.0617 89.4034 50.7737 87.7351 51.4819 86.2424L61.6416 64.7759H74.6954L56.7723 98.4349L75.3041 132.654H61.3966L50.2224 109.08C49.7133 108.056 49.2578 106.998 48.852 105.919C48.5151 106.986 48.0749 108.006 47.5313 108.967L36.1083 132.759L22.2314 132.729Z" fill="white"/>
</svg>
