<svg width="196" height="196" viewBox="0 0 196 196" fill="none" xmlns="http://www.w3.org/2000/svg">
<path d="M192.299 89.3024L106.731 3.69912C105.559 2.52639 104.168 1.5961 102.637 0.961394C101.106 0.326686 99.4645 0 97.8071 0C96.1497 0 94.5085 0.326686 92.9773 0.961394C91.4462 1.5961 90.055 2.52639 88.8833 3.69912L71.1216 21.468L93.6606 44.0162C98.9034 42.178 104.906 43.4341 109.083 47.6129C111.071 49.6056 112.459 52.1177 113.088 54.8621C113.718 57.6065 113.563 60.4726 112.641 63.1331L134.366 84.8663C139.621 83.0527 145.684 84.223 149.879 88.4324C151.274 89.828 152.38 91.4848 153.135 93.3081C153.89 95.1315 154.278 97.0856 154.278 99.0591C154.277 101.033 153.889 102.987 153.133 104.81C152.378 106.633 151.271 108.289 149.876 109.685C148.481 111.08 146.825 112.187 145.003 112.941C143.18 113.696 141.227 114.085 139.254 114.085C137.281 114.084 135.328 113.695 133.506 112.94C131.683 112.184 130.027 111.077 128.633 109.682C124.223 105.27 123.133 98.7751 125.362 93.3403L105.102 73.0714V126.409C106.572 127.137 107.917 128.097 109.083 129.252C110.477 130.647 111.584 132.303 112.338 134.126C113.093 135.949 113.482 137.903 113.482 139.876C113.482 141.85 113.093 143.803 112.338 145.626C111.584 147.449 110.477 149.106 109.083 150.501C107.688 151.896 106.032 153.003 104.21 153.758C102.388 154.513 100.435 154.902 98.4624 154.902C96.4901 154.902 94.537 154.513 92.7148 153.758C90.8925 153.003 89.2368 151.896 87.8421 150.501C86.4458 149.107 85.3381 147.451 84.5822 145.628C83.8264 143.804 83.4374 141.85 83.4374 139.876C83.4374 137.903 83.8264 135.948 84.5822 134.125C85.3381 132.302 86.4458 130.646 87.8421 129.252C89.2937 127.806 90.9045 126.709 92.7603 125.974V72.1401C90.9719 71.4048 89.2937 70.3203 87.8421 68.862C85.7332 66.7548 84.2994 64.0671 83.7234 61.1414C83.1475 58.2158 83.4555 55.1848 84.6083 52.435L62.3755 30.2054L3.70068 88.8429C2.52751 90.0151 1.59683 91.4072 0.961833 92.9396C0.326841 94.472 0 96.1145 0 97.7733C0 99.4321 0.326841 101.075 0.961833 102.607C1.59683 104.139 2.52751 105.531 3.70068 106.704L89.2753 192.301C90.447 193.474 91.8382 194.404 93.3693 195.039C94.9005 195.673 96.5416 196 98.1991 196C99.8565 196 101.498 195.673 103.029 195.039C104.56 194.404 105.951 193.474 107.123 192.301L192.299 107.225C193.472 106.052 194.403 104.66 195.038 103.128C195.673 101.595 196 99.9529 196 98.2941C196 96.6353 195.673 94.9928 195.038 93.4604C194.403 91.9281 193.472 90.536 192.299 89.3637" fill="#F03C2E"/>
</svg>
