<svg width="35" height="35" viewBox="0 0 35 35" fill="none" xmlns="http://www.w3.org/2000/svg">
<path fill-rule="evenodd" clip-rule="evenodd" d="M17.5 0C7.83412 0 0 8.03242 0 17.943C0 25.8693 5.01278 32.5956 11.9679 34.9703C12.8434 35.1322 13.1592 34.5799 13.1592 34.105C13.1592 33.6786 13.1452 32.5488 13.1399 31.0539C8.27101 32.1369 7.24283 28.6469 7.24283 28.6469C6.44977 26.5745 5.30053 26.0222 5.30053 26.0222C3.71265 24.9086 5.4216 24.9338 5.4216 24.9338C7.17967 25.0597 8.10081 26.7831 8.10081 26.7831C9.66237 29.5248 12.1995 28.7332 13.1926 28.2745C13.3522 27.1141 13.8084 26.3226 14.3067 25.8747C10.4221 25.4231 6.33748 23.8832 6.33748 17.0057C6.33748 15.0502 7.02 13.4455 8.13415 12.1935C7.95694 11.7383 7.35161 9.91235 8.30785 7.44416C8.30785 7.44416 9.77642 6.96023 13.1189 9.28091C14.5464 8.88274 16.0189 8.67951 17.4982 8.67646C18.9777 8.67892 20.4502 8.88217 21.8776 9.28091C25.2218 6.95843 26.6886 7.44416 26.6886 7.44416C27.6449 9.91235 27.0448 11.7383 26.8623 12.1935C27.9853 13.4455 28.659 15.0484 28.659 17.0057C28.659 23.9012 24.5709 25.4159 20.6722 25.8603C21.2951 26.4143 21.8566 27.5081 21.8566 29.1812C21.8566 31.581 21.8355 33.5167 21.8355 34.105C21.8355 34.5853 22.1478 35.143 23.0409 34.9667C29.9925 32.5884 35 25.8675 35 17.943C35 8.03242 27.1659 0 17.5 0Z" fill="url(#paint0_linear_6_345)"/>
<defs>
<linearGradient id="paint0_linear_6_345" x1="17.5" y1="0" x2="17.5" y2="35" gradientUnits="userSpaceOnUse">
<stop stop-color="#928BE8"/>
<stop offset="1" stop-color="#80D9EA"/>
</linearGradient>
</defs>
</svg>
