<svg width="196" height="196" viewBox="0 0 196 196" fill="none" xmlns="http://www.w3.org/2000/svg">
<path d="M0 52.4519V183.577C0 190.478 5.05752 196 11.3808 196H184.619C190.941 196 196 190.479 196 183.577V52.4519H0ZM147.947 124.226C147.315 126.296 145.418 127.676 143.521 127.676H134.669C134.037 127.676 132.773 128.366 132.773 129.746V155.971C132.773 162.872 127.715 168.394 121.392 168.394H73.9731C67.6514 168.394 62.5923 162.874 62.5923 155.971V129.746C62.5923 129.056 61.9601 127.676 60.6957 127.676L52.4773 127.678C50.5808 127.678 48.6843 126.298 48.0519 124.228C47.4197 122.157 48.0519 120.087 49.3162 118.707L90.4141 76.6093C94.8396 72.469 101.795 72.469 105.588 76.6093L122.658 94.5524V82.8197C122.658 80.0595 124.555 77.2992 127.716 77.2992C130.245 77.2992 132.773 79.3694 132.773 82.8197V104.213L147.315 118.705C148.581 120.085 149.213 122.156 147.949 124.226L147.947 124.226Z" fill="url(#paint0_linear_139_399)"/>
<path d="M184.619 0H11.3808C5.05913 0 0 5.52048 0 12.4226V42.0979H196V12.4226C196 5.52048 190.942 0 184.619 0ZM84.7257 26.2251H18.3402C15.81 26.2251 13.9136 24.1549 13.9136 20.7029C13.9136 17.2526 15.8102 15.8723 18.3402 15.8723H84.7257C87.2544 15.8723 89.7832 17.9425 89.7832 21.3928C89.7832 24.8448 87.8867 26.2251 84.7257 26.2251ZM149.846 26.2251H137.201C134.672 26.2251 132.144 24.1549 132.144 20.7046C132.144 17.2544 134.04 15.1842 137.201 15.1842H149.846C152.375 15.1842 154.904 17.2543 154.904 20.7046C154.904 24.1549 153.007 26.2251 149.846 26.2251ZM177.033 26.2251H164.388C161.859 26.2251 159.33 24.1549 159.33 20.7046C159.33 17.2544 161.227 15.1842 164.388 15.1842H177.033C179.562 15.1842 182.09 17.2543 182.09 20.7046C182.09 24.1549 179.562 26.2251 177.033 26.2251Z" fill="url(#paint1_linear_139_399)"/>
<defs>
<linearGradient id="paint0_linear_139_399" x1="98" y1="52.4519" x2="98" y2="196" gradientUnits="userSpaceOnUse">
<stop stop-color="#928BE8"/>
<stop offset="1" stop-color="#80D9EA"/>
</linearGradient>
<linearGradient id="paint1_linear_139_399" x1="98" y1="0" x2="98" y2="42.0979" gradientUnits="userSpaceOnUse">
<stop stop-color="#928BE8"/>
<stop offset="1" stop-color="#80D9EA"/>
</linearGradient>
</defs>
</svg>
