<svg width="100" height="196" viewBox="0 0 100 196" fill="none" xmlns="http://www.w3.org/2000/svg">
<g clip-path="url(#clip0_104_655)">
<path d="M77.0623 190.026L79.1822 158.711L85.0357 149.853C85.0357 149.853 71.7131 154.685 49.4088 154.685C27.1041 154.685 13.9834 149.942 13.9834 149.942L20.5436 159.605L22.8643 190.026C22.8643 193.288 34.9967 195.931 49.9635 195.931C64.9295 195.931 77.0623 193.288 77.0623 190.026Z" fill="#D34A47"/>
<path d="M70.3753 43.7897L74.8249 28.198L99.4659 5.21271L92.9714 0.308899L66.8839 24.794L61.7175 43.422C57.9741 43.3098 54.0675 43.2499 50.0483 43.2499C22.5733 43.2499 0.300293 46.0257 0.300293 49.4491C0.300293 52.8729 22.5733 55.6484 50.0483 55.6484C77.5229 55.6484 99.7956 52.8729 99.7956 49.4491C99.7956 46.9282 87.7159 44.7583 70.3753 43.7897Z" fill="#D34A47"/>
<path d="M67.787 52.5214C67.787 52.5214 66.8233 52.7129 63.9886 52.7237C61.153 52.7341 59.1398 52.7074 58.3378 52.0598C58.1222 51.886 58.0042 51.5407 58.0054 51.307C58.0077 50.862 58.364 50.5999 58.8179 50.4357L59.2472 51.0327C59.0605 51.0899 58.9538 51.1574 58.9534 51.2294C58.9519 51.5674 61.8526 51.7987 64.0714 51.7738C66.2905 51.7495 68.9718 51.5875 68.9741 51.2544C68.9741 51.1536 68.7714 51.0587 68.4187 50.9839L68.846 50.3911C69.421 50.5493 69.923 50.8551 69.9218 51.3842C69.9163 52.2839 68.6249 52.4207 67.787 52.5214Z" fill="white"/>
<path d="M99.4174 5.25806C100.037 4.62366 99.0967 3.00094 97.3174 1.63414C95.5373 0.268026 93.592 -0.325515 92.9713 0.308888C92.3514 0.943291 93.292 2.566 95.0721 3.93212C96.8514 5.29858 98.7975 5.89281 99.4174 5.25806Z" fill="#D34A47"/>
<path d="M75.8773 113.536C75.2933 108.555 88.1671 101.341 84.8632 101.11C77.7507 101.471 74.2108 108.499 70.6323 115.861C69.321 118.559 64.8339 130.063 61.8909 128.647C58.9487 127.231 65.7054 117.771 67.5991 112.153C65.414 113.573 57.4003 119.093 55.3351 113.924C52.0148 116.424 44.9198 117.778 45.7202 111.211C43.9538 113.985 39.9894 117.858 35.2308 116.248C28.9815 114.136 38.8519 96.4884 41.3062 97.3787C43.7608 98.2687 40.8108 102.289 40.0382 103.85C38.339 107.285 36.3761 111.604 37.6874 112.488C39.9339 114.003 46.0472 106.758 46.1831 106.599C47.3265 105.26 50.5839 96.4992 53.2093 97.5051C55.8347 98.5111 46.6608 110.078 50.0909 112.374C50.7827 112.837 53.6132 112.088 55.3351 110.437C56.4491 109.368 56.0659 107.002 59.7796 99.151C63.4933 91.3003 66.803 81.5232 69.3499 82.268C71.8968 83.0126 69.7976 88.0306 68.8839 89.9013C64.5964 98.6811 57.1823 113.186 60.6788 112.088C64.1753 110.99 65.996 110.926 69.4198 107.374C72.8437 103.822 72.6858 97.9716 74.9679 98.0959C77.2507 98.2206 76.8675 100.096 76.314 101.525C78.5601 99.2463 86.9608 94.4474 88.989 99.2002C91.3913 104.827 76.9698 112.955 80.5655 112.54C84.0714 112.136 89.7511 108.947 92.1761 106.048L98.8511 52.8486C98.8511 52.8486 92.1343 57.7763 49.4023 57.7763C6.66983 57.7763 0.647949 52.9511 0.647949 52.9511L6.33076 101.509C9.34717 93.9092 16.5101 78.5368 27.8007 79.0527C32.9366 79.2875 39.7929 88.0545 33.9198 88.3516C31.4339 88.477 31.1815 83.9756 28.2378 83.3145C26.1136 82.8373 23.1562 84.3683 21.2448 86.027C17.4331 89.3341 9.23506 102.382 10.3183 108.887C11.6983 117.18 23.2276 106.005 25.1784 102.687C26.5522 100.35 27.4804 93.4258 30.4851 94.1523C33.4901 94.8789 30.223 102.025 28.0448 108.343C25.598 115.437 24.3116 122.921 21.2448 122.06C18.1776 121.2 23.1737 112.041 22.9929 110.437C20.1101 112.795 14.7991 118.764 8.00459 115.809L11.5339 145.964C11.5339 145.964 20.914 152.534 49.1706 152.534C77.4273 152.534 87.1546 146.066 87.1546 146.066L91.537 111.14C87.9515 114.235 76.6038 119.732 75.8773 113.536Z" fill="#D34A47"/>
</g>
<defs>
<clipPath id="clip0_104_655">
<rect width="100" height="196" fill="white"/>
</clipPath>
</defs>
</svg>
