<svg width="196" height="196" viewBox="0 0 196 196" fill="none" xmlns="http://www.w3.org/2000/svg">
<path d="M18.1934 176.225L0 0L196 0.0672605L177.959 176.091L97.8471 196L18.1934 176.225ZM163.206 166.607L178.418 15.6719H98.1529L98.7644 182.144L163.206 166.607ZM90.6615 37.801H71.1685L70.9392 128.133L33.0998 119.053L33.1763 139.702L90.6615 153.356V37.801Z" fill="#D4B830"/>
<path opacity="0.986" d="M33.1761 139.702L33.0996 119.053C33.0996 119.053 57.2556 125.039 70.9389 128.133L71.1683 37.8682H90.6612V153.356L33.1761 139.702Z" fill="#EBEBEB" fill-opacity="0.9216"/>
<path d="M98.1528 15.6045H178.418L163.206 166.539L98.1528 182.077V15.6045ZM159.078 141.249L164.353 84.8166L125.367 88.6505V58.5173L166.952 58.3828L168.633 37.8008L105.874 38.0698L106.714 112.999L144.63 107.282L144.095 123.963L105.874 132.909L106.256 153.356L159.078 141.249Z" fill="#FDD83C"/>
</svg>
