<svg width="107" height="107" viewBox="0 0 107 107" fill="none" xmlns="http://www.w3.org/2000/svg">
<path d="M50.6911 96.8339C51.4439 97.3667 52.3434 97.6528 53.2656 97.6528C54.1878 97.6528 55.0874 97.3667 55.8401 96.8339C57.1896 95.8707 88.9052 72.9751 88.7764 44.3888C88.7764 24.8091 72.8454 8.87802 53.2656 8.87802C33.6858 8.87802 17.7548 24.8091 17.7548 44.3711C17.6261 72.9751 49.3417 95.8707 50.6911 96.8339ZM53.2656 17.7557C67.9538 17.7557 79.8987 29.7007 79.8987 44.4066C79.9919 64.1062 60.421 81.7951 53.2656 87.6011C46.1146 81.7951 26.5393 64.1062 26.6325 44.3888C26.6325 29.7007 38.5774 17.7557 53.2656 17.7557Z" fill="url(#paint0_linear_1_898)"/>
<path d="M48.8288 62.1439H57.7065V48.8274H71.023V39.9497H57.7065V26.6331H48.8288V39.9497H35.5122V48.8274H48.8288V62.1439Z" fill="url(#paint1_linear_1_898)"/>
<defs>
<linearGradient id="paint0_linear_1_898" x1="53.2656" y1="8.87802" x2="53.2656" y2="97.6528" gradientUnits="userSpaceOnUse">
<stop stop-color="#928BE8"/>
<stop offset="1" stop-color="#80D9EA"/>
</linearGradient>
<linearGradient id="paint1_linear_1_898" x1="53.2676" y1="26.6331" x2="53.2676" y2="62.1439" gradientUnits="userSpaceOnUse">
<stop stop-color="#928BE8"/>
<stop offset="1" stop-color="#80D9EA"/>
</linearGradient>
</defs>
</svg>
