<svg width="196" height="196" viewBox="0 0 196 196" fill="none" xmlns="http://www.w3.org/2000/svg">
<path d="M180.537 151.592C169.873 151.321 161.607 152.408 154.675 155.395C152.676 156.21 149.476 156.211 149.209 158.79C150.276 159.877 150.409 161.643 151.343 163.136C152.943 165.851 155.742 169.519 158.275 171.42C161.074 173.593 163.874 175.765 166.806 177.667C172.005 180.927 177.871 182.827 182.936 186.087C185.87 187.987 188.801 190.433 191.734 192.47C193.201 193.555 194.133 195.321 196 196V195.593C195.067 194.37 194.8 192.605 193.867 191.247C192.535 189.889 191.201 188.666 189.868 187.308C186.002 182.013 181.203 177.395 176.004 173.593C171.739 170.605 162.407 166.531 160.674 161.506C160.674 161.506 160.54 161.371 160.407 161.235C163.34 160.964 166.806 159.877 169.606 159.062C174.138 157.84 178.271 158.111 182.936 156.89C185.069 156.346 187.202 155.667 189.335 154.988V153.766C186.936 151.321 185.203 148.063 182.669 145.754C175.871 139.777 168.406 133.939 160.674 129.05C156.541 126.334 151.209 124.568 146.81 122.26C145.211 121.444 142.544 121.038 141.612 119.68C139.212 116.692 137.878 112.754 136.146 109.223C132.281 101.753 128.547 93.4705 125.214 85.5943C122.816 80.2977 121.349 75.0011 118.416 70.1127C104.686 47.0266 89.7557 33.0393 66.827 19.3229C61.8946 16.4714 56.0297 15.2489 49.7642 13.7554C46.4324 13.6191 43.0989 13.3482 39.7662 13.2119C37.6337 12.2611 35.5003 9.68142 33.6337 8.45887C26.0368 3.56954 6.43994 -7.0219 0.840974 6.96541C-2.75844 15.7925 6.17318 24.4832 9.23899 28.9652C11.5062 32.0885 14.4382 35.619 16.0381 39.1503C16.9714 41.4574 17.2373 43.9033 18.1706 46.3476C20.304 52.3214 22.3027 58.9768 25.1026 64.5452C26.5695 67.3967 28.1685 70.3845 30.0351 72.9641C31.1014 74.4576 32.9671 75.1375 33.3677 77.5817C31.502 80.2977 31.3682 84.3717 30.301 87.7668C25.5024 103.112 27.369 122.124 34.1672 133.395C36.2998 136.79 41.366 144.26 48.1643 141.408C54.163 138.964 52.83 131.223 54.5628 124.433C54.9634 122.802 54.6966 121.717 55.4961 120.631C55.4968 120.766 55.4961 120.902 55.4961 120.902C57.3627 124.705 59.2284 128.371 60.9612 132.174C65.0942 138.827 72.2922 145.754 78.2909 150.371C81.4914 152.815 84.0237 157.025 88.0228 158.519V158.111H87.756C86.9557 156.889 85.7565 156.346 84.6902 155.395C82.2909 152.951 79.6239 149.963 77.7582 147.247C72.16 139.642 67.2267 131.223 62.8278 122.531C60.6953 118.322 58.8287 113.704 57.0959 109.495C56.2956 107.864 56.2956 105.421 54.9625 104.606C52.9629 107.593 50.0309 110.174 48.564 113.841C46.0326 119.68 45.765 126.877 44.8317 134.346C44.2989 134.482 44.5649 134.346 44.2981 134.618C40.033 133.531 38.5661 129.05 36.9663 125.247C32.9671 115.606 32.3006 100.124 35.767 88.9893C36.7003 86.137 40.6995 77.1745 39.0997 74.4585C38.3002 71.8779 35.6332 70.3844 34.1672 68.3474C32.4344 65.7669 30.5678 62.5082 29.3686 59.6559C26.1689 52.0514 24.5691 43.6316 21.1035 36.0262C19.5037 32.4949 16.7046 28.829 14.4382 25.5703C11.9059 21.9035 9.10603 19.3229 7.10642 14.9771C6.44074 13.4836 5.50659 11.0394 6.57287 9.40963C6.83965 8.3234 7.37236 7.91617 8.43947 7.64439C10.1723 6.15007 15.1047 8.05162 16.8375 8.86608C21.77 10.9022 25.9021 12.8046 30.035 15.6561C31.9008 17.0141 33.9004 19.5947 36.2997 20.2737H39.0996C43.3656 21.2236 48.1642 20.5454 52.1634 21.7671C59.2292 24.0751 65.6268 27.4709 71.3597 31.1377C88.8231 42.409 103.219 58.4341 112.951 77.5817C114.551 80.7041 115.217 83.5573 116.683 86.816C119.483 93.4706 122.949 100.261 125.748 106.779C128.547 113.161 131.213 119.68 135.212 124.977C137.213 127.827 145.21 129.321 148.81 130.816C151.476 132.037 155.609 133.125 158.008 134.618C162.54 137.469 167.073 140.729 171.339 143.852C173.472 145.481 180.136 148.877 180.537 151.592Z" fill="#00546B"/>
<path d="M44.5643 33.5811C42.2979 33.5811 40.699 33.8537 39.0991 34.2609C39.0991 34.2609 39.0991 34.3972 39.0991 34.5327H39.3659C40.433 36.7052 42.2979 38.1995 43.631 40.1002C44.6981 42.2726 45.6306 44.446 46.6977 46.6193C46.8306 46.483 46.9636 46.3475 46.9636 46.3475C48.8311 44.9887 49.7635 42.8162 49.7635 39.5575C48.9632 38.6067 48.8302 37.6559 48.1637 36.7052C47.3642 35.3463 45.6306 34.6682 44.5643 33.5811Z" fill="#00546B"/>
</svg>
