<svg width="196" height="196" viewBox="0 0 196 196" fill="none" xmlns="http://www.w3.org/2000/svg">
<g style="mix-blend-mode:multiply" opacity="0.2">
<path d="M61.0354 150.062C58.8782 150.086 56.788 150.816 55.0854 152.14C53.3827 153.465 52.1614 155.312 51.6088 157.397C51.0562 159.483 51.2027 161.692 52.0258 163.686C52.849 165.68 54.3033 167.349 56.166 168.438L90.956 188.16C93.8216 189.789 97.0618 190.644 100.358 190.641C102.131 190.639 103.895 190.382 105.595 189.875L157.933 174.961C161.837 173.839 165.271 171.479 167.718 168.237C170.164 164.995 171.492 161.046 171.5 156.984V150.062H61.0354Z" fill="white"/>
</g>
<g style="mix-blend-mode:multiply" opacity="0.12">
<path d="M61.0354 150.062C58.8782 150.086 56.788 150.816 55.0854 152.14C53.3827 153.465 52.1614 155.312 51.6088 157.397C51.0562 159.483 51.2027 161.692 52.0258 163.686C52.849 165.68 54.3033 167.349 56.166 168.438L90.956 188.16C93.8216 189.789 97.0618 190.644 100.358 190.641C102.131 190.639 103.895 190.382 105.595 189.875L157.933 174.961C161.837 173.839 165.271 171.479 167.718 168.237C170.164 164.995 171.492 161.046 171.5 156.984V150.062H61.0354Z" fill="white"/>
</g>
<path d="M105.381 6.125L119.438 38.2812V150.062L105.595 189.875L157.933 174.961C161.837 173.839 165.271 171.479 167.718 168.237C170.165 164.995 171.492 161.046 171.5 156.984V39.0162C171.502 34.9439 170.175 30.9822 167.721 27.7323C165.267 24.4824 161.82 22.1218 157.903 21.0088L105.381 6.125Z" fill="url(#paint0_linear_192_2108)"/>
<path d="M39.0163 148.868L54.3288 140.599C56.4288 139.445 58.1795 137.747 59.3973 135.683C60.615 133.619 61.255 131.266 61.25 128.87V68.6917C61.2529 65.9505 62.0973 63.2764 63.6693 61.0307C65.2412 58.7851 67.4648 57.0763 70.0394 56.1354L119.438 38.281V24.7142C119.432 20.5092 118.057 16.4206 115.521 13.0666C112.984 9.71262 109.425 7.27582 105.381 6.12479C103.658 5.63022 101.874 5.38275 100.083 5.38979C96.7121 5.3975 93.4003 6.2729 90.4663 7.93167L33.9325 40.1798C31.0678 41.8122 28.6861 44.1737 27.0294 47.0245C25.3727 49.8753 24.5 53.1138 24.5 56.411V140.201C24.4957 141.906 24.9352 143.584 25.7752 145.068C26.6152 146.552 27.8269 147.792 29.2912 148.666C30.7555 149.541 32.422 150.019 34.1271 150.054C35.8321 150.09 37.517 149.681 39.0163 148.868Z" fill="url(#paint1_linear_192_2108)"/>
<path d="M119.437 150.062H61.0354C58.8782 150.086 56.788 150.816 55.0854 152.14C53.3827 153.465 52.1614 155.312 51.6088 157.397C51.0562 159.483 51.2027 161.692 52.0258 163.686C52.849 165.68 54.3033 167.349 56.166 168.438L90.956 188.16C93.8216 189.789 97.0618 190.644 100.358 190.641C102.131 190.639 103.895 190.382 105.595 189.875C109.59 188.74 113.104 186.33 115.603 183.013C118.102 179.696 119.449 175.653 119.437 171.5V150.062Z" fill="url(#paint2_linear_192_2108)"/>
<path d="M39.0163 148.868L54.3288 140.599C56.4288 139.445 58.1795 137.747 59.3973 135.683C60.615 133.619 61.255 131.266 61.25 128.87V68.6917C61.2529 65.9505 62.0973 63.2764 63.6693 61.0307C65.2412 58.7851 67.4648 57.0763 70.0394 56.1354L119.438 38.281V24.7142C119.432 20.5092 118.057 16.4206 115.521 13.0666C112.984 9.71262 109.425 7.27582 105.381 6.12479C103.658 5.63022 101.874 5.38275 100.083 5.38979C96.7121 5.3975 93.4003 6.2729 90.4663 7.93167L33.9325 40.1798C31.0678 41.8122 28.6861 44.1737 27.0294 47.0245C25.3727 49.8753 24.5 53.1138 24.5 56.411V140.201C24.4957 141.906 24.9352 143.584 25.7752 145.068C26.6152 146.552 27.8269 147.792 29.2912 148.666C30.7555 149.541 32.422 150.019 34.1271 150.054C35.8321 150.09 37.517 149.681 39.0163 148.868Z" fill="url(#paint3_linear_192_2108)"/>
<path d="M119.437 150.062H61.0354C58.8782 150.086 56.788 150.816 55.0854 152.14C53.3827 153.465 52.1614 155.312 51.6088 157.397C51.0562 159.483 51.2027 161.692 52.0258 163.686C52.849 165.68 54.3033 167.349 56.166 168.438L90.956 188.16C93.8216 189.789 97.0618 190.644 100.358 190.641C102.131 190.639 103.895 190.382 105.595 189.875C109.59 188.74 113.104 186.33 115.603 183.013C118.102 179.696 119.449 175.653 119.437 171.5V150.062Z" fill="url(#paint4_linear_192_2108)"/>
<defs>
<linearGradient id="paint0_linear_192_2108" x1="138.425" y1="-4.34875" x2="138.425" y2="177.013" gradientUnits="userSpaceOnUse">
<stop stop-color="#FFB900"/>
<stop offset="0.17" stop-color="#EF8400"/>
<stop offset="0.31" stop-color="#E25C01"/>
<stop offset="0.43" stop-color="#DB4401"/>
<stop offset="0.5" stop-color="#D83B01"/>
</linearGradient>
<linearGradient id="paint1_linear_192_2108" x1="105.718" y1="2.05167" x2="9.67752" y2="139.19" gradientUnits="userSpaceOnUse">
<stop stop-color="#800600"/>
<stop offset="0.6" stop-color="#C72127"/>
<stop offset="0.73" stop-color="#C13959"/>
<stop offset="0.85" stop-color="#BC4B81"/>
<stop offset="0.94" stop-color="#B95799"/>
<stop offset="1" stop-color="#B85BA2"/>
</linearGradient>
<linearGradient id="paint2_linear_192_2108" x1="56.656" y1="170.367" x2="182.035" y2="170.367" gradientUnits="userSpaceOnUse">
<stop stop-color="#F32B44"/>
<stop offset="0.6" stop-color="#A4070A"/>
</linearGradient>
<linearGradient id="paint3_linear_192_2108" x1="107.678" y1="-0.735206" x2="87.3425" y2="28.2973" gradientUnits="userSpaceOnUse">
<stop stop-opacity="0.4"/>
<stop offset="1" stop-opacity="0"/>
</linearGradient>
<linearGradient id="paint4_linear_192_2108" x1="141.855" y1="173.184" x2="85.7192" y2="168.284" gradientUnits="userSpaceOnUse">
<stop stop-opacity="0.4"/>
<stop offset="1" stop-opacity="0"/>
</linearGradient>
</defs>
</svg>
