<svg width="197" height="197" viewBox="0 0 197 197" fill="none" xmlns="http://www.w3.org/2000/svg">
<path d="M195.779 117.772C194.601 114.312 191.515 111.902 187.524 111.323C185.642 111.051 183.487 111.167 180.937 111.677C176.492 112.566 173.194 112.905 170.787 112.971C179.871 98.0939 187.258 81.1286 191.511 65.1588C198.387 39.3367 194.712 27.5731 190.419 22.2517C179.055 8.16825 162.476 0.601902 142.473 0.369964C131.804 0.243653 122.436 2.28708 117.551 3.75616C113.001 2.97805 108.109 2.54322 102.975 2.46268C93.3547 2.31392 84.8534 4.34811 77.5894 8.52914C73.567 7.21057 67.1134 5.35111 59.6597 4.16414C42.1289 1.37253 28.0002 3.54799 17.6658 10.6293C5.15153 19.2035 -0.650033 34.1003 0.42307 54.9065C0.763378 61.5125 4.57346 81.6109 10.5719 100.672C14.0195 111.628 17.6957 120.726 21.4985 127.716C26.8913 137.628 32.6615 143.465 39.1396 145.561C42.7709 146.735 49.3679 147.556 56.307 141.952C57.1864 142.984 58.3593 144.011 59.917 144.964C61.8944 146.174 64.3129 147.162 66.7277 147.748C75.4318 149.859 83.5847 149.331 90.5401 146.373C90.5828 147.573 90.6159 148.719 90.644 149.709C90.6903 151.315 90.7357 152.889 90.7965 154.361C91.2085 164.317 91.9068 172.059 93.9759 177.474C94.0893 177.773 94.2422 178.227 94.4038 178.708C95.4356 181.773 97.1621 186.905 101.553 190.925C106.101 195.088 111.601 196.365 116.639 196.364C119.165 196.364 121.576 196.043 123.69 195.603C131.227 194.037 139.786 191.65 145.978 183.099C151.832 175.014 154.678 162.838 155.193 143.652C155.259 143.11 155.321 142.592 155.381 142.098C155.42 141.765 155.461 141.424 155.503 141.085L156.882 141.202L157.237 141.225C164.914 141.565 174.3 139.986 180.064 137.389C184.619 135.338 199.215 127.864 195.779 117.772Z" fill="black"/>
<path d="M182.653 119.735C159.829 124.302 158.26 116.806 158.26 116.806C182.359 82.1223 192.433 38.0961 183.739 27.3209C160.022 -2.07176 118.966 11.8291 118.281 12.19L118.061 12.2283C113.551 11.3203 108.505 10.7794 102.833 10.6896C92.5053 10.5255 84.6715 13.3158 78.727 17.6882C78.727 17.6882 5.48779 -11.5768 8.89404 54.4945C9.61867 68.5507 29.6646 160.85 53.5746 132.971C62.3137 122.777 70.7574 114.157 70.7574 114.157C74.9514 116.86 79.972 118.238 85.2355 117.743L85.6443 117.406C85.5172 118.672 85.5753 119.91 85.8081 121.376C79.6485 128.051 81.4585 129.223 69.1453 131.681C56.6859 134.172 64.0053 138.606 68.7841 139.765C74.5775 141.17 87.9806 143.161 97.0369 130.864L96.6757 132.267C99.0892 134.142 100.784 144.463 100.5 153.819C100.216 163.175 100.026 169.598 101.928 174.616C103.829 179.633 105.725 190.922 121.912 187.557C135.437 184.746 142.446 177.46 143.421 165.308C144.113 156.668 145.679 157.945 145.778 150.221L147.034 146.564C148.482 134.852 147.264 131.074 155.597 132.831L157.622 133.004C163.755 133.274 171.782 132.047 176.494 129.923C186.639 125.356 192.655 117.732 182.652 119.735H182.653Z" fill="#336791"/>
<path d="M83.0139 60.7806C80.9575 60.5029 79.0945 60.7599 78.152 61.4517C77.6216 61.8412 77.4578 62.2924 77.4138 62.6031C77.2954 63.4256 77.8898 64.3349 78.2546 64.804C79.2873 66.1319 80.7964 67.0446 82.2902 67.2458C82.5066 67.2748 82.7217 67.2889 82.9358 67.2889C85.4269 67.2889 87.6911 65.4079 87.8907 64.0193C88.1403 62.2805 85.5376 61.1212 83.0139 60.7806Z" fill="white"/>
<path d="M151.153 60.8356C150.957 59.4726 148.455 59.084 146.082 59.4039C143.713 59.7243 141.415 60.7616 141.606 62.1277C141.761 63.1902 143.738 65.0038 146.079 65.0034C146.276 65.0034 146.476 64.9907 146.677 64.9634C148.24 64.7534 149.386 63.7909 149.931 63.2359C150.761 62.3909 151.24 61.4482 151.153 60.8356Z" fill="white"/>
<path d="M190.249 119.216C189.378 116.664 186.577 115.842 181.923 116.775C168.105 119.541 163.157 117.625 161.531 116.464C172.272 100.593 181.108 81.4089 185.875 63.5093C188.133 55.0306 189.38 47.1566 189.482 40.7389C189.594 33.6937 188.358 28.5176 185.807 25.3554C175.521 12.6072 160.425 5.76923 142.151 5.5813C129.589 5.44443 118.975 8.56304 116.917 9.43974C112.584 8.39448 107.86 7.7528 102.718 7.67094C93.2869 7.52306 85.1354 9.71304 78.3859 14.1766C75.4543 13.1186 67.8777 10.5959 58.6127 9.14838C42.5937 6.64637 29.8649 8.54191 20.7809 14.784C9.94191 22.2324 4.93802 35.5465 5.90767 54.3559C6.23391 60.6847 9.95098 80.152 15.8179 98.7959C23.5401 123.334 31.9339 137.226 40.7665 140.083C41.8001 140.417 42.9926 140.652 44.3066 140.652C47.5286 140.652 51.4785 139.243 55.5885 134.45C62.4151 126.484 68.7888 119.809 71.1383 117.384C74.6103 119.192 78.424 120.201 82.3258 120.302C82.3326 120.401 82.343 120.5 82.3521 120.599C81.5694 121.499 80.9273 122.288 80.3801 122.962C77.6772 126.29 77.1145 126.983 68.4135 128.721C65.9388 129.216 59.3645 130.53 59.2688 135C59.164 139.883 67.0387 141.934 67.9362 142.151C71.063 142.91 74.0749 143.285 76.9476 143.285C83.9343 143.284 90.0821 141.057 94.9957 136.748C94.8441 154.157 95.5928 171.311 97.7476 176.538C99.5122 180.816 103.824 191.273 117.444 191.272C119.442 191.272 121.642 191.047 124.062 190.544C138.276 187.587 144.448 181.494 146.836 168.06C148.114 160.881 150.307 143.736 151.338 134.54C153.514 135.198 156.317 135.5 159.346 135.499C165.664 135.499 172.954 134.197 177.526 132.139C182.661 129.826 191.929 124.148 190.249 119.216ZM156.399 57.0731C156.352 59.7882 155.967 62.2528 155.558 64.8256C155.119 67.5926 154.664 70.4533 154.55 73.9262C154.437 77.3058 154.872 80.8196 155.293 84.2173C156.143 91.0803 157.016 98.1463 153.638 105.118C153.113 104.214 152.606 103.227 152.141 102.135C151.722 101.147 150.81 99.5616 149.548 97.3668C144.637 88.8243 133.136 68.8196 139.024 60.6565C140.777 58.2262 145.227 55.7286 156.399 57.0731ZM142.858 11.0791C159.231 11.4299 172.182 17.3709 181.352 28.7363C188.385 37.454 180.641 77.121 158.221 111.342C157.999 111.069 157.774 110.793 157.541 110.511C157.448 110.398 157.353 110.283 157.257 110.167C163.05 100.886 161.917 91.704 160.909 83.5628C160.495 80.222 160.104 77.0664 160.203 74.1027C160.306 70.9603 160.734 68.2664 161.148 65.661C161.658 62.4499 162.176 59.128 162.033 55.2115C162.139 54.8009 162.182 54.3154 162.127 53.7393C161.762 49.9834 157.341 38.7444 148.331 28.5704C143.403 23.0065 136.215 16.7794 126.402 12.5795C130.623 11.7309 136.395 10.9396 142.858 11.0791ZM51.2394 130.943C46.7115 136.223 43.5843 135.211 42.5561 134.879C35.8556 132.711 28.0817 118.976 21.2274 97.1943C15.2965 78.3475 11.8304 59.396 11.5563 54.0817C10.6901 37.2748 14.8904 25.5614 24.0411 19.2669C38.9329 9.02339 63.4169 15.1545 73.255 18.2644C73.1134 18.3995 72.9664 18.5262 72.8262 18.6635C56.6825 34.478 57.0654 61.4971 57.1049 63.1484C57.1035 63.7857 57.1584 64.6879 57.2342 65.929C57.5119 70.4731 58.0287 78.9311 56.648 88.5096C55.3643 97.4104 58.193 106.122 64.4074 112.411C65.0509 113.062 65.7224 113.674 66.4162 114.249C63.6497 117.122 57.6381 123.476 51.2394 130.943ZM68.4911 108.616C63.4823 103.547 61.2077 96.4959 62.2494 89.2693C63.7078 79.1507 63.1692 70.3384 62.8801 65.6042C62.8398 64.9418 62.8039 64.3613 62.7826 63.9032C65.1412 61.8752 76.0705 56.1947 83.8644 57.9269C87.4218 58.7174 89.5884 61.0662 90.4895 65.1073C95.1531 86.027 91.1071 94.7464 87.856 101.753C87.1858 103.197 86.5529 104.561 86.012 105.973L85.5932 107.064C84.5323 109.823 83.5454 112.388 82.9338 114.824C77.6096 114.808 72.4296 112.602 68.4911 108.616ZM69.3083 136.829C67.7538 136.452 66.3554 135.798 65.535 135.255C66.2202 134.942 67.4398 134.517 69.5547 134.094C79.7907 132.05 81.3711 130.608 84.8232 126.356C85.615 125.382 86.512 124.277 87.7544 122.931L87.7557 122.929C89.6065 120.92 90.4528 121.26 91.9878 121.878C93.232 122.377 94.4434 123.89 94.9349 125.554C95.1672 126.34 95.4285 127.832 94.5741 128.993C87.3628 138.786 76.855 138.66 69.3083 136.829ZM122.876 185.179C110.354 187.782 105.921 181.585 102.999 174.5C101.113 169.926 100.187 149.301 100.844 126.525C100.853 126.222 100.809 125.929 100.722 125.654C100.647 125.123 100.532 124.586 100.373 124.045C99.3942 120.731 97.0116 117.959 94.1531 116.81C93.0173 116.353 90.9324 115.516 88.4273 116.137C88.9618 114.002 89.8883 111.592 90.8925 108.981L91.314 107.882C91.7886 106.644 92.3835 105.362 93.0133 104.005C96.4154 96.6732 101.075 86.6321 96.0179 63.9476C94.1236 55.4513 87.7984 51.3024 78.2094 52.2658C72.4605 52.8428 67.2016 55.0926 64.5785 56.3826C64.0145 56.6599 63.4986 56.9275 63.0167 57.1884C63.7486 48.6274 66.5151 32.6291 76.8623 22.507C83.3766 16.1342 92.0531 12.987 102.624 13.1565C123.454 13.4874 136.81 23.8555 144.348 32.4953C150.844 39.9406 154.361 47.44 155.765 51.4846C145.209 50.4438 138.029 52.4652 134.389 57.5119C126.471 68.49 138.721 89.7983 144.608 100.039C145.688 101.916 146.62 103.538 146.913 104.227C148.83 108.734 151.312 111.742 153.124 113.939C153.68 114.612 154.219 115.264 154.628 115.834C151.431 116.729 145.688 118.794 146.211 129.119C145.79 134.301 142.788 158.558 141.263 167.128C139.25 178.45 134.955 182.668 122.876 185.179ZM175.144 127.163C171.875 128.635 166.404 129.739 161.206 129.976C155.465 130.237 152.543 129.353 151.856 128.809C151.533 122.374 154.002 121.702 156.615 120.99C157.026 120.878 157.427 120.769 157.813 120.638C158.054 120.828 158.317 121.016 158.605 121.2C163.219 124.154 171.449 124.473 183.067 122.147C183.11 122.138 183.153 122.13 183.195 122.122C181.628 123.543 178.946 125.451 175.144 127.163Z" fill="white"/>
</svg>
