<svg width="196" height="196" viewBox="0 0 196 196" fill="none" xmlns="http://www.w3.org/2000/svg">
<path d="M180.32 129.36C180.32 135.855 174.993 141.12 168.419 141.12H11.9011C5.32728 141.12 0 135.855 0 129.36V11.76C0 5.26456 5.32728 0 11.9011 0H168.419C174.993 0 180.32 5.26456 180.32 11.76V129.36Z" fill="#3E3E3E"/>
<path d="M11.6113 19.5996H168.56V121.52H11.6113V19.5996Z" fill="#3999C6"/>
<path d="M101.921 10.5407C101.921 12.0303 100.714 13.2377 99.2239 13.2377H81.8897C81.5266 13.2515 81.1645 13.192 80.825 13.0626C80.4854 12.9332 80.1755 12.7366 79.9137 12.4846C79.652 12.2326 79.4437 11.9304 79.3015 11.5961C79.1593 11.2617 79.0859 10.9021 79.0859 10.5388C79.0859 10.1754 79.1593 9.81582 79.3015 9.48147C79.4437 9.14712 79.652 8.84491 79.9137 8.59293C80.1755 8.34094 80.4854 8.14437 80.825 8.01497C81.1645 7.88557 81.5266 7.82601 81.8897 7.83985H99.2239C100.714 7.83985 101.921 9.05113 101.921 10.5407Z" fill="white"/>
<path opacity="0.15" d="M121.52 0H11.76C8.64105 0 5.64985 1.239 3.44442 3.44442C1.239 5.64985 0 8.64105 0 11.76L0 129.36C0 132.479 1.239 135.47 3.44442 137.676C5.64985 139.881 8.64105 141.12 11.76 141.12H58.8L121.52 0Z" fill="white"/>
<path d="M196 186.376C196 191.692 191.739 196 186.482 196H115.358C110.101 196 105.84 191.692 105.84 186.376V64.5035C105.84 59.188 110.101 54.8799 115.358 54.8799H186.478C191.739 54.8799 196 59.188 196 64.5035V186.376Z" fill="#3E3E3E"/>
<path d="M113.68 70.5596H188.16V176.4H113.68V70.5596Z" fill="#59B4D9"/>
<path d="M167.019 63.3902C167.019 64.7034 165.31 65.7657 163.201 65.7657H138.65C136.533 65.7657 134.82 64.7034 134.82 63.3902C134.82 62.077 136.533 61.0107 138.65 61.0107H163.201C165.31 61.0107 167.019 62.077 167.019 63.3902Z" fill="white"/>
<path opacity="0.15" d="M176.749 54.8799H115.499C112.942 54.8757 110.488 55.8872 108.677 57.6918C106.865 59.4965 105.845 61.9466 105.84 64.5035V186.38C105.842 187.646 106.093 188.899 106.58 190.068C107.067 191.237 107.779 192.298 108.676 193.192C109.573 194.085 110.637 194.793 111.808 195.275C112.979 195.757 114.233 196.003 115.499 196H123.872L176.749 54.8799Z" fill="white"/>
</svg>
