<svg width="196" height="196" viewBox="0 0 196 196" fill="none" xmlns="http://www.w3.org/2000/svg">
<g clip-path="url(#clip0_106_662)">
<path d="M98.0063 39.2031C71.8725 39.2031 55.5448 52.2646 49.0063 78.3985C58.8033 65.3354 70.2402 60.4369 83.3033 63.7031C90.762 65.562 96.0923 70.9704 101.995 76.9637C111.602 86.7132 122.722 98 147.006 98C173.139 98 189.468 84.9369 196.006 58.7969C186.208 71.8677 174.773 76.7662 161.708 73.5C154.251 71.6395 148.927 66.2327 143.016 60.2394C133.415 50.4899 122.298 39.2031 98.0063 39.2031ZM49.0063 98C22.874 98 6.54479 111.063 0.00634766 137.203C9.80328 124.132 21.2387 119.234 34.3033 122.5C41.762 124.36 47.0923 129.767 52.9953 135.761C62.6023 145.51 73.7222 156.797 98.0063 156.797C124.139 156.797 140.468 143.735 147.006 117.602C137.208 130.665 125.773 135.563 112.708 132.297C105.251 130.438 99.9265 125.03 94.0159 119.036C84.415 109.287 73.2981 98 49.0063 98Z" fill="#38BDF8"/>
</g>
<defs>
<clipPath id="clip0_106_662">
<rect width="196" height="196" fill="white"/>
</clipPath>
</defs>
</svg>
