<svg width="196" height="196" viewBox="0 0 196 196" fill="none" xmlns="http://www.w3.org/2000/svg">
<path fill-rule="evenodd" clip-rule="evenodd" d="M157.192 148.645L115.763 126.282V94.0557L157.198 113.787L157.192 148.645Z" fill="black"/>
<path fill-rule="evenodd" clip-rule="evenodd" d="M155.881 143.386L119.052 123.658V98L155.881 115.762V143.386Z" fill="#952781"/>
<path fill-rule="evenodd" clip-rule="evenodd" d="M159.164 115.101L115.763 94.0551L155.223 76.9541L195.342 96.0274L159.164 115.101Z" fill="black"/>
<path fill-rule="evenodd" clip-rule="evenodd" d="M157.851 112.471L122.335 94.7142L154.565 80.9023L188.764 96.6895L157.851 112.471Z" fill="#952781"/>
<path fill-rule="evenodd" clip-rule="evenodd" d="M195.342 96.0273L156.54 114.445L157.195 148.647L196 129.574L195.342 96.0273Z" fill="black"/>
<path fill-rule="evenodd" clip-rule="evenodd" d="M192.049 99.3164L160.475 115.762V143.386L192.049 127.602V99.3164Z" fill="#952781"/>
<path fill-rule="evenodd" clip-rule="evenodd" d="M98.0001 115.101L56.5645 92.7383V60.5146L98.0001 80.2433V115.101Z" fill="black"/>
<path fill-rule="evenodd" clip-rule="evenodd" d="M96.6831 110.495L59.8535 90.1046V64.4531L96.6831 82.2156V110.495Z" fill="#6483C0"/>
<path fill-rule="evenodd" clip-rule="evenodd" d="M99.9723 81.5543L56.5645 60.515L96.0217 44.0693L136.14 62.4872L99.9723 81.5543Z" fill="black"/>
<path fill-rule="evenodd" clip-rule="evenodd" d="M98.6585 78.9266L63.1396 61.1641L95.3694 47.3828L129.571 63.1669L98.6585 78.9266Z" fill="#6483C0"/>
<path fill-rule="evenodd" clip-rule="evenodd" d="M136.147 62.4873L97.3447 80.9021L98.0001 115.101L136.808 96.0278L136.147 62.4873Z" fill="black"/>
<path fill-rule="evenodd" clip-rule="evenodd" d="M132.858 66.4316L101.283 82.2188V109.843L132.858 94.0585V66.4316Z" fill="#6483C0"/>
<path fill-rule="evenodd" clip-rule="evenodd" d="M41.4356 146.675L0 124.307V92.083L40.7772 111.781L41.4356 146.675Z" fill="black"/>
<path fill-rule="evenodd" clip-rule="evenodd" d="M40.1187 141.414L3.28906 121.679V96.0273L40.1218 113.79L40.1187 141.414Z" fill="#D87B30"/>
<path fill-rule="evenodd" clip-rule="evenodd" d="M42.7525 113.129L0 92.0834L39.4603 74.9824L79.5791 94.0557L42.7525 113.129Z" fill="black"/>
<path fill-rule="evenodd" clip-rule="evenodd" d="M42.0912 110.495L5.91699 92.7328L38.8021 78.9209L73.0041 94.705L42.0912 110.495Z" fill="#D87B30"/>
<path fill-rule="evenodd" clip-rule="evenodd" d="M79.5821 94.0557L40.7803 112.47L41.4387 146.679L80.2467 127.599L79.5821 94.0557Z" fill="black"/>
<path fill-rule="evenodd" clip-rule="evenodd" d="M75.6379 97.3418L44.0635 113.787L44.7219 141.411L76.2963 125.624L75.6379 97.3418Z" fill="#D87B30"/>
<path fill-rule="evenodd" clip-rule="evenodd" d="M101.289 151.9L59.8535 128.883V96.6836L100.628 116.415L101.289 151.9Z" fill="black"/>
<path fill-rule="evenodd" clip-rule="evenodd" d="M99.9723 146.675L63.1396 126.941V100.634L99.9754 118.396L99.9723 146.675Z" fill="#E0D400"/>
<path fill-rule="evenodd" clip-rule="evenodd" d="M102.603 117.731L59.8506 96.6859L99.3109 80.2402L139.43 98.655L102.603 117.731Z" fill="black"/>
<path fill-rule="evenodd" clip-rule="evenodd" d="M101.289 115.101L65.7705 98L98.6556 84.2188L132.858 100.003L101.289 115.101Z" fill="#E0D400"/>
<path fill-rule="evenodd" clip-rule="evenodd" d="M139.436 98.6582L100.634 117.073L101.292 151.93L139.439 132.202L139.436 98.6582Z" fill="black"/>
<path fill-rule="evenodd" clip-rule="evenodd" d="M135.485 102.606L103.91 118.394L104.566 146.017L136.14 130.889L135.485 102.606Z" fill="#E0D400"/>
</svg>
