<svg width="196" height="196" viewBox="0 0 196 196" fill="none" xmlns="http://www.w3.org/2000/svg">
<mask id="mask0_14_491" style="mask-type:luminance" maskUnits="userSpaceOnUse" x="0" y="0" width="196" height="196">
<path d="M138.987 195.162C142.074 196.371 145.594 196.294 148.71 194.787L189.063 175.269C193.303 173.218 196 168.904 196 164.172V31.8287C196 27.0964 193.303 22.7827 189.063 20.7318L148.71 1.21338C144.621 -0.764426 139.835 -0.279986 136.247 2.34266C135.734 2.71731 135.245 3.13561 134.788 3.5966L57.536 74.4396L23.8869 48.7648C20.7545 46.3748 16.3731 46.5706 13.4639 49.2307L2.67154 59.0988C-0.887001 62.3526 -0.891082 67.9799 2.66273 71.239L31.8443 97.9997L2.66273 124.761C-0.891082 128.02 -0.887001 133.647 2.67154 136.901L13.4639 146.769C16.3731 149.429 20.7545 149.625 23.8869 147.235L57.536 121.56L134.788 192.403C136.009 193.632 137.444 194.558 138.987 195.162ZM147.03 53.2751L88.4136 97.9997L147.03 142.725V53.2751Z" fill="white"/>
</mask>
<g mask="url(#mask0_14_491)">
<path d="M189.183 20.7625L148.799 1.21723C144.124 -1.04513 138.538 -0.0908131 134.869 3.59676L2.66434 124.761C-0.891626 128.02 -0.887537 133.648 2.67316 136.901L13.4721 146.769C16.3831 149.43 20.7672 149.625 23.9014 147.235L183.106 25.833C188.447 21.7602 196.119 25.5894 196.119 32.3282V31.8569C196.119 27.1266 193.423 22.8145 189.183 20.7625Z" fill="#0065A9"/>
</g>
<mask id="mask1_14_491" style="mask-type:luminance" maskUnits="userSpaceOnUse" x="0" y="0" width="196" height="196">
<path d="M138.987 195.162C142.074 196.371 145.594 196.294 148.71 194.787L189.063 175.269C193.303 173.218 196 168.904 196 164.172V31.8287C196 27.0964 193.303 22.7827 189.063 20.7318L148.71 1.21338C144.621 -0.764426 139.835 -0.279986 136.247 2.34266C135.734 2.71731 135.245 3.13561 134.788 3.5966L57.536 74.4396L23.8869 48.7648C20.7545 46.3748 16.3731 46.5706 13.4639 49.2307L2.67154 59.0988C-0.887001 62.3526 -0.891082 67.9799 2.66273 71.239L31.8443 97.9997L2.66273 124.761C-0.891082 128.02 -0.887001 133.647 2.67154 136.901L13.4639 146.769C16.3731 149.429 20.7545 149.625 23.8869 147.235L57.536 121.56L134.788 192.403C136.009 193.632 137.444 194.558 138.987 195.162ZM147.03 53.2751L88.4136 97.9997L147.03 142.725V53.2751Z" fill="white"/>
</mask>
<g mask="url(#mask1_14_491)">
<path d="M189.183 175.238L148.799 194.783C144.124 197.045 138.538 196.09 134.869 192.403L2.66434 71.2389C-0.891626 67.9799 -0.887537 62.3524 2.67316 59.0987L13.4721 49.2306C16.3831 46.5705 20.7672 46.3746 23.9014 48.7647L183.106 170.167C188.447 174.239 196.119 170.411 196.119 163.671V164.143C196.119 168.873 193.423 173.185 189.183 175.238Z" fill="#007ACC"/>
</g>
<mask id="mask2_14_491" style="mask-type:luminance" maskUnits="userSpaceOnUse" x="0" y="0" width="196" height="196">
<path d="M138.987 195.162C142.074 196.371 145.594 196.294 148.71 194.787L189.063 175.269C193.303 173.218 196 168.904 196 164.172V31.8287C196 27.0964 193.303 22.7827 189.063 20.7318L148.71 1.21338C144.621 -0.764426 139.835 -0.279986 136.247 2.34266C135.734 2.71731 135.245 3.13561 134.788 3.5966L57.536 74.4396L23.8869 48.7648C20.7545 46.3748 16.3731 46.5706 13.4639 49.2307L2.67154 59.0988C-0.887001 62.3526 -0.891082 67.9799 2.66273 71.239L31.8443 97.9997L2.66273 124.761C-0.891082 128.02 -0.887001 133.647 2.67154 136.901L13.4639 146.769C16.3731 149.429 20.7545 149.625 23.8869 147.235L57.536 121.56L134.788 192.403C136.009 193.632 137.444 194.558 138.987 195.162ZM147.03 53.2751L88.4136 97.9997L147.03 142.725V53.2751Z" fill="white"/>
</mask>
<g mask="url(#mask2_14_491)">
<path d="M148.672 194.799C143.996 197.059 138.409 196.104 134.74 192.416C139.26 196.96 146.99 193.741 146.99 187.315V8.70968C146.99 2.28357 139.26 -0.934669 134.74 3.6093C138.409 -0.0786205 143.996 -1.03428 148.672 1.22608L189.049 20.7445C193.292 22.7954 195.99 27.1091 195.99 31.8415V164.184C195.99 168.917 193.292 173.23 189.049 175.281L148.672 194.799Z" fill="#1F9CF0"/>
</g>
<mask id="mask3_14_491" style="mask-type:luminance" maskUnits="userSpaceOnUse" x="0" y="0" width="196" height="196">
<path d="M138.987 195.162C142.074 196.371 145.594 196.294 148.71 194.787L189.063 175.269C193.303 173.218 196 168.904 196 164.172V31.8287C196 27.0964 193.303 22.7827 189.063 20.7318L148.71 1.21338C144.621 -0.764426 139.835 -0.279986 136.247 2.34266C135.734 2.71731 135.245 3.13561 134.788 3.5966L57.536 74.4396L23.8869 48.7648C20.7545 46.3748 16.3731 46.5706 13.4639 49.2307L2.67154 59.0988C-0.887001 62.3526 -0.891082 67.9799 2.66273 71.239L31.8443 97.9997L2.66273 124.761C-0.891082 128.02 -0.887001 133.647 2.67154 136.901L13.4639 146.769C16.3731 149.429 20.7545 149.625 23.8869 147.235L57.536 121.56L134.788 192.403C136.009 193.632 137.444 194.558 138.987 195.162ZM147.03 53.2751L88.4136 97.9997L147.03 142.725V53.2751Z" fill="white"/>
</mask>
<g mask="url(#mask3_14_491)">
<path d="M138.987 195.162C142.074 196.371 145.594 196.294 148.71 194.787L189.063 175.268C193.304 173.217 196 168.904 196 164.172V31.8287C196 27.0963 193.304 22.7827 189.064 20.7317L148.71 1.21339C144.621 -0.764426 139.835 -0.279987 136.246 2.34265C135.734 2.71731 135.246 3.13561 134.787 3.5966L57.5359 74.4396L23.8868 48.7648C20.7545 46.3748 16.3731 46.5706 13.4639 49.2306L2.67154 59.0987C-0.887001 62.3526 -0.891082 67.98 2.66273 71.2391L31.8444 97.9998L2.66273 124.761C-0.891082 128.02 -0.887001 133.647 2.67154 136.901L13.4639 146.769C16.3731 149.429 20.7545 149.625 23.8868 147.235L57.5359 121.56L134.787 192.403C136.009 193.632 137.444 194.558 138.987 195.162ZM147.03 53.2751L88.4138 97.9998L147.03 142.725V53.2751Z" fill="url(#paint0_linear_14_491)" fill-opacity="0.25"/>
</g>
<defs>
<linearGradient id="paint0_linear_14_491" x1="9800.02" y1="-7.67624e-05" x2="9800.02" y2="19600" gradientUnits="userSpaceOnUse">
<stop stop-color="white"/>
<stop offset="1" stop-color="white" stop-opacity="0"/>
</linearGradient>
</defs>
</svg>
