<?xml version="1.0" encoding="iso-8859-1"?>
<!-- Uploaded to: SVG Repo, www.svgrepo.com, Generator: SVG Repo Mixer Tools -->
<svg height="800px" width="800px" version="1.1" id="Capa_1" xmlns="http://www.w3.org/2000/svg" xmlns:xlink="http://www.w3.org/1999/xlink" 
	 viewBox="0 0 163.987 163.987" xml:space="preserve">
<g>
	<g>
		<path style="fill:#010002;" d="M64.394,140.257l-16.803,10.537l4.815-8.079c0.853-1.408,0.37-3.246-1.038-4.093
			c-1.402-0.841-3.246-0.382-4.093,1.038l-7.691,12.888l-4.38-10.866c-0.615-1.533-2.369-2.261-3.878-1.647
			c-1.533,0.621-2.273,2.357-1.647,3.873l8.079,20.079l29.81-18.676c1.39-0.871,1.826-2.715,0.943-4.111
			S65.797,139.386,64.394,140.257z"/>
		<path style="fill:#010002;" d="M49.382,92.302c0-1.641-1.343-2.983-2.983-2.983h-14.07c-0.179-0.197-0.4-0.37-0.644-0.513
			c-1.396-0.853-3.24-0.388-4.093,1.038l-3.246,5.442h22.054C48.057,95.285,49.382,93.948,49.382,92.302z"/>
		<path style="fill:#010002;" d="M56.136,47.807c0.477,0.292,1.002,0.418,1.528,0.418c1.014,0,2.005-0.519,2.572-1.456l4.475-7.518
			c0.853-1.408,0.376-3.246-1.038-4.093c-1.414-0.847-3.24-0.388-4.093,1.038l-4.481,7.518
			C54.257,45.121,54.722,46.959,56.136,47.807z"/>
		<path style="fill:#010002;" d="M37.8,78.548c0.477,0.292,1.002,0.418,1.528,0.418c1.014,0,2.005-0.525,2.566-1.456l9.171-15.371
			c0.841-1.408,0.37-3.246-1.038-4.087c-1.408-0.853-3.24-0.388-4.099,1.032l-9.165,15.371C35.909,75.881,36.38,77.695,37.8,78.548z
			"/>
		<path style="fill:#010002;" d="M69.699,107.875c-1.408-0.847-3.252-0.376-4.099,1.038l-9.171,15.371
			c-0.847,1.408-0.376,3.246,1.044,4.099c0.477,0.28,1.002,0.412,1.528,0.412c1.014,0,2.005-0.519,2.566-1.45l9.171-15.371
			C71.579,110.554,71.113,108.722,69.699,107.875z"/>
		<path style="fill:#010002;" d="M61.316,92.302c0,1.647,1.337,2.983,2.983,2.983h10.06c0.072,0.937,0.585,1.832,1.45,2.351
			c0.477,0.286,1.002,0.412,1.533,0.412c1.014,0,2.005-0.513,2.566-1.456l4.344-7.274H64.305
			C62.652,89.318,61.316,90.649,61.316,92.302z"/>
		<path style="fill:#010002;" d="M90.249,68.714l34.166-57.276l4.368,10.866c0.621,1.533,2.369,2.261,3.878,1.653
			c1.533-0.621,2.273-2.363,1.653-3.878L126.229,0l-29.81,18.682c-1.384,0.871-1.82,2.709-0.943,4.105
			c0.573,0.901,1.539,1.39,2.53,1.39c0.549,0,1.098-0.137,1.593-0.453l16.809-10.532l-36.66,61.477h49.382l-29.858,50.074
			c-0.853,1.414-0.376,3.246,1.038,4.099c0.477,0.28,1.002,0.412,1.528,0.412c1.014,0,2.005-0.519,2.566-1.456l35.24-59.078H90.249
			V68.714z"/>
	</g>
</g>
</svg>