<svg width="196" height="196" viewBox="0 0 196 196" fill="none" xmlns="http://www.w3.org/2000/svg">
<path d="M79.305 157.617L85.7506 157.548L85.62 148.617L79.2703 148.689C78.4402 142.184 75.8746 136.024 71.8427 130.853L76.2935 126.361L69.4723 119.828L65.146 124.191C59.7985 120.072 53.414 117.515 46.7014 116.806L46.6259 110.25L37.5404 110.379L37.6159 117.01C31.1444 117.931 25.0385 120.572 19.935 124.656L15.6087 120.511L8.96298 127.212L13.3791 131.445C9.62517 136.481 7.2342 142.401 6.43742 148.632L0 148.703L0.130668 157.633L6.32921 157.564C7.09989 164.256 9.70737 170.604 13.863 175.906L9.65307 180.153L16.4723 186.686L20.574 182.554C25.9356 186.667 32.3334 189.211 39.0553 189.904L39.1247 196L48.2123 195.874L48.1408 189.686C54.6936 188.741 60.8664 186.033 65.9994 181.852L70.3359 186.006L76.9836 179.306L72.4919 174.998C76.2302 169.892 78.5779 163.903 79.305 157.617ZM43.0795 171.729H42.8304C39.2174 171.727 35.6853 170.659 32.6757 168.66C29.6661 166.661 27.3126 163.819 25.9095 160.49C24.5064 157.161 24.1159 153.492 24.7869 149.941C25.4578 146.391 27.1605 143.118 29.682 140.53C31.3616 138.797 33.3684 137.414 35.586 136.461C37.8037 135.509 40.1883 135.006 42.6017 134.981H42.8508C47.7242 134.951 52.41 136.857 55.8775 140.282C59.3449 143.706 61.31 148.368 61.3403 153.242C61.3706 158.115 59.4637 162.801 56.0392 166.268C52.6146 169.736 47.9529 171.699 43.0795 171.729Z" fill="#0078D4"/>
<path d="M45.311 82.1923L48.9861 82.1494L48.9126 77.0452L45.2865 77.0861C44.8129 73.3707 43.3474 69.8515 41.0439 66.8981L43.5838 64.3338L39.6903 60.6036L37.2199 63.0945C34.1649 60.7418 30.5174 59.2824 26.6827 58.8784L26.6378 55.1299L21.4499 55.2013L21.4928 58.9907C17.7959 59.5164 14.3079 61.0245 11.3926 63.3578L8.92419 60.9956L5.13075 64.8238L7.65018 67.2411C5.50312 70.117 4.13399 73.498 3.67503 77.0575L0 77.0983L0.0714589 82.2025L3.61173 82.1617C4.05216 85.9843 5.54254 89.6102 7.91764 92.6375L5.52275 95.0631L9.41828 98.7932L11.7621 96.431C14.8243 98.7828 18.4791 100.239 22.3197 100.637L22.3605 104.108L27.5505 104.034L27.5096 100.5C31.255 99.9604 34.7834 98.4136 37.718 96.0247L40.1864 98.4073L43.9839 94.5771L41.4155 92.1271C43.5528 89.2089 44.8951 85.7855 45.311 82.1923ZM24.6125 90.2508H24.4716C22.4081 90.2487 20.391 89.6386 18.6723 88.4966C16.9536 87.3546 15.6095 85.7314 14.8081 83.8299C14.0067 81.9284 13.7834 79.8328 14.1662 77.8051C14.5489 75.7774 15.5208 73.9075 16.9602 72.429C17.9197 71.4382 19.0663 70.6479 20.3337 70.104C21.6011 69.56 22.9639 69.2733 24.343 69.2603H24.4859C25.8643 69.252 27.2308 69.5153 28.5075 70.0351C29.7841 70.5549 30.9459 71.3211 31.9264 72.2899C32.907 73.2587 33.6871 74.4111 34.2223 75.6814C34.7574 76.9517 35.0372 78.3149 35.0455 79.6933C35.0538 81.0717 34.7905 82.4382 34.2707 83.7149C33.7509 84.9915 32.9847 86.1533 32.0159 87.1338C31.0471 88.1144 29.8947 88.8945 28.6244 89.4297C27.3541 89.9648 25.9909 90.2425 24.6125 90.2508Z" fill="#50E6FF"/>
<path d="M187.782 86.5671C190.683 75.4352 190.529 63.7268 187.335 52.6753L195.465 49.182L189.093 34.3553L180.967 37.8486C175.211 28.0272 166.939 19.9192 157.004 14.3612L160.346 5.98007L145.366 0L142.059 8.29329C130.818 5.28941 118.971 5.40871 107.793 8.63834L104.304 0.536961L89.4794 6.90699L92.9503 15.0043C83.0134 20.8243 74.8313 29.2181 69.2667 39.3003L61.1 36.0336L55.124 51.0276L63.2907 54.2943C60.3847 65.4391 60.5413 77.1618 63.744 88.225L55.6569 91.6958L62.0269 106.522L70.1161 103.052C75.9436 112.983 84.3429 121.158 94.4284 126.715L91.1617 134.898L106.154 140.876L109.42 132.689C120.558 135.586 132.271 135.426 143.325 132.225L146.814 140.339L161.639 133.971L158.155 125.849C168.081 120.025 176.252 111.631 181.808 101.553L190.022 104.82L196 89.8481L187.782 86.5671ZM168.182 87.4471C164.246 97.3159 157.01 105.515 147.707 110.646C138.404 115.778 127.609 117.525 117.162 115.59C106.715 113.655 97.262 108.158 90.4139 100.034C83.5659 91.9108 79.7464 81.6642 79.6063 71.0404C79.4662 60.4166 83.0142 50.0729 89.6456 41.7718C96.277 33.4706 105.582 27.7257 115.974 25.5158C126.366 23.3059 137.203 24.7678 146.639 29.6524C156.074 34.537 163.524 42.5421 167.719 52.3037C170.113 57.8413 171.387 63.798 171.468 69.8303C171.549 75.8626 170.435 81.8513 168.19 87.4512L168.182 87.4471Z" fill="#0078D4"/>
</svg>
