<svg width="148" height="148" viewBox="0 0 148 148" fill="none" xmlns="http://www.w3.org/2000/svg">
<path d="M122.922 43.0225H98.3374V24.5842C98.3374 17.805 92.8244 12.292 86.0452 12.292H61.4608C54.6817 12.292 49.1686 17.805 49.1686 24.5842V55.3147H24.5842C17.805 55.3147 12.292 60.8278 12.292 67.6069V122.922C12.292 124.552 12.9395 126.115 14.0921 127.268C15.2448 128.42 16.808 129.068 18.4381 129.068H129.068C130.698 129.068 132.261 128.42 133.414 127.268C134.567 126.115 135.214 124.552 135.214 122.922V55.3147C135.214 48.5356 129.701 43.0225 122.922 43.0225ZM24.5842 67.6069H49.1686V116.776H24.5842V67.6069ZM61.4608 61.4608V24.5842H86.0452V116.776H61.4608V61.4608ZM122.922 116.776H98.3374V55.3147H122.922V116.776Z" fill="#DC7C7B"/>
</svg>
