<svg width="142" height="142" viewBox="0 0 142 142" fill="none" xmlns="http://www.w3.org/2000/svg">
<path d="M118.333 41.4168H94.6667V23.6668C94.6667 17.1407 89.3595 11.8335 82.8334 11.8335H59.1667C52.6406 11.8335 47.3334 17.1407 47.3334 23.6668V53.2502H23.6667C17.1406 53.2502 11.8334 58.5574 11.8334 65.0835V118.333C11.8334 119.903 12.4567 121.408 13.5663 122.517C14.6759 123.627 16.1808 124.25 17.75 124.25H124.25C125.819 124.25 127.324 123.627 128.434 122.517C129.543 121.408 130.167 119.903 130.167 118.333V53.2502C130.167 46.7241 124.859 41.4168 118.333 41.4168ZM23.6667 65.0835H47.3334V112.417H23.6667V65.0835ZM59.1667 59.1668V23.6668H82.8334V112.417H59.1667V59.1668ZM118.333 112.417H94.6667V53.2502H118.333V112.417Z" fill="url(#paint0_linear_97_393)"/>
<defs>
<linearGradient id="paint0_linear_97_393" x1="71" y1="11.8335" x2="71" y2="124.25" gradientUnits="userSpaceOnUse">
<stop stop-color="#928BE8"/>
<stop offset="1" stop-color="#80D9EA"/>
</linearGradient>
</defs>
</svg>
