<svg width="142" height="143" viewBox="0 0 142 143" fill="none" xmlns="http://www.w3.org/2000/svg">
<path d="M118.333 18.3462H23.6667C17.1406 18.3462 11.8334 23.6534 11.8334 30.1795V113.013C11.8334 119.539 17.1406 124.846 23.6667 124.846H118.333C124.859 124.846 130.167 119.539 130.167 113.013V30.1795C130.167 23.6534 124.859 18.3462 118.333 18.3462ZM23.6667 113.013V42.0129H118.333L118.345 113.013H23.6667Z" fill="url(#paint0_linear_92_16)"/>
<path d="M54.9834 55.5796L33.0503 77.5127L54.9834 99.4458L63.3495 91.0796L49.7826 77.5127L63.3495 63.9458L54.9834 55.5796ZM87.0162 55.5796L78.6501 63.9458L92.217 77.5127L78.6501 91.0796L87.0162 99.4458L108.949 77.5127L87.0162 55.5796Z" fill="url(#paint1_linear_92_16)"/>
<defs>
<linearGradient id="paint0_linear_92_16" x1="71" y1="18.3462" x2="71" y2="124.846" gradientUnits="userSpaceOnUse">
<stop stop-color="#928BE8"/>
<stop offset="1" stop-color="#80D9EA"/>
</linearGradient>
<linearGradient id="paint1_linear_92_16" x1="70.9998" y1="55.5796" x2="70.9998" y2="99.4458" gradientUnits="userSpaceOnUse">
<stop stop-color="#928BE8"/>
<stop offset="1" stop-color="#80D9EA"/>
</linearGradient>
</defs>
</svg>
