<svg width="197" height="197" viewBox="0 0 197 197" fill="none" xmlns="http://www.w3.org/2000/svg">
<path d="M163.896 24.584H57.3637C48.3248 24.584 40.9741 31.9347 40.9741 40.9736V57.3632H32.7793C23.7404 57.3632 16.3896 64.7139 16.3896 73.7528V155.701C16.3896 164.74 23.7404 172.09 32.7793 172.09H81.9481C90.987 172.09 98.3377 164.74 98.3377 155.701H163.896C172.935 155.701 180.286 148.35 180.286 139.311V40.9736C180.286 31.9347 172.935 24.584 163.896 24.584ZM81.9235 155.701H32.7793V73.7528H81.9481L81.9235 155.701ZM163.872 139.311H98.3377V73.7528C98.3377 64.7139 90.987 57.3632 81.9481 57.3632H57.3637V40.9736H163.896L163.872 139.311Z" fill="#DC7C7B"/>
</svg>
