<svg width="142" height="143" viewBox="0 0 142 143" fill="none" xmlns="http://www.w3.org/2000/svg">
<path d="M118.333 18.3462H41.4167C34.8906 18.3462 29.5834 23.6534 29.5834 30.1795V42.0129H23.6667C17.1406 42.0129 11.8334 47.3201 11.8334 53.8462V113.013C11.8334 119.539 17.1406 124.846 23.6667 124.846H59.1667C65.6928 124.846 71 119.539 71 113.013H118.333C124.859 113.013 130.167 107.706 130.167 101.18V30.1795C130.167 23.6534 124.859 18.3462 118.333 18.3462ZM59.149 113.013H23.6667V53.8462H59.1667L59.149 113.013ZM118.316 101.18H71V53.8462C71 47.3201 65.6928 42.0129 59.1667 42.0129H41.4167V30.1795H118.333L118.316 101.18Z" fill="url(#paint0_linear_92_10)"/>
<defs>
<linearGradient id="paint0_linear_92_10" x1="71" y1="18.3462" x2="71" y2="124.846" gradientUnits="userSpaceOnUse">
<stop stop-color="#928BE8"/>
<stop offset="1" stop-color="#80D9EA"/>
</linearGradient>
</defs>
</svg>
