<svg width="140" height="140" viewBox="0 0 140 140" fill="none" xmlns="http://www.w3.org/2000/svg">
<path d="M116.095 23.219H34.8295C28.427 23.219 23.2202 28.4258 23.2202 34.8283V63.8516H34.8295V46.4376L71.9793 74.3C72.9844 75.0526 74.2064 75.4594 75.4621 75.4594C76.7178 75.4594 77.9398 75.0526 78.9449 74.3L116.095 46.4376V98.6795H69.6574V110.289H116.095C122.497 110.289 127.704 105.082 127.704 98.6795V34.8283C127.704 28.4258 122.497 23.219 116.095 23.219ZM75.4621 62.4004L38.6954 34.8283H112.229L75.4621 62.4004Z" fill="url(#paint0_linear_1_929)"/>
<path d="M11.6079 69.6559H52.2405V81.2652H11.6079V69.6559ZM23.2172 87.0698H58.0451V98.6792H23.2172V87.0698ZM40.6312 104.484H63.8498V116.093H40.6312V104.484Z" fill="url(#paint1_linear_1_929)"/>
<defs>
<linearGradient id="paint0_linear_1_929" x1="75.4621" y1="23.219" x2="75.4621" y2="110.289" gradientUnits="userSpaceOnUse">
<stop stop-color="#928BE8"/>
<stop offset="1" stop-color="#80D9EA"/>
</linearGradient>
<linearGradient id="paint1_linear_1_929" x1="37.7289" y1="69.6559" x2="37.7289" y2="116.093" gradientUnits="userSpaceOnUse">
<stop stop-color="#928BE8"/>
<stop offset="1" stop-color="#80D9EA"/>
</linearGradient>
</defs>
</svg>
