<svg width="142" height="143" viewBox="0 0 142 143" fill="none" xmlns="http://www.w3.org/2000/svg">
<path d="M70.9998 130.763C77.5352 130.763 82.8332 125.465 82.8332 118.93C82.8332 112.394 77.5352 107.096 70.9998 107.096C64.4645 107.096 59.1665 112.394 59.1665 118.93C59.1665 125.465 64.4645 130.763 70.9998 130.763Z" fill="url(#paint0_linear_92_30)"/>
<path d="M70.9998 36.0964C77.5352 36.0964 82.8332 30.7984 82.8332 24.263C82.8332 17.7277 77.5352 12.4297 70.9998 12.4297C64.4645 12.4297 59.1665 17.7277 59.1665 24.263C59.1665 30.7984 64.4645 36.0964 70.9998 36.0964Z" fill="url(#paint1_linear_92_30)"/>
<path d="M37.5279 116.9C44.0633 116.9 49.3612 111.602 49.3612 105.067C49.3612 98.5314 44.0633 93.2334 37.5279 93.2334C30.9925 93.2334 25.6946 98.5314 25.6946 105.067C25.6946 111.602 30.9925 116.9 37.5279 116.9Z" fill="url(#paint2_linear_92_30)"/>
<path d="M104.472 49.9592C111.007 49.9592 116.305 44.6612 116.305 38.1258C116.305 31.5904 111.007 26.2925 104.472 26.2925C97.9364 26.2925 92.6384 31.5904 92.6384 38.1258C92.6384 44.6612 97.9364 49.9592 104.472 49.9592Z" fill="url(#paint3_linear_92_30)"/>
<path d="M23.6666 83.4353C30.2053 83.4353 35.5059 78.1347 35.5059 71.5961C35.5059 65.0575 30.2053 59.7568 23.6666 59.7568C17.128 59.7568 11.8274 65.0575 11.8274 71.5961C11.8274 78.1347 17.128 83.4353 23.6666 83.4353Z" fill="url(#paint4_linear_92_30)"/>
<path d="M118.333 83.4294C124.868 83.4294 130.166 78.1314 130.166 71.596C130.166 65.0607 124.868 59.7627 118.333 59.7627C111.798 59.7627 106.5 65.0607 106.5 71.596C106.5 78.1314 111.798 83.4294 118.333 83.4294Z" fill="url(#paint5_linear_92_30)"/>
<path d="M37.5279 49.965C44.0633 49.965 49.3612 44.667 49.3612 38.1317C49.3612 31.5963 44.0633 26.2983 37.5279 26.2983C30.9925 26.2983 25.6946 31.5963 25.6946 38.1317C25.6946 44.667 30.9925 49.965 37.5279 49.965Z" fill="url(#paint6_linear_92_30)"/>
<path d="M104.472 116.906C111.007 116.906 116.305 111.608 116.305 105.073C116.305 98.5372 111.007 93.2393 104.472 93.2393C97.9364 93.2393 92.6384 98.5372 92.6384 105.073C92.6384 111.608 97.9364 116.906 104.472 116.906Z" fill="url(#paint7_linear_92_30)"/>
<defs>
<linearGradient id="paint0_linear_92_30" x1="70.9998" y1="107.096" x2="70.9998" y2="130.763" gradientUnits="userSpaceOnUse">
<stop stop-color="#928BE8"/>
<stop offset="1" stop-color="#80D9EA"/>
</linearGradient>
<linearGradient id="paint1_linear_92_30" x1="70.9998" y1="12.4297" x2="70.9998" y2="36.0964" gradientUnits="userSpaceOnUse">
<stop stop-color="#928BE8"/>
<stop offset="1" stop-color="#80D9EA"/>
</linearGradient>
<linearGradient id="paint2_linear_92_30" x1="37.5279" y1="93.2334" x2="37.5279" y2="116.9" gradientUnits="userSpaceOnUse">
<stop stop-color="#928BE8"/>
<stop offset="1" stop-color="#80D9EA"/>
</linearGradient>
<linearGradient id="paint3_linear_92_30" x1="104.472" y1="26.2925" x2="104.472" y2="49.9592" gradientUnits="userSpaceOnUse">
<stop stop-color="#928BE8"/>
<stop offset="1" stop-color="#80D9EA"/>
</linearGradient>
<linearGradient id="paint4_linear_92_30" x1="23.6666" y1="59.7568" x2="23.6666" y2="83.4353" gradientUnits="userSpaceOnUse">
<stop stop-color="#928BE8"/>
<stop offset="1" stop-color="#80D9EA"/>
</linearGradient>
<linearGradient id="paint5_linear_92_30" x1="118.333" y1="59.7627" x2="118.333" y2="83.4294" gradientUnits="userSpaceOnUse">
<stop stop-color="#928BE8"/>
<stop offset="1" stop-color="#80D9EA"/>
</linearGradient>
<linearGradient id="paint6_linear_92_30" x1="37.5279" y1="26.2983" x2="37.5279" y2="49.965" gradientUnits="userSpaceOnUse">
<stop stop-color="#928BE8"/>
<stop offset="1" stop-color="#80D9EA"/>
</linearGradient>
<linearGradient id="paint7_linear_92_30" x1="104.472" y1="93.2393" x2="104.472" y2="116.906" gradientUnits="userSpaceOnUse">
<stop stop-color="#928BE8"/>
<stop offset="1" stop-color="#80D9EA"/>
</linearGradient>
</defs>
</svg>
