<svg width="22" height="28" viewBox="0 0 22 28" fill="none" xmlns="http://www.w3.org/2000/svg">
<path d="M10.053 27.0033C10.2805 27.1642 10.5522 27.2507 10.8309 27.2507C11.1095 27.2507 11.3813 27.1642 11.6087 27.0033C12.0164 26.7122 21.5988 19.7947 21.5599 11.1578C21.5599 5.24204 16.7466 0.428711 10.8309 0.428711C4.91513 0.428711 0.101803 5.24204 0.101803 11.1524C0.0629098 19.7947 9.64531 26.7122 10.053 27.0033ZM10.8309 3.11098C15.2687 3.11098 18.8777 6.71997 18.8777 11.1631C18.9058 17.1151 12.9928 22.4595 10.8309 24.2137C8.6703 22.4595 2.75591 17.1151 2.78407 11.1578C2.78407 6.71997 6.39306 3.11098 10.8309 3.11098Z" fill="#DC7C7B"/>
</svg>
