<svg width="148" height="148" viewBox="0 0 148 148" fill="none" xmlns="http://www.w3.org/2000/svg">
<path d="M82.3575 12.8829C72.2234 11.4958 61.9035 12.6394 52.3191 16.2117C42.7346 19.7841 34.1837 25.6739 27.4297 33.3555C21.6493 40.0129 17.3605 47.8301 14.8513 56.2822C12.342 64.7342 11.6706 73.6254 12.8819 82.3584C16.1394 106.291 34.1351 126.653 57.6563 133.039C62.8997 134.474 68.3106 135.206 73.7468 135.215L74.6195 135.209C77.7267 135.169 80.7733 134.344 83.4767 132.812C86.1801 131.28 88.4525 129.09 90.0831 126.444C91.7192 123.814 92.6633 120.812 92.8277 117.718C92.9921 114.624 92.3715 111.539 91.0235 108.75L89.8004 106.193C88.8597 104.355 88.4179 102.302 88.5193 100.24C88.6207 98.1779 89.2617 96.1785 90.3781 94.4417C91.9756 91.8467 94.4783 89.936 97.4026 89.079C100.327 88.2219 103.465 88.4793 106.211 89.8014L108.743 91.0121C111.275 92.2291 113.967 92.8498 116.739 92.8498C121.59 92.8249 126.238 90.9032 129.691 87.4955C133.143 84.0878 135.126 79.4645 135.214 74.6143C135.29 68.8861 134.56 63.1757 133.044 57.6511C126.652 34.1361 106.29 16.1403 82.3575 12.8829ZM114.059 79.9307L111.527 78.7199C100.292 73.3236 86.5122 77.503 79.9666 87.9022C75.4308 95.13 74.9699 103.735 78.7128 111.516L79.9359 114.072C80.3943 115.001 80.6063 116.032 80.5514 117.067C80.4965 118.101 80.1766 119.104 79.6225 119.979C79.0824 120.873 78.3217 121.613 77.4134 122.128C76.5051 122.644 75.4795 122.917 74.4351 122.923H73.7468C69.397 122.911 65.0678 122.326 60.8707 121.183C42.0452 116.076 27.6633 99.8011 25.0635 80.7051C23.0906 66.231 27.2269 52.2917 36.6981 41.4377C42.0866 35.2561 48.9353 30.52 56.621 27.6604C64.3068 24.8008 72.5856 23.9084 80.7042 25.0644C99.8001 27.6642 116.075 42.0523 121.182 60.8716C122.399 65.3583 122.983 69.931 122.916 74.4361C122.842 79.396 117.722 81.7069 114.059 79.9307Z" fill="#DC7C7B"/>
<path d="M46.0961 98.3377C51.1877 98.3377 55.3153 94.2102 55.3153 89.1186C55.3153 84.027 51.1877 79.8994 46.0961 79.8994C41.0045 79.8994 36.877 84.027 36.877 89.1186C36.877 94.2102 41.0045 98.3377 46.0961 98.3377Z" fill="#DC7C7B"/>
<path d="M46.0961 73.7537C51.1877 73.7537 55.3153 69.6262 55.3153 64.5346C55.3153 59.443 51.1877 55.3154 46.0961 55.3154C41.0045 55.3154 36.877 59.443 36.877 64.5346C36.877 69.6262 41.0045 73.7537 46.0961 73.7537Z" fill="#DC7C7B"/>
<path d="M64.5346 55.3153C69.6262 55.3153 73.7537 51.1877 73.7537 46.0961C73.7537 41.0045 69.6262 36.877 64.5346 36.877C59.443 36.877 55.3154 41.0045 55.3154 46.0961C55.3154 51.1877 59.443 55.3153 64.5346 55.3153Z" fill="#DC7C7B"/>
<path d="M89.1186 55.3153C94.2102 55.3153 98.3377 51.1877 98.3377 46.0961C98.3377 41.0045 94.2102 36.877 89.1186 36.877C84.027 36.877 79.8994 41.0045 79.8994 46.0961C79.8994 51.1877 84.027 55.3153 89.1186 55.3153Z" fill="#DC7C7B"/>
</svg>
