<svg width="33" height="33" viewBox="0 0 33 33" fill="none" xmlns="http://www.w3.org/2000/svg">
<path d="M22.5773 30.2517C22.9335 30.2538 23.2866 30.1849 23.6159 30.049C23.9451 29.9132 24.244 29.7131 24.4952 29.4605L28.1296 25.826C28.3794 25.5747 28.5196 25.2348 28.5196 24.8805C28.5196 24.5262 28.3794 24.1863 28.1296 23.935L22.7651 18.5705C22.5138 18.3207 22.1739 18.1805 21.8196 18.1805C21.4653 18.1805 21.1254 18.3207 20.8741 18.5705L18.7283 20.7029C17.2427 20.3068 15.8667 19.5775 14.7049 18.5705C13.7005 17.4068 12.9717 16.0315 12.5725 14.5471L14.7049 12.4013C14.9547 12.15 15.0949 11.8101 15.0949 11.4558C15.0949 11.1015 14.9547 10.7615 14.7049 10.5103L9.34036 5.14573C9.08908 4.89594 8.74917 4.75574 8.39486 4.75574C8.04055 4.75574 7.70064 4.89594 7.44936 5.14573L3.8283 8.79361C3.57567 9.04473 3.37559 9.34365 3.23974 9.67292C3.10388 10.0022 3.03497 10.3552 3.03703 10.7114C3.1587 15.8645 5.21781 20.7824 8.80391 24.4849C12.5064 28.071 17.4243 30.1301 22.5773 30.2517ZM8.40157 8.00234L11.8751 11.4759L10.145 13.2059C9.98118 13.3594 9.85848 13.5516 9.78818 13.7648C9.71788 13.9781 9.70225 14.2055 9.7427 14.4264C10.244 16.6666 11.3053 18.743 12.8273 20.4615C14.5444 21.9855 16.6214 23.047 18.8624 23.5461C19.0799 23.5916 19.3053 23.5823 19.5183 23.5191C19.7313 23.4559 19.9253 23.3407 20.0828 23.184L21.8129 21.4137L25.2864 24.8872L22.6042 27.5695C18.1566 27.455 13.913 25.68 10.7083 22.5939C7.6142 19.3879 5.83411 15.1387 5.7193 10.6846L8.40157 8.00234ZM27.1774 15.4993H29.8597C29.8945 13.9047 29.606 12.3195 29.0118 10.8394C28.4175 9.35924 27.5297 8.01474 26.4019 6.88692C25.274 5.75909 23.9295 4.87129 22.4494 4.27701C20.9692 3.68274 19.3841 3.3943 17.7895 3.42908V6.11135C19.0339 6.0683 20.2739 6.28168 21.4324 6.73824C22.5909 7.19479 23.6431 7.88475 24.5235 8.76523C25.404 9.64572 26.094 10.6979 26.5505 11.8564C27.0071 13.0148 27.2205 14.2548 27.1774 15.4993Z" fill="#DC7C7B"/>
<path d="M17.7894 11.4757C20.6058 11.4757 21.8128 12.6827 21.8128 15.4991H24.4951C24.4951 11.1807 22.1079 8.79346 17.7894 8.79346V11.4757Z" fill="#DC7C7B"/>
</svg>
