<svg width="100" height="100" viewBox="0 0 100 100" fill="none" xmlns="http://www.w3.org/2000/svg">
<path d="M50.012 0C22.4375 0 0 22.4248 0 49.9868C0 77.562 22.4353 100 50.012 100C77.5757 100 100 77.562 100 49.9868C100 22.4226 77.5757 0 50.012 0ZM13.6887 49.9868C13.6887 50.8584 12.9815 51.5655 12.11 51.5655C11.2385 51.5655 10.5314 50.8584 10.5314 49.9868C10.5314 28.2289 28.243 10.5264 50.0129 10.5264C50.8844 10.5264 51.5915 11.2336 51.5915 12.1051C51.5915 12.9766 50.8844 13.6837 50.0129 13.6837C29.9837 13.6846 13.6895 29.9696 13.6895 49.986L13.6887 49.9868ZM61.8773 58.2414L46.5524 68.7681C44.8274 69.9521 42.8765 70.5505 40.9108 70.5505C39.3236 70.5505 37.7262 70.1618 36.234 69.3742C32.8868 67.614 30.8911 64.306 30.8911 60.5255V39.4728C30.8911 35.6923 32.8875 32.3842 36.234 30.6241C39.5744 28.8622 43.4338 29.0899 46.5524 31.2302L61.8773 41.7569C64.5929 43.6215 66.2151 46.7034 66.2151 49.9994C66.2151 53.2945 64.5928 56.3766 61.8773 58.241V58.2414Z" fill="white"/>
</svg>
