<svg width="196" height="196" viewBox="0 0 196 196" fill="none" xmlns="http://www.w3.org/2000/svg">
<mask id="mask0_14_499" style="mask-type:alpha" maskUnits="userSpaceOnUse" x="0" y="0" width="196" height="196">
<path d="M98 196C152.124 196 196 152.124 196 98C196 43.8761 152.124 0 98 0C43.8761 0 0 43.8761 0 98C0 152.124 43.8761 196 98 196Z" fill="white"/>
</mask>
<g mask="url(#mask0_14_499)">
<path d="M98 196C152.124 196 196 152.124 196 98C196 43.8761 152.124 0 98 0C43.8761 0 0 43.8761 0 98C0 152.124 43.8761 196 98 196Z" fill="#D1629B"/>
<path d="M123.434 104.114C106.699 133.532 94.4711 147.192 86.7499 145.061C80.2862 142.965 70.3986 130.213 81.0199 111.905C73.6828 116.202 69.7352 118.543 69.2459 118.963C72.181 124.587 72.949 136.886 66.6256 146.319C60.267 155.752 48.4581 161.481 37.0335 158.303C33.3301 157.255 27.74 149.638 32.5615 138.947C36.7889 129.514 53.8385 120.64 58.2756 118.439L59.4984 117.74C50.5893 109.949 28.2292 99.3978 25.1198 83.2216C24.2463 78.6444 26.3775 67.7438 39.7936 55.2015C51.0086 44.7202 66.7303 36.5797 81.1945 31.4439C105.546 22.7793 131.225 27.9152 135.138 43.3925C138.981 58.6603 125.775 76.8627 108.831 83.4311C93.7024 89.2658 81.2294 88.3225 76.0587 86.6804C70.2589 84.7933 66.8002 80.9156 65.9616 78.7492C65.6474 77.9107 65.0882 76.4437 65.9616 75.9543C66.5209 75.6401 66.7303 75.7448 68.2328 77.352C69.6305 78.8894 75.2202 83.0116 85.9114 81.8239C113.861 78.6793 130.736 56.9483 125.391 45.2442C121.653 37.0688 100.131 33.3654 73.0893 46.7116C40.2128 63.0973 38.431 76.5834 38.1515 81.7192C37.3829 95.8336 55.5504 103.275 65.403 113.757L65.7522 114.176C66.9398 113.547 75.1504 108.726 90.3483 99.712C93.6325 97.0219 96.183 97.1964 98.0346 100.236C100.2 97.8604 101.214 96.0437 101.109 94.7856C100.899 92.934 105.511 97.371 105.022 105.267C104.533 113.163 101.249 110.717 101.458 118.718C95.8682 117.74 93.3875 114.316 94.0166 108.376C83.3958 125.007 82.1378 135.139 90.1738 138.842C93.3177 139.96 98.8382 133.881 106.839 120.605C107.607 119.27 108.388 117.942 109.18 116.622C114.35 107.992 122.072 95.7987 122.596 94.2619C123.33 92.1654 123.714 89.9996 124.063 89.0557C124.413 88.1124 127.487 87.4142 131.016 87.4491C134.544 87.4491 134.894 88.9859 134.929 89.3007C134.963 89.6498 133.217 93.8424 132.833 96.8124C132.483 99.7469 132.833 101.249 133.182 103.73C133.391 105.372 134.405 107.433 135.627 109.774C139.296 103.765 145.759 92.305 146.388 89.0912C146.754 87.3119 147.244 85.5608 147.855 83.8501C148.205 82.9068 151.244 82.2079 154.808 82.2429C158.302 82.2429 158.651 83.7802 158.721 84.0951C158.721 84.4442 157.009 88.6368 156.625 91.6062C156.24 94.5413 156.625 96.0437 156.974 98.5243C157.219 100.655 158.861 103.555 160.503 106.804C164.975 104.603 170.286 103.136 176.435 103.101C192.366 102.996 201.345 113.303 200.891 122.771C200.576 130.143 193.798 133.182 192.541 133.392C191.633 133.532 191.143 133.567 191.004 132.868C190.899 132.378 191.248 132.169 192.331 131.47C193.379 130.771 196.594 128.605 197.187 124.587C197.747 120.569 194.742 111.032 179.439 109.215C173.68 108.394 167.805 109.08 162.389 111.206C163.193 113.303 163.787 115.434 163.857 117.635C164.031 122.422 160.712 125.95 157.288 128.466C155.262 129.968 153.166 130.946 151.349 131.54C149.952 132.134 147.996 132.798 146.668 132.518C143.663 131.89 142.126 129.269 144.117 123.435C145.235 120.29 148.38 115.434 153.515 111.277C152.363 108.901 151.035 106.455 150.371 104.219C149.658 101.894 149.098 99.5246 148.694 97.1266C148.694 97.1266 144.501 105.861 139.051 113.757L138.108 115.119C139.156 117.565 140.029 120.22 140.134 122.876C140.255 125.004 139.827 127.127 138.891 129.042C137.955 130.957 136.542 132.599 134.789 133.811C133.09 135.054 131.218 136.043 129.234 136.746C127.177 137.595 124.992 138.091 122.77 138.213C121.093 138.318 119.416 138.213 118.473 137.514C117.18 136.536 117.04 135.348 117.704 133.706C118.299 132.309 122.456 127.557 125.95 123.365C126.963 122.212 127.871 121.024 128.675 119.871L130.352 117.67C129.059 114.875 127.452 112.045 126.684 109.424C125.356 104.987 124.972 102.332 124.972 102.332L123.434 104.114ZM58.4502 142.895C61.1604 140.092 63.0743 136.616 63.9955 132.828C64.9167 129.039 64.8114 125.073 63.6911 121.338L62.9224 121.828L62.5727 122.037L59.4285 123.923C55.1801 126.52 51.1802 129.502 47.4798 132.833C41.2609 138.668 39.9682 146.808 43.2524 148.73C46.2919 150.477 53.3843 148.38 58.4502 142.895ZM125.88 132.344C128.011 130.981 132.763 127.697 132.763 122.771V122.352C131.714 123.784 130.666 125.077 129.793 126.195C128.056 128.214 126.273 130.194 124.447 132.134C124.447 132.134 123.923 132.658 124.133 132.798C124.482 132.973 125.181 132.728 125.88 132.344ZM149.428 126.963C152.083 126.02 156.52 123.679 156.555 117.495C156.547 116.483 156.37 115.48 156.031 114.525C153.849 116.398 152.067 118.692 150.79 121.268C148.974 125.286 148.869 126.579 149.393 126.963H149.428Z" fill="white"/>
</g>
</svg>
