<svg width="196" height="196" viewBox="0 0 196 196" fill="none" xmlns="http://www.w3.org/2000/svg">
<g clip-path="url(#clip0_107_669)">
<path d="M92.6368 132.421H103.363V102.776H130.342V92.2357H103.363V62.5906H92.6368V92.2357H65.9834V102.776H92.6368V132.421Z" fill="#E8762D"/>
<path d="M42.9054 175.242H52.0065V148.891H76.0596V140.656H52.0065V113.975H42.9054V140.656H18.8523V148.891H42.9054V175.242Z" fill="#C72037"/>
<path d="M143.993 80.0483H153.095V53.6972H177.473V45.7918H153.095V19.1113H143.993V45.7918H119.94V53.6972H143.993V80.0483Z" fill="#5B879B"/>
<path d="M94.2621 195.993H102.063V177.218H118.64V170.301H102.063V151.526H94.2621V170.301H78.01V177.218H94.2621V195.993Z" fill="#5C6692"/>
<path d="M43.2304 80.0483H51.6815V53.3678H76.0596V45.7918H51.6815V19.1113H43.2304V45.7918H18.8523V53.3678H43.2304V80.0483Z" fill="#EB9129"/>
<path d="M171.622 119.575H179.423V101.129H196V93.8826H179.423V75.4368H171.622V93.8826H155.37V101.129H171.622V119.575Z" fill="#5C6692"/>
<path fill-rule="evenodd" clip-rule="evenodd" d="M143.993 175.242H153.095V148.891H177.473V140.656H153.095V113.975H143.993V140.656H119.94V148.891H143.993V175.242Z" fill="#1F457E"/>
<path d="M117.34 23.7227V18.1231H101.088V0.00665283H95.2371V18.1231H78.9851V23.7227H95.2371V41.8391H101.088V23.7227H117.34ZM16.2521 118.257H22.1028V100.141H38.3549V94.5414H22.1028V76.7544H16.2521V94.5414H0V100.47L16.2521 100.141V118.257Z" fill="#7199A6"/>
</g>
<defs>
<clipPath id="clip0_107_669">
<rect width="196" height="196" fill="white"/>
</clipPath>
</defs>
</svg>
