<svg width="18" height="17" viewBox="0 0 18 17" fill="none" xmlns="http://www.w3.org/2000/svg">
<rect x="17.1602" y="0.182617" width="16.6035" height="16.6035" rx="8.30173" transform="rotate(90 17.1602 0.182617)" fill="#232E45"/>
<path d="M12.3508 9.31435C12.675 8.99003 12.675 8.46439 12.3508 8.1403L7.0676 2.85903C6.7434 2.53495 6.21776 2.53514 5.89356 2.85946C5.56936 3.18378 5.56936 3.70941 5.89356 4.0335L10.5897 8.72797L5.89356 13.4258C5.56936 13.7502 5.56936 14.2758 5.89356 14.5999C6.21776 14.924 6.7434 14.9238 7.0676 14.5995L12.3508 9.31435ZM11.7637 9.55771L11.7638 9.55771L11.7638 7.89737L11.7637 7.89737L11.7637 9.55771Z" fill="white"/>
</svg>
