<svg width="196" height="196" viewBox="0 0 196 196" fill="none" xmlns="http://www.w3.org/2000/svg">
<path d="M0 170.727C0 184.686 11.3152 196 25.2725 196H170.727C184.686 196 196 184.685 196 170.727V25.2733C196 11.3136 184.685 0 170.727 0H25.2733C11.3136 0 0 11.3152 0 25.2725V170.727Z" fill="#563D7C"/>
<path d="M81.2774 86.6978V58.9416H105.709C108.037 58.9416 110.28 59.1353 112.441 59.5235C114.601 59.9109 116.513 60.603 118.175 61.6007C119.837 62.5983 121.166 63.9833 122.164 65.7557C123.161 67.5289 123.66 69.8005 123.66 72.5698C123.66 77.5563 122.164 81.1578 119.172 83.3735C116.181 85.59 112.358 86.6978 107.704 86.6978H81.2774ZM55.1826 38.6641V157.336H112.69C118.009 157.336 123.189 156.671 128.231 155.341C133.273 154.012 137.76 151.962 141.694 149.192C145.627 146.422 148.757 142.848 151.084 138.472C153.412 134.095 154.575 128.914 154.575 122.931C154.575 115.507 152.774 109.164 149.173 103.901C145.572 98.637 140.114 94.9528 132.801 92.8473C138.12 90.2993 142.137 87.0301 144.852 83.0412C147.566 79.0523 148.923 74.0666 148.923 68.0824C148.923 62.5424 148.009 57.8889 146.181 54.1213C144.353 50.3544 141.776 47.3348 138.452 45.0632C135.128 42.7915 131.14 41.1569 126.485 40.1601C121.832 39.1625 116.679 38.6641 111.028 38.6641H55.1826ZM81.2774 137.058V104.482H109.698C115.349 104.482 119.892 105.783 123.328 108.388C126.762 110.992 128.48 115.341 128.48 121.435C128.48 124.538 127.954 127.086 126.901 129.081C125.848 131.075 124.436 132.654 122.663 133.817C120.89 134.981 118.84 135.812 116.513 136.311C114.186 136.809 111.749 137.058 109.2 137.058H81.2774Z" fill="white"/>
</svg>
