<svg width="197" height="197" viewBox="0 0 197 197" fill="none" xmlns="http://www.w3.org/2000/svg">
<path d="M164.19 24.9082H33.0732C24.0343 24.9082 16.6836 32.2589 16.6836 41.2978V156.025C16.6836 165.064 24.0343 172.415 33.0732 172.415H164.19C173.229 172.415 180.58 165.064 180.58 156.025V41.2978C180.58 32.2589 173.229 24.9082 164.19 24.9082ZM33.0732 156.025V57.6874H164.19L164.206 156.025H33.0732Z" fill="#DC7C7B"/>
<path d="M76.448 76.4785L46.0698 106.857L76.448 137.235L88.0354 125.647L69.2447 106.857L88.0354 88.066L76.448 76.4785ZM120.815 76.4785L109.227 88.066L128.018 106.857L109.227 125.647L120.815 137.235L151.193 106.857L120.815 76.4785Z" fill="#DC7C7B"/>
</svg>
