<svg width="33" height="27" viewBox="0 0 33 27" fill="none" xmlns="http://www.w3.org/2000/svg">
<path d="M29.5485 0.254883H3.29337C1.4834 0.254883 0.0114746 1.72681 0.0114746 3.53678V23.2281C0.0114746 25.0381 1.4834 26.51 3.29337 26.51H29.5485C31.3585 26.51 32.8304 25.0381 32.8304 23.2281V3.53678C32.8304 1.72681 31.3585 0.254883 29.5485 0.254883ZM29.5485 3.53678V4.3753L16.4209 14.5869L3.29337 4.37694V3.53678H29.5485ZM3.29337 23.2281V8.53182L15.4134 17.9591C15.7007 18.1848 16.0555 18.3074 16.4209 18.3074C16.7863 18.3074 17.1411 18.1848 17.4285 17.9591L29.5485 8.53182L29.5518 23.2281H3.29337Z" fill="#DC7C7B"/>
</svg>
