<svg width="196" height="196" viewBox="0 0 196 196" fill="none" xmlns="http://www.w3.org/2000/svg">
<path d="M189.016 63.2867C187.85 60.4604 186.535 57.6917 185.071 54.9807C184.244 53.4421 183.37 51.9239 182.448 50.4261C178.47 43.9805 173.62 37.8941 167.9 32.167C149.16 13.4268 126.536 4.05664 100.028 4.05664C73.5277 4.05664 50.9073 13.4268 32.167 32.167C13.4268 50.9073 4.05664 73.5277 4.05664 100.028C4.05664 126.536 13.4268 149.16 32.167 167.9C50.9073 186.633 73.5277 196 100.028 196C126.536 196 149.16 186.633 167.9 167.9C178.222 157.571 185.701 146.066 190.337 133.385C194.113 123.049 196 111.93 196 100.028C196 90.8989 194.889 82.2269 192.666 74.0123C192.415 73.0838 192.15 72.162 191.873 71.2471C191.039 68.5428 190.087 65.8893 189.016 63.2867Z" fill="black" fill-opacity="0.0980392"/>
<path d="M189.036 71.5722C188.799 70.6436 188.551 69.7219 188.294 68.8069C188.087 68.0904 187.87 67.3754 187.643 66.6618C187.308 65.5845 186.952 64.5137 186.576 63.4491C185.254 59.7146 183.685 56.0784 181.869 52.5405C181.082 51.002 180.249 49.4838 179.368 47.9859C175.213 40.9371 170.038 34.3119 163.843 28.1104C149.068 13.3351 131.876 4.38515 112.269 1.26065C108.948 0.731988 105.555 0.369383 102.092 0.17283C100.072 0.0576099 98.0322 0 95.9718 0C94.0605 0 92.1695 0.0508325 90.2989 0.152498C66.2314 1.39959 45.5019 10.7189 28.1104 28.1104C9.37012 46.8506 0 69.4711 0 95.9718C0 122.479 9.37012 145.103 28.1104 163.843C39.6039 175.332 52.5561 183.3 66.9667 187.745C74.3596 190.024 82.1369 191.376 90.2989 191.801C90.326 191.801 90.3531 191.801 90.3802 191.801C92.0272 191.883 93.6877 191.93 95.3618 191.944C95.5651 191.944 95.7684 191.944 95.9718 191.944C98.039 191.944 100.079 191.889 102.092 191.781C102.566 191.754 103.037 191.723 103.505 191.689C107.579 191.398 111.557 190.876 115.441 190.124C117.04 189.812 118.626 189.463 120.199 189.077C136.546 185.003 151.095 176.592 163.843 163.843C173.725 153.955 181.001 142.988 185.671 130.945C189.432 121.239 191.503 110.835 191.883 99.7334C191.923 98.4863 191.944 97.2324 191.944 95.9718C191.944 95.8362 191.944 95.7007 191.944 95.5651C191.944 95.4974 191.944 95.4296 191.944 95.3618C191.896 87.0524 190.927 79.1225 189.036 71.5722Z" fill="#1D1D1D"/>
<path d="M191.811 101.441L130.334 40.0254C106.461 58.2534 88.7776 78.9422 77.2853 102.092H82.1652V123.248H68.7251C65.7008 132.753 63.5997 142.624 62.4219 152.863L101.116 191.832C101.441 191.815 101.766 191.798 102.092 191.781C102.566 191.754 103.037 191.723 103.505 191.689C107.578 191.398 111.557 190.876 115.44 190.124C117.04 189.812 118.626 189.463 120.198 189.076C136.546 185.003 151.094 176.592 163.843 163.843C173.725 153.955 181.001 142.988 185.67 130.944C189.239 121.738 191.285 111.903 191.811 101.441Z" fill="black" fill-opacity="0.2"/>
<path d="M94.5688 145.224C95.6425 142.685 96.1793 140.027 96.1793 137.25V116.761H75.6902C72.9134 116.761 70.2555 117.298 67.7164 118.371C65.2658 119.409 63.0955 120.873 61.2055 122.765C59.3139 124.655 57.8493 126.825 56.8117 129.276C55.738 131.815 55.2012 134.473 55.2012 137.25C55.2012 140.027 55.738 142.685 56.8117 145.224C57.8493 147.674 59.3139 149.845 61.2055 151.737C63.0955 153.627 65.2658 155.091 67.7164 156.128C70.2539 157.202 72.9118 157.739 75.6902 157.739C78.467 157.739 81.125 157.202 83.6641 156.128C86.1147 155.091 88.2858 153.627 90.1774 151.737C92.0674 149.845 93.5312 147.674 94.5688 145.224Z" fill="#0ACF83"/>
<path d="M67.7164 77.3908C65.2658 78.4284 63.0955 79.893 61.2055 81.7846C59.3139 83.6746 57.8493 85.8449 56.8117 88.2955C55.738 90.8346 55.2012 93.4926 55.2012 96.2693C55.2012 99.0461 55.738 101.704 56.8117 104.243C57.8493 106.694 59.3139 108.865 61.2055 110.757C63.0955 112.648 65.2658 114.113 67.7164 115.15C70.2555 116.224 72.9134 116.761 75.6902 116.761H96.1793V75.7803H75.6902C72.9134 75.7803 70.2555 76.3171 67.7164 77.3908Z" fill="#A259FF"/>
<path d="M67.7164 36.4103C65.2658 37.4479 63.0955 38.9125 61.2055 40.8042C59.3139 42.6958 57.8493 44.8669 56.8117 47.3175C55.738 49.8566 55.2012 52.5145 55.2012 55.2913C55.2012 58.0681 55.738 60.7261 56.8117 63.2652C57.8493 65.7158 59.3139 67.8869 61.2055 69.7785C63.0955 71.6685 65.2658 73.1323 67.7164 74.1699C70.2539 75.2436 72.9118 75.7804 75.6902 75.7804H96.1793V34.7998H75.6902C72.9134 34.7998 70.2555 35.3366 67.7164 36.4103Z" fill="#F24E1E"/>
<path d="M131.158 40.8042C129.267 38.9125 127.096 37.4479 124.645 36.4103C122.106 35.3366 119.448 34.7998 116.671 34.7998H96.1797V75.7804H116.671C119.448 75.7804 122.106 75.2436 124.645 74.1699C127.096 73.1323 129.267 71.6685 131.158 69.7785C133.048 67.8869 134.512 65.7158 135.55 63.2652C136.623 60.7261 137.16 58.0681 137.16 55.2913C137.16 52.5129 136.623 49.855 135.55 47.3175C134.512 44.8669 133.048 42.6958 131.158 40.8042Z" fill="#FF7262"/>
<path d="M131.158 81.7846C129.267 79.893 127.096 78.4284 124.645 77.3908C122.106 76.3171 119.448 75.7803 116.671 75.7803C113.894 75.7803 111.236 76.3171 108.697 77.3908C106.247 78.4284 104.076 79.893 102.184 81.7846C100.292 83.6746 98.8278 85.8449 97.7902 88.2955C96.7165 90.8346 96.1797 93.4926 96.1797 96.2693C96.1797 99.0461 96.7165 101.704 97.7902 104.243C98.8278 106.694 100.292 108.865 102.184 110.757C104.076 112.648 106.247 114.113 108.697 115.15C111.236 116.224 113.894 116.761 116.671 116.761C119.448 116.761 122.106 116.224 124.645 115.15C127.096 114.113 129.267 112.648 131.158 110.757C133.048 108.865 134.512 106.694 135.55 104.243C136.623 101.704 137.16 99.0461 137.16 96.2693C137.16 93.4909 136.623 90.833 135.55 88.2955C134.512 85.8449 133.048 83.6746 131.158 81.7846Z" fill="#1ABCFE"/>
</svg>
