<svg width="100" height="100" viewBox="0 0 100 100" fill="none" xmlns="http://www.w3.org/2000/svg">
<path fill-rule="evenodd" clip-rule="evenodd" d="M50 0C22.3832 0 0 22.9498 0 51.2656C0 73.9122 14.3222 93.1303 34.1939 99.9151C36.6954 100.378 37.5978 98.7997 37.5978 97.4428C37.5978 96.2246 37.5577 92.9967 37.5426 88.7254C23.6314 91.8197 20.6938 81.8482 20.6938 81.8482C18.4279 75.927 15.1444 74.3491 15.1444 74.3491C10.6076 71.1674 15.4903 71.2394 15.4903 71.2394C20.5133 71.5992 23.1452 76.5232 23.1452 76.5232C27.6068 84.3565 34.8556 82.0949 37.693 80.7842C38.1492 77.469 39.4526 75.2074 40.8763 73.9276C29.7774 72.6375 18.1071 68.2377 18.1071 48.5877C18.1071 43.0006 20.0571 38.4158 23.2404 34.8384C22.7341 33.538 21.0046 28.321 23.7367 21.269C23.7367 21.269 27.9326 19.8864 37.4825 26.5169C41.561 25.3793 45.7682 24.7986 49.995 24.7899C54.2219 24.7969 58.4293 25.3776 62.5075 26.5169C72.0624 19.8812 76.2533 21.269 76.2533 21.269C78.9854 28.321 77.2709 33.538 76.7495 34.8384C79.9579 38.4158 81.8829 42.9955 81.8829 48.5877C81.8829 68.2891 70.2025 72.6169 59.0636 73.8865C60.8432 75.4696 62.4474 78.5946 62.4474 83.3748C62.4474 90.2314 62.3872 95.762 62.3872 97.4428C62.3872 98.8151 63.2795 100.408 65.8312 99.9048C85.6928 93.1098 100 73.907 100 51.2656C100 22.9498 77.6168 0 50 0Z" fill="#DC7C7B"/>
</svg>
