<svg width="100" height="100" viewBox="0 0 100 100" fill="none" xmlns="http://www.w3.org/2000/svg">
<path d="M94.4444 0H5.55556C4.08213 0 2.66905 0.585316 1.62718 1.62718C0.585316 2.66905 0 4.08213 0 5.55556V94.4444C0 95.9179 0.585316 97.3309 1.62718 98.3728C2.66905 99.4147 4.08213 100 5.55556 100H94.4444C95.9179 100 97.3309 99.4147 98.3728 98.3728C99.4147 97.3309 100 95.9179 100 94.4444V5.55556C100 4.08213 99.4147 2.66905 98.3728 1.62718C97.3309 0.585316 95.9179 0 94.4444 0ZM29.6611 85.2056H14.8167V37.4833H29.6611V85.2056ZM22.2389 30.9667C19.958 30.9667 17.7706 30.0606 16.1578 28.4478C14.545 26.835 13.6389 24.6475 13.6389 22.3667C13.6389 20.0858 14.545 17.8984 16.1578 16.2855C17.7706 14.6727 19.958 13.7667 22.2389 13.7667C24.5197 13.7667 26.7072 14.6727 28.32 16.2855C29.9328 17.8984 30.8389 20.0858 30.8389 22.3667C30.8389 24.6475 29.9328 26.835 28.32 28.4478C26.7072 30.0606 24.5197 30.9667 22.2389 30.9667ZM85.2111 85.2056H70.3833V62C70.3833 56.4667 70.2833 49.35 62.6722 49.35C54.95 49.35 53.7778 55.3833 53.7778 61.6111V85.2111H38.9611V37.4889H53.1833V44.0111H53.3889C55.3611 40.2611 60.2056 36.3056 67.4111 36.3056C82.4333 36.3056 85.2056 46.1833 85.2056 59.0389L85.2111 85.2056Z" fill="#DC7C7B"/>
</svg>
