<svg width="197" height="197" viewBox="0 0 197 197" fill="none" xmlns="http://www.w3.org/2000/svg">
<path d="M98.4238 180.61C107.476 180.61 114.813 173.272 114.813 164.221C114.813 155.169 107.476 147.831 98.4238 147.831C89.3721 147.831 82.0342 155.169 82.0342 164.221C82.0342 173.272 89.3721 180.61 98.4238 180.61Z" fill="#DC7C7B"/>
<path d="M98.4238 49.4931C107.476 49.4931 114.813 42.1552 114.813 33.1035C114.813 24.0517 107.476 16.7139 98.4238 16.7139C89.3721 16.7139 82.0342 24.0517 82.0342 33.1035C82.0342 42.1552 89.3721 49.4931 98.4238 49.4931Z" fill="#DC7C7B"/>
<path d="M52.0639 161.409C61.1157 161.409 68.4535 154.071 68.4535 145.019C68.4535 135.968 61.1157 128.63 52.0639 128.63C43.0122 128.63 35.6743 135.968 35.6743 145.019C35.6743 154.071 43.0122 161.409 52.0639 161.409Z" fill="#DC7C7B"/>
<path d="M144.784 68.6933C153.835 68.6933 161.173 61.3554 161.173 52.3037C161.173 43.2519 153.835 35.9141 144.784 35.9141C135.732 35.9141 128.394 43.2519 128.394 52.3037C128.394 61.3554 135.732 68.6933 144.784 68.6933Z" fill="#DC7C7B"/>
<path d="M32.8656 115.06C41.9218 115.06 49.2634 107.719 49.2634 98.6625C49.2634 89.6062 41.9218 82.2646 32.8656 82.2646C23.8093 82.2646 16.4678 89.6062 16.4678 98.6625C16.4678 107.719 23.8093 115.06 32.8656 115.06Z" fill="#DC7C7B"/>
<path d="M163.982 115.052C173.034 115.052 180.372 107.714 180.372 98.6621C180.372 89.6103 173.034 82.2725 163.982 82.2725C154.931 82.2725 147.593 89.6103 147.593 98.6621C147.593 107.714 154.931 115.052 163.982 115.052Z" fill="#DC7C7B"/>
<path d="M52.0639 68.7021C61.1157 68.7021 68.4535 61.3642 68.4535 52.3125C68.4535 43.2607 61.1157 35.9229 52.0639 35.9229C43.0122 35.9229 35.6743 43.2607 35.6743 52.3125C35.6743 61.3642 43.0122 68.7021 52.0639 68.7021Z" fill="#DC7C7B"/>
<path d="M144.784 161.417C153.835 161.417 161.173 154.079 161.173 145.027C161.173 135.976 153.835 128.638 144.784 128.638C135.732 128.638 128.394 135.976 128.394 145.027C128.394 154.079 135.732 161.417 144.784 161.417Z" fill="#DC7C7B"/>
</svg>
