<svg width="142" height="142" viewBox="0 0 142 142" fill="none" xmlns="http://www.w3.org/2000/svg">
<path d="M79.2834 12.4015C69.5276 11.0662 59.593 12.1672 50.3663 15.6062C41.1396 19.0451 32.908 24.7151 26.4061 32.11C20.8415 38.5188 16.7127 46.0442 14.2972 54.1807C11.8816 62.3173 11.2352 70.8765 12.4014 79.2835C15.5372 102.323 32.8612 121.925 55.5043 128.072C60.552 129.454 65.7608 130.158 70.9941 130.167L71.8343 130.161C74.8254 130.122 77.7584 129.329 80.3608 127.854C82.9633 126.379 85.1509 124.27 86.7206 121.724C88.2956 119.191 89.2045 116.301 89.3628 113.323C89.521 110.345 88.9235 107.375 87.6259 104.69L86.4484 102.228C85.5428 100.459 85.1176 98.483 85.2152 96.4977C85.3128 94.5125 85.9298 92.5877 87.0046 90.9157C88.5425 88.4176 90.9517 86.5783 93.7668 85.7532C96.5819 84.9281 99.6029 85.1759 102.246 86.4486L104.684 87.6142C107.121 88.7857 109.713 89.3833 112.381 89.3833C117.051 89.3593 121.526 87.5093 124.85 84.2288C128.173 80.9483 130.082 76.4977 130.167 71.8285C130.24 66.3142 129.537 60.8169 128.078 55.4985C121.925 32.8614 102.323 15.5374 79.2834 12.4015ZM109.802 76.9465L107.364 75.7809C96.5482 70.586 83.283 74.6094 76.9818 84.6204C72.6153 91.5784 72.1715 99.8617 75.7748 107.352L76.9522 109.814C77.3935 110.708 77.5975 111.7 77.5447 112.696C77.4919 113.692 77.1839 114.657 76.6504 115.499C76.1305 116.36 75.3982 117.073 74.5238 117.569C73.6494 118.065 72.6622 118.328 71.6568 118.334H70.9941C66.8067 118.322 62.6391 117.759 58.5987 116.659C40.4759 111.742 26.6309 96.075 24.1282 77.692C22.2289 63.7582 26.2109 50.3392 35.3284 39.8904C40.5158 33.9396 47.1088 29.3803 54.5077 26.6274C61.9065 23.8746 69.8762 23.0155 77.6918 24.1284C96.0749 26.6311 111.742 40.482 116.659 58.5989C117.83 62.918 118.393 67.32 118.327 71.657C118.256 76.4317 113.328 78.6564 109.802 76.9465Z" fill="url(#paint0_linear_97_325)"/>
<path d="M44.3751 94.6667C49.2766 94.6667 53.2501 90.6933 53.2501 85.7917C53.2501 80.8902 49.2766 76.9167 44.3751 76.9167C39.4735 76.9167 35.5001 80.8902 35.5001 85.7917C35.5001 90.6933 39.4735 94.6667 44.3751 94.6667Z" fill="url(#paint1_linear_97_325)"/>
<path d="M44.3751 71C49.2766 71 53.2501 67.0265 53.2501 62.125C53.2501 57.2235 49.2766 53.25 44.3751 53.25C39.4735 53.25 35.5001 57.2235 35.5001 62.125C35.5001 67.0265 39.4735 71 44.3751 71Z" fill="url(#paint2_linear_97_325)"/>
<path d="M62.1251 53.25C67.0266 53.25 71.0001 49.2765 71.0001 44.375C71.0001 39.4735 67.0266 35.5 62.1251 35.5C57.2235 35.5 53.2501 39.4735 53.2501 44.375C53.2501 49.2765 57.2235 53.25 62.1251 53.25Z" fill="url(#paint3_linear_97_325)"/>
<path d="M85.7917 53.25C90.6932 53.25 94.6667 49.2765 94.6667 44.375C94.6667 39.4735 90.6932 35.5 85.7917 35.5C80.8902 35.5 76.9167 39.4735 76.9167 44.375C76.9167 49.2765 80.8902 53.25 85.7917 53.25Z" fill="url(#paint4_linear_97_325)"/>
<defs>
<linearGradient id="paint0_linear_97_325" x1="71.0046" y1="11.8506" x2="71.0046" y2="130.167" gradientUnits="userSpaceOnUse">
<stop stop-color="#928BE8"/>
<stop offset="1" stop-color="#80D9EA"/>
</linearGradient>
<linearGradient id="paint1_linear_97_325" x1="44.3751" y1="76.9167" x2="44.3751" y2="94.6667" gradientUnits="userSpaceOnUse">
<stop stop-color="#928BE8"/>
<stop offset="1" stop-color="#80D9EA"/>
</linearGradient>
<linearGradient id="paint2_linear_97_325" x1="44.3751" y1="53.25" x2="44.3751" y2="71" gradientUnits="userSpaceOnUse">
<stop stop-color="#928BE8"/>
<stop offset="1" stop-color="#80D9EA"/>
</linearGradient>
<linearGradient id="paint3_linear_97_325" x1="62.1251" y1="35.5" x2="62.1251" y2="53.25" gradientUnits="userSpaceOnUse">
<stop stop-color="#928BE8"/>
<stop offset="1" stop-color="#80D9EA"/>
</linearGradient>
<linearGradient id="paint4_linear_97_325" x1="85.7917" y1="35.5" x2="85.7917" y2="53.25" gradientUnits="userSpaceOnUse">
<stop stop-color="#928BE8"/>
<stop offset="1" stop-color="#80D9EA"/>
</linearGradient>
</defs>
</svg>
