<svg width="148" height="148" viewBox="0 0 148 148" fill="none" xmlns="http://www.w3.org/2000/svg">
<path d="M101.841 135.215C103.474 135.225 105.092 134.909 106.601 134.286C108.11 133.664 109.48 132.747 110.63 131.589L127.286 114.933C128.431 113.781 129.074 112.224 129.074 110.6C129.074 108.976 128.431 107.419 127.286 106.267L102.702 81.6826C101.55 80.5379 99.9926 79.8954 98.3689 79.8954C96.7452 79.8954 95.1874 80.5379 94.0359 81.6826L84.2021 91.4549C77.3938 89.6396 71.0882 86.2977 65.7638 81.6826C61.1611 76.3497 57.8207 70.0471 55.9915 63.2443L65.7638 53.4105C66.9085 52.259 67.551 50.7012 67.551 49.0775C67.551 47.4538 66.9085 45.8961 65.7638 44.7445L41.1794 20.1601C40.0278 19.0154 38.4701 18.3729 36.8464 18.3729C35.2227 18.3729 33.6649 19.0154 32.5134 20.1601L15.9189 36.8775C14.7612 38.0283 13.8442 39.3982 13.2216 40.9072C12.5991 42.4162 12.2833 44.0341 12.2927 45.6664C12.8503 69.2816 22.2867 91.8193 38.7209 108.787C55.6886 125.221 78.2263 134.658 101.841 135.215ZM36.8771 33.2513L52.7955 49.1697L44.867 57.0982C44.1161 57.8016 43.5538 58.6823 43.2316 59.6594C42.9095 60.6366 42.8378 61.6791 43.0232 62.6911C45.3204 72.9574 50.1841 82.4733 57.1592 90.3486C65.0285 97.3327 74.5468 102.198 84.8167 104.485C85.8135 104.693 86.8464 104.65 87.8226 104.361C88.7989 104.071 89.6878 103.543 90.4097 102.825L98.3381 94.7123L114.257 110.631L101.964 122.923C81.5822 122.398 62.1345 114.264 47.4484 100.121C33.2688 85.4287 25.1111 65.9554 24.5849 45.5435L36.8771 33.2513ZM122.923 67.608H135.215C135.374 60.3003 134.052 53.036 131.329 46.2528C128.605 39.4697 124.537 33.3081 119.368 28.1396C114.2 22.971 108.038 18.9024 101.255 16.179C94.4719 13.4556 87.2075 12.1337 79.8998 12.2931V24.5853C85.6028 24.388 91.2855 25.3659 96.5945 27.4582C101.903 29.5505 106.725 32.7124 110.76 36.7475C114.795 40.7825 117.957 45.6044 120.05 50.9134C122.142 56.2224 123.12 61.905 122.923 67.608Z" fill="url(#paint0_linear_1_926)"/>
<path d="M79.8994 49.1689C92.8062 49.1689 98.3377 54.7003 98.3377 67.6072H110.63C110.63 47.8167 99.6899 36.8766 79.8994 36.8766V49.1689Z" fill="url(#paint1_linear_1_926)"/>
<defs>
<linearGradient id="paint0_linear_1_926" x1="73.7601" y1="12.2802" x2="73.7601" y2="135.215" gradientUnits="userSpaceOnUse">
<stop stop-color="#928BE8"/>
<stop offset="1" stop-color="#80D9EA"/>
</linearGradient>
<linearGradient id="paint1_linear_1_926" x1="95.2647" y1="36.8766" x2="95.2647" y2="67.6072" gradientUnits="userSpaceOnUse">
<stop stop-color="#928BE8"/>
<stop offset="1" stop-color="#80D9EA"/>
</linearGradient>
</defs>
</svg>
