<svg width="196" height="196" viewBox="0 0 196 196" fill="none" xmlns="http://www.w3.org/2000/svg">
<path d="M98 196C152.124 196 196 152.124 196 98C196 43.8762 152.124 0 98 0C43.8761 0 0 43.8762 0 98C0 152.124 43.8761 196 98 196Z" fill="#5C86B7"/>
<path fill-rule="evenodd" clip-rule="evenodd" d="M39.961 125.463L48.8781 81.9092H69.4834C78.4004 82.4579 82.8452 86.7517 82.8452 94.2827C82.8452 107.177 72.2682 114.681 62.8024 114.174H52.7604L50.5243 125.477H39.9336M54.9966 106.121L57.7814 89.9892H65.0248C68.9346 89.9892 71.7058 91.6079 71.7058 94.8316C71.1433 103.968 66.6985 105.586 61.6912 106.121" fill="white"/>
<path d="M79.5225 114.16L88.4395 70.6191H99.0165L96.7941 81.895H106.822C115.739 82.4437 119.087 86.7378 117.962 92.1151L114.066 114.16H102.913L106.822 94.2686C107.371 91.5799 107.371 89.9613 103.461 89.9613H95.1205L90.0995 114.146H79.5362" fill="white"/>
<path fill-rule="evenodd" clip-rule="evenodd" d="M113.173 125.463L122.09 81.9092H142.723C151.64 82.4579 156.084 86.7517 156.084 94.2827C156.084 107.177 145.494 114.681 136.014 114.174H125.986L123.764 125.477M128.222 106.121L131.007 89.9892H138.25C142.146 89.9892 144.931 91.6079 144.931 94.8316C144.383 103.968 139.924 105.586 134.889 106.121" fill="white"/>
</svg>
