<svg width="197" height="197" viewBox="0 0 197 197" fill="none" xmlns="http://www.w3.org/2000/svg">
<path d="M50.8031 26.6337C50.8031 13.1397 54.4271 5.79884 74.4357 2.30325C88.0198 -0.0740218 105.437 -0.371181 121.684 2.30325C134.516 4.41804 145.316 13.9618 145.316 26.6337V71.1531C145.316 84.2103 134.831 94.9061 121.684 94.9061H74.4357C58.4002 94.9061 44.8855 108.558 44.8855 123.991V145.351H28.6397C14.8979 145.351 6.89704 135.457 3.53598 121.614C-0.997676 103.016 -0.805218 91.9345 3.53598 74.1227C7.29981 58.5843 19.3264 50.3856 33.0693 50.3856H98.0682V44.4425H50.8021V26.6327L50.8031 26.6337Z" fill="url(#paint0_linear_14_502)"/>
<path d="M145.318 169.105C145.318 182.599 133.589 189.434 121.685 192.842C103.777 197.981 89.4038 197.194 74.4368 192.842C61.937 189.207 50.8042 181.778 50.8042 169.105V124.585C50.8042 111.773 61.5005 100.833 74.4368 100.833H121.685C137.423 100.833 151.235 87.2523 151.235 71.1532V50.3877H168.951C182.711 50.3877 189.189 60.5951 192.584 74.1248C197.31 92.9152 197.52 106.968 192.584 121.616C187.805 135.844 182.693 145.353 168.951 145.353H98.0694V151.296H145.318V169.105Z" fill="url(#paint1_linear_14_502)"/>
<path d="M62.6196 23.6794C62.6196 18.7505 66.5759 14.7646 71.4786 14.7646C76.3625 14.7646 80.3376 18.7496 80.3376 23.6794C80.3376 28.5925 76.3635 32.5764 71.4786 32.5764C66.5779 32.5764 62.6196 28.5915 62.6196 23.6794ZM115.783 172.059C115.783 167.146 119.758 163.162 124.642 163.162C129.543 163.162 133.501 167.147 133.501 172.059C133.501 176.988 129.545 180.974 124.642 180.974C119.759 180.974 115.783 176.989 115.783 172.059Z" fill="white"/>
<defs>
<linearGradient id="paint0_linear_14_502" x1="145.317" y1="56.7538" x2="0.208678" y2="55.5983" gradientUnits="userSpaceOnUse">
<stop stop-color="#366A96"/>
<stop offset="1" stop-color="#3679B0"/>
</linearGradient>
<linearGradient id="paint1_linear_14_502" x1="196.207" y1="123.398" x2="-91.0389" y2="123.398" gradientUnits="userSpaceOnUse">
<stop stop-color="#FFC836"/>
<stop offset="1" stop-color="#FFE873"/>
</linearGradient>
</defs>
</svg>
