<svg width="196" height="196" viewBox="0 0 196 196" fill="none" xmlns="http://www.w3.org/2000/svg">
<path fill-rule="evenodd" clip-rule="evenodd" d="M98 170.222C43.8747 170.222 0 132.116 0 85.1112C0 38.1061 43.876 0 98 0C152.124 0 196 38.1061 196 85.1112C196 132.116 152.124 170.222 98 170.222ZM113.001 33.2761C71.8621 33.2761 38.5128 59.3271 38.5128 91.4617C38.5128 123.596 71.8633 149.647 113.001 149.647C154.139 149.647 184.498 131.836 184.498 91.4617C184.498 51.0996 154.139 33.2761 113.001 33.2761Z" fill="url(#paint0_linear_107_679)"/>
<path fill-rule="evenodd" clip-rule="evenodd" d="M149.249 131.827C149.249 131.827 155.179 134.148 158.626 136.409C159.822 137.193 161.891 138.759 163.383 140.816C164.845 142.83 165.558 144.869 165.558 144.869L188.934 195.978L151.152 196L133.484 152.992C133.484 152.992 129.867 144.931 127.64 142.593C125.784 140.643 124.992 139.951 123.155 139.951H114.179L114.187 195.984L80.7549 196V52.8649H147.887C147.887 52.8649 178.466 53.5795 178.466 91.3067C178.466 129.034 149.246 131.841 149.246 131.841L149.249 131.827ZM134.708 83.8978L114.468 83.8818L114.458 108.221L134.708 108.211C134.708 108.211 144.085 108.173 144.085 95.8298C144.085 83.2391 134.708 83.8978 134.708 83.8978Z" fill="url(#paint1_linear_107_679)"/>
<defs>
<linearGradient id="paint0_linear_107_679" x1="6.41227e-06" y1="-104.641" x2="272.154" y2="208.726" gradientUnits="userSpaceOnUse">
<stop stop-color="#CBCED0"/>
<stop offset="1" stop-color="#84838B"/>
</linearGradient>
<linearGradient id="paint1_linear_107_679" x1="80.7524" y1="52.8505" x2="217.13" y2="160.163" gradientUnits="userSpaceOnUse">
<stop stop-color="#276DC3"/>
<stop offset="1" stop-color="#165CAA"/>
</linearGradient>
</defs>
</svg>
