<svg width="196" height="196" viewBox="0 0 196 196" fill="none" xmlns="http://www.w3.org/2000/svg">
<path d="M98 113.153C106.457 113.153 113.312 106.298 113.312 97.8408C113.312 89.3839 106.457 82.5283 98 82.5283C89.5431 82.5283 82.6875 89.3839 82.6875 97.8408C82.6875 106.298 89.5431 113.153 98 113.153Z" fill="#00D8FF"/>
<path d="M98 132.949C79.5952 133.394 61.2365 130.914 43.61 125.599C35.4676 123.018 27.8732 118.952 21.2109 113.606C18.6686 111.78 16.5514 109.426 15.0047 106.705C13.4579 103.983 12.5182 100.959 12.25 97.8407C12.25 87.7161 23.373 77.7936 42.0052 71.3011C60.103 65.5482 79.012 62.76 98 63.0446C116.735 62.7829 135.39 65.5206 153.26 71.1541C161.102 73.6541 168.438 77.5236 174.93 82.5834C177.429 84.3243 179.514 86.5935 181.038 89.2302C182.563 91.8669 183.488 94.8065 183.75 97.8407C183.75 108.363 171.316 119.027 151.288 125.654C134.002 130.796 116.031 133.256 98 132.949ZM98 70.3701C79.8339 70.1273 61.7451 72.7779 44.4124 78.2224C27.2624 84.2065 19.5755 92.3895 19.5755 97.8224C19.5755 103.506 27.8381 112.443 45.9804 118.647C62.8429 123.706 80.4005 126.06 98 125.624C115.25 125.932 132.447 123.598 148.991 118.702C167.825 112.461 176.4 103.512 176.4 97.8407C176.091 95.8944 175.382 94.0333 174.317 92.3749C173.252 90.7166 171.855 89.2971 170.214 88.2061C164.406 83.7174 157.852 80.288 150.853 78.0754C133.758 72.7084 115.915 70.1072 98 70.3701Z" fill="#00D8FF"/>
<path d="M63.2101 174.213C60.3527 174.279 57.5291 173.586 55.0271 172.204C46.2561 167.145 43.2181 152.555 46.8992 133.17C50.9579 114.618 57.9903 96.8442 67.7242 80.5376C76.8549 64.1784 88.5442 49.3854 102.349 36.7194C108.432 31.1745 115.449 26.7512 123.076 23.6548C125.834 22.362 128.843 21.6919 131.89 21.6919C134.936 21.6919 137.945 22.362 140.704 23.6548C149.824 28.91 152.843 45.0065 148.586 65.6661C144.402 83.2116 137.553 100.012 128.276 115.481C119.467 131.647 108.145 146.311 94.7354 158.925C88.4315 164.688 81.1155 169.233 73.1571 172.333C69.9709 173.516 66.608 174.151 63.2101 174.213ZM74.0697 84.1759C64.7848 99.7905 58.0446 116.784 54.1022 134.517C50.7151 152.372 53.9674 163.109 58.6959 165.841C63.5959 168.676 75.4907 165.988 89.9334 153.37C102.735 141.285 113.541 127.248 121.949 111.781C130.836 96.9926 137.406 80.9305 141.432 64.1533C145.438 44.7064 141.978 32.7994 137.065 29.9696C135.224 29.2642 133.257 28.9484 131.287 29.0423C129.318 29.1361 127.389 29.6375 125.624 30.5148C118.835 33.316 112.594 37.2929 107.188 42.2625C93.9984 54.3948 82.8326 68.5568 74.1126 84.2126L74.0697 84.1759Z" fill="#00D8FF"/>
<path d="M132.772 174.293C124.472 174.293 113.931 169.27 102.955 159.832C88.9088 147.051 77.0219 132.082 67.7549 115.505C58.1431 99.4232 51.1664 81.9068 47.0892 63.6204C45.3209 55.5751 44.9933 47.28 46.1214 39.1204C46.3822 36.0934 47.3039 33.1606 48.8215 30.5286C50.3391 27.8966 52.4156 25.6296 54.9047 23.8875C64.0125 18.6139 79.4659 24.0345 95.2378 38.0362C108.349 50.4221 119.483 64.7455 128.252 80.507C137.857 96.2136 144.907 113.346 149.138 131.265C150.982 139.605 151.267 148.215 149.977 156.659C149.67 159.773 148.693 162.784 147.114 165.485C145.534 168.186 143.39 170.514 140.826 172.308C138.365 173.673 135.585 174.358 132.772 174.293ZM74.0943 111.818C82.9843 127.66 94.3392 141.986 107.733 154.258C121.508 166.11 132.435 168.658 137.133 165.896C142.033 163.047 145.647 151.422 141.923 132.612C137.843 115.505 131.081 99.1509 121.888 84.1575C113.52 69.0724 102.892 55.3569 90.3745 43.4875C75.5275 30.3065 63.4858 27.3604 58.5797 30.2024C57.0505 31.445 55.7956 32.9912 54.8943 34.7434C53.9929 36.4955 53.4646 38.4155 53.3428 40.3821C52.3689 47.6591 52.6862 55.0509 54.2799 62.2177C58.2018 79.7055 64.8929 96.4541 74.1004 111.83L74.0943 111.818Z" fill="#00D8FF"/>
</svg>
