<svg width="196" height="196" viewBox="0 0 196 196" fill="none" xmlns="http://www.w3.org/2000/svg">
<path d="M72.6686 52.9113C32.5519 52.9113 0 41.409 0 26.4561V166.899C0 181.392 31.9788 193.124 71.637 193.354H72.6686C112.785 193.354 145.337 181.852 145.337 166.899V26.4561C145.337 41.0639 112.785 52.9113 72.6686 52.9113Z" fill="url(#paint0_linear_14_494)"/>
<path d="M145.337 26.4552C145.337 41.0631 112.785 52.9104 72.6686 52.9104C32.5519 52.9104 0 41.0631 0 26.4552C0 11.8473 32.5519 0 72.6686 0C112.785 0 145.337 11.5023 145.337 26.4552Z" fill="#E8E8E8"/>
<path d="M128.374 24.2689C128.374 33.5857 103.387 41.0622 72.6691 41.0622C41.9511 41.0622 17.1934 33.5857 17.1934 24.2689C17.1934 14.9521 41.9511 7.47559 72.6691 7.47559C103.387 7.47559 128.374 15.0671 128.374 24.2689Z" fill="#50E6FF"/>
<path d="M72.6681 28.1818C57.752 27.8811 42.8866 30.0178 28.6543 34.508C42.8725 39.2496 57.8054 41.4682 72.7827 41.0643C87.76 41.4682 102.693 39.2496 116.911 34.508C102.606 29.993 87.6608 27.856 72.6681 28.1818Z" fill="#198AB3"/>
<path d="M117.371 122.039V83.161H106.711V130.78H134.908V122.039H117.371ZM35.4182 102.83C33.2964 101.954 31.324 100.751 29.5726 99.2642C28.8029 98.203 28.4742 96.8832 28.6557 95.5834C28.6554 94.8853 28.8217 94.1973 29.1408 93.5769C29.4599 92.9565 29.9224 92.4219 30.4896 92.0177C31.9263 91.1089 33.6074 90.6671 35.3036 90.7525C39.3808 90.6102 43.3967 91.7789 46.7655 94.0881V84.1962C43.0969 82.8546 39.2062 82.2299 35.3036 82.3558C30.3802 81.9418 25.4789 83.3763 21.5493 86.3816C20.0352 87.6367 18.8253 89.2209 18.0111 91.0143C17.197 92.8078 16.7999 94.7635 16.8499 96.7337C16.8499 102.6 20.5177 107.201 28.3118 110.651C30.8023 111.74 33.1504 113.13 35.3036 114.792C35.873 115.221 36.3352 115.776 36.6535 116.415C36.9718 117.054 37.1375 117.759 37.1375 118.473C37.1378 119.171 36.9715 119.859 36.6524 120.479C36.3333 121.1 35.8708 121.634 35.3036 122.039C33.7738 123.036 31.9674 123.52 30.1457 123.419C25.3178 123.472 20.6638 121.612 17.1938 118.243V128.94C21.0087 130.804 25.2169 131.711 29.458 131.586C34.2387 131.805 38.9681 130.518 42.9831 127.905C44.5915 126.668 45.8792 125.061 46.7371 123.219C47.5951 121.377 47.998 119.354 47.9117 117.323C48.0229 114.369 46.9968 111.486 45.0462 109.271C42.3238 106.469 39.0431 104.274 35.4182 102.83ZM95.0202 120.888C97.6088 116.466 98.9185 111.408 98.8027 106.281C98.8993 101.891 97.9151 97.5447 95.9372 93.628C94.1478 90.0361 91.3614 87.0402 87.9138 85.0013C84.4202 83.0142 80.4676 81.9829 76.4519 82.0108C72.0886 81.9334 67.7812 83.0041 63.9584 85.1164C60.3757 87.196 57.4697 90.2721 55.5912 93.9731C53.5218 98.0667 52.4978 102.612 52.6111 107.201C52.5447 111.39 53.4885 115.534 55.362 119.278C57.0999 122.832 59.8014 125.822 63.1561 127.905C66.6162 130.013 70.5709 131.164 74.618 131.24L84.3606 142.743H98.0003L84.246 129.975C88.7828 128.299 92.5936 125.085 95.0202 120.888ZM84.3606 117.898C83.2847 119.18 81.9425 120.211 80.4278 120.919C78.9132 121.626 77.2628 121.992 75.5923 121.992C73.9217 121.992 72.2713 121.626 70.7567 120.919C69.2421 120.211 67.8998 119.18 66.8239 117.898C64.4327 114.565 63.2956 110.49 63.6146 106.396C63.2977 102.284 64.4788 98.1968 66.9385 94.8933C67.9681 93.5041 69.3216 92.3897 70.8803 91.6477C72.4391 90.9057 74.1554 90.5588 75.8788 90.6375C77.5495 90.5858 79.2072 90.9469 80.7062 91.689C82.2052 92.4311 83.4995 93.5315 84.4753 94.8933C86.7334 98.2842 87.8205 102.325 87.57 106.396C88.0286 110.61 86.8821 114.842 84.3606 118.243V117.898Z" fill="#F2F2F2"/>
<path d="M164.022 195.54L166.773 186.453L172.16 183.347L181.444 187.488L187.404 181.392V180.702L183.163 172.535L185.685 166.784L194.969 163.448H196.001V155.052H194.854L185.685 152.291L182.705 147L186.716 137.568L180.642 131.702H179.954L171.816 135.843L166.2 132.392L162.532 122.155H154.05V123.421L151.299 132.507L145.453 135.038L135.482 130.437L129.636 136.533L130.209 137.683L134.565 146.195L132.272 152.061L121.498 155.397V163.909H122.759L131.814 166.669L134.335 172.535L129.865 182.427L135.94 188.408L136.972 187.833L145.453 183.462L151.299 185.763L155.196 196H163.563L164.022 195.54ZM150.267 168.394C147.957 166.122 146.641 163.021 146.609 159.775C146.577 156.528 147.831 153.402 150.096 151.083C152.36 148.765 155.45 147.444 158.685 147.412C161.92 147.38 165.035 148.638 167.346 150.911C168.49 152.036 169.402 153.377 170.029 154.856C170.657 156.335 170.988 157.923 171.004 159.531C171.02 161.138 170.721 162.733 170.122 164.224C169.524 165.715 168.639 167.074 167.518 168.222C166.396 169.37 165.061 170.285 163.587 170.915C162.113 171.545 160.53 171.877 158.928 171.893C157.326 171.909 155.737 171.609 154.251 171.008C152.765 170.408 151.411 169.52 150.267 168.394Z" fill="#949494"/>
<defs>
<linearGradient id="paint0_linear_14_494" x1="0" y1="109.847" x2="145.337" y2="109.847" gradientUnits="userSpaceOnUse">
<stop stop-color="#005BA1"/>
<stop offset="0.07" stop-color="#0060A9"/>
<stop offset="0.36" stop-color="#0071C8"/>
<stop offset="0.52" stop-color="#0078D4"/>
<stop offset="0.64" stop-color="#0074CD"/>
<stop offset="0.82" stop-color="#006ABB"/>
<stop offset="1" stop-color="#005BA1"/>
</linearGradient>
</defs>
</svg>
